<?xml version="1.0" encoding="UTF-8" standalone="no"?>
<!DOCTYPE svg PUBLIC "-//W3C//DTD SVG 1.1//EN"
 "http://www.w3.org/Graphics/SVG/1.1/DTD/svg11.dtd">
<!-- Generated by graphviz version 2.38.0 (20140413.2041)
 -->
<!-- Title: src/dblib/dblib.c Pages: 1 -->
<svg width="1494pt" height="252pt"
 viewBox="0.00 0.00 1493.50 252.00" xmlns="http://www.w3.org/2000/svg" xmlns:xlink="http://www.w3.org/1999/xlink">
<g id="graph0" class="graph" transform="scale(1 1) rotate(0) translate(4 248)">
<title>src/dblib/dblib.c</title>
<polygon fill="white" stroke="none" points="-4,4 -4,-248 1489.5,-248 1489.5,4 -4,4"/>
<!-- Node0 -->
<g id="node1" class="node"><title>Node0</title>
<polygon fill="#bfbfbf" stroke="black" points="728,-224.5 728,-243.5 814,-243.5 814,-224.5 728,-224.5"/>
<text text-anchor="middle" x="771" y="-231.5" font-family="Helvetica,sans-Serif" font-size="10.00">src/dblib/dblib.c</text>
</g>
<!-- Node1 -->
<g id="node2" class="node"><title>Node1</title>
<g id="a_node2"><a xlink:href="a00362_source.html" target="_top" xlink:title="config.h">
<polygon fill="white" stroke="black" points="384.5,-0.5 384.5,-19.5 437.5,-19.5 437.5,-0.5 384.5,-0.5"/>
<text text-anchor="middle" x="411" y="-7.5" font-family="Helvetica,sans-Serif" font-size="10.00">config.h</text>
</a>
</g>
</g>
<!-- Node0&#45;&gt;Node1 -->
<g id="edge1" class="edge"><title>Node0&#45;&gt;Node1</title>
<path fill="none" stroke="midnightblue" d="M727.788,-232.151C608.627,-228.788 280.005,-212.269 217,-132 169.443,-71.4119 305.434,-33.1553 374.049,-18.1857"/>
<polygon fill="midnightblue" stroke="midnightblue" points="374.994,-21.5634 384.05,-16.0646 373.541,-14.7157 374.994,-21.5634"/>
</g>
<!-- Node2 -->
<g id="node3" class="node"><title>Node2</title>
<polygon fill="white" stroke="#bfbfbf" points="922.5,-56.5 922.5,-75.5 977.5,-75.5 977.5,-56.5 922.5,-56.5"/>
<text text-anchor="middle" x="950" y="-63.5" font-family="Helvetica,sans-Serif" font-size="10.00">stdarg.h</text>
</g>
<!-- Node0&#45;&gt;Node2 -->
<g id="edge2" class="edge"><title>Node0&#45;&gt;Node2</title>
<path fill="none" stroke="midnightblue" d="M809.25,-224.469C853.509,-212.324 924.349,-185.341 956,-132 964.305,-118.004 961.404,-99.2556 957.256,-85.4914"/>
<polygon fill="midnightblue" stroke="midnightblue" points="960.444,-84.0022 953.853,-75.7073 953.833,-86.3022 960.444,-84.0022"/>
</g>
<!-- Node3 -->
<g id="node4" class="node"><title>Node3</title>
<g id="a_node4"><a xlink:href="a00437_source.html" target="_top" xlink:title="freetds/time.h">
<polygon fill="white" stroke="black" points="226,-112.5 226,-131.5 306,-131.5 306,-112.5 226,-112.5"/>
<text text-anchor="middle" x="266" y="-119.5" font-family="Helvetica,sans-Serif" font-size="10.00">freetds/time.h</text>
</a>
</g>
</g>
<!-- Node0&#45;&gt;Node3 -->
<g id="edge3" class="edge"><title>Node0&#45;&gt;Node3</title>
<path fill="none" stroke="midnightblue" d="M727.569,-225.712C679.016,-217.382 598.126,-202.956 529,-188 450.348,-170.983 359.353,-147.679 307.645,-134.092"/>
<polygon fill="midnightblue" stroke="midnightblue" points="308.405,-130.673 297.843,-131.509 306.621,-137.441 308.405,-130.673"/>
</g>
<!-- Node4 -->
<g id="node5" class="node"><title>Node4</title>
<polygon fill="white" stroke="#bfbfbf" points="156,-168.5 156,-187.5 210,-187.5 210,-168.5 156,-168.5"/>
<text text-anchor="middle" x="183" y="-175.5" font-family="Helvetica,sans-Serif" font-size="10.00">assert.h</text>
</g>
<!-- Node0&#45;&gt;Node4 -->
<g id="edge5" class="edge"><title>Node0&#45;&gt;Node4</title>
<path fill="none" stroke="midnightblue" d="M727.869,-231.418C635.191,-227.588 410.338,-215.988 224,-188 222.743,-187.811 221.468,-187.606 220.181,-187.389"/>
<polygon fill="midnightblue" stroke="midnightblue" points="220.728,-183.93 210.252,-185.516 219.43,-190.809 220.728,-183.93"/>
</g>
<!-- Node5 -->
<g id="node6" class="node"><title>Node5</title>
<polygon fill="white" stroke="#bfbfbf" points="342.5,-112.5 342.5,-131.5 389.5,-131.5 389.5,-112.5 342.5,-112.5"/>
<text text-anchor="middle" x="366" y="-119.5" font-family="Helvetica,sans-Serif" font-size="10.00">stdio.h</text>
</g>
<!-- Node0&#45;&gt;Node5 -->
<g id="edge6" class="edge"><title>Node0&#45;&gt;Node5</title>
<path fill="none" stroke="midnightblue" d="M739.557,-224.46C664.675,-204.122 476.317,-152.963 399.451,-132.085"/>
<polygon fill="midnightblue" stroke="midnightblue" points="400.36,-128.705 389.792,-129.462 398.525,-135.461 400.36,-128.705"/>
</g>
<!-- Node6 -->
<g id="node7" class="node"><title>Node6</title>
<g id="a_node7"><a xlink:href="a00431.html" target="_top" xlink:title="Main include file for libtds. ">
<polygon fill="white" stroke="black" points="674.5,-168.5 674.5,-187.5 749.5,-187.5 749.5,-168.5 674.5,-168.5"/>
<text text-anchor="middle" x="712" y="-175.5" font-family="Helvetica,sans-Serif" font-size="10.00">freetds/tds.h</text>
</a>
</g>
</g>
<!-- Node0&#45;&gt;Node6 -->
<g id="edge7" class="edge"><title>Node0&#45;&gt;Node6</title>
<path fill="none" stroke="midnightblue" d="M761.521,-224.324C752.799,-216.341 739.657,-204.313 729.102,-194.653"/>
<polygon fill="midnightblue" stroke="midnightblue" points="731.392,-192.004 721.652,-187.834 726.666,-197.167 731.392,-192.004"/>
</g>
<!-- Node11 -->
<g id="node12" class="node"><title>Node11</title>
<g id="a_node12"><a xlink:href="a00434_source.html" target="_top" xlink:title="freetds/thread.h">
<polygon fill="white" stroke="black" points="78,-112.5 78,-131.5 170,-131.5 170,-112.5 78,-112.5"/>
<text text-anchor="middle" x="124" y="-119.5" font-family="Helvetica,sans-Serif" font-size="10.00">freetds/thread.h</text>
</a>
</g>
</g>
<!-- Node0&#45;&gt;Node11 -->
<g id="edge39" class="edge"><title>Node0&#45;&gt;Node11</title>
<path fill="none" stroke="midnightblue" d="M727.992,-232.586C594.432,-230.932 192.996,-223.064 147,-188 132.89,-177.244 127.409,-157.154 125.295,-142.144"/>
<polygon fill="midnightblue" stroke="midnightblue" points="128.746,-141.487 124.247,-131.894 121.782,-142.198 128.746,-141.487"/>
</g>
<!-- Node14 -->
<g id="node15" class="node"><title>Node14</title>
<g id="a_node15"><a xlink:href="a00464_source.html" target="_top" xlink:title="freetds/utils/string.h">
<polygon fill="white" stroke="black" points="1098,-112.5 1098,-131.5 1206,-131.5 1206,-112.5 1098,-112.5"/>
<text text-anchor="middle" x="1152" y="-119.5" font-family="Helvetica,sans-Serif" font-size="10.00">freetds/utils/string.h</text>
</a>
</g>
</g>
<!-- Node0&#45;&gt;Node14 -->
<g id="edge43" class="edge"><title>Node0&#45;&gt;Node14</title>
<path fill="none" stroke="midnightblue" d="M814.215,-230.053C888.585,-224.445 1037.29,-210.727 1084,-188 1106.83,-176.891 1127.02,-155.298 1139.34,-140.055"/>
<polygon fill="midnightblue" stroke="midnightblue" points="1142.28,-141.983 1145.65,-131.941 1136.75,-137.685 1142.28,-141.983"/>
</g>
<!-- Node17 -->
<g id="node18" class="node"><title>Node17</title>
<g id="a_node18"><a xlink:href="a00485_source.html" target="_top" xlink:title="replacements.h">
<polygon fill="white" stroke="black" points="838.5,-112.5 838.5,-131.5 927.5,-131.5 927.5,-112.5 838.5,-112.5"/>
<text text-anchor="middle" x="883" y="-119.5" font-family="Helvetica,sans-Serif" font-size="10.00">replacements.h</text>
</a>
</g>
</g>
<!-- Node0&#45;&gt;Node17 -->
<g id="edge47" class="edge"><title>Node0&#45;&gt;Node17</title>
<path fill="none" stroke="midnightblue" d="M779.788,-224.368C798.599,-205.894 842.993,-162.293 866.97,-138.744"/>
<polygon fill="midnightblue" stroke="midnightblue" points="869.57,-141.096 874.252,-131.591 864.665,-136.101 869.57,-141.096"/>
</g>
<!-- Node21 -->
<g id="node22" class="node"><title>Node21</title>
<g id="a_node22"><a xlink:href="a00395_source.html" target="_top" xlink:title="freetds/convert.h">
<polygon fill="white" stroke="black" points="1186,-56.5 1186,-75.5 1282,-75.5 1282,-56.5 1186,-56.5"/>
<text text-anchor="middle" x="1234" y="-63.5" font-family="Helvetica,sans-Serif" font-size="10.00">freetds/convert.h</text>
</a>
</g>
</g>
<!-- Node0&#45;&gt;Node21 -->
<g id="edge40" class="edge"><title>Node0&#45;&gt;Node21</title>
<path fill="none" stroke="midnightblue" d="M814.1,-232.323C879.9,-230.186 1008.65,-221.629 1112,-188 1161.55,-171.877 1182.29,-172.562 1215,-132 1225.71,-118.712 1230.39,-99.5894 1232.42,-85.5241"/>
<polygon fill="midnightblue" stroke="midnightblue" points="1235.91,-85.8675 1233.56,-75.5364 1228.95,-85.0776 1235.91,-85.8675"/>
</g>
<!-- Node22 -->
<g id="node23" class="node"><title>Node22</title>
<g id="a_node23"><a xlink:href="a00398_source.html" target="_top" xlink:title="freetds/data.h">
<polygon fill="white" stroke="black" points="1300,-56.5 1300,-75.5 1382,-75.5 1382,-56.5 1300,-56.5"/>
<text text-anchor="middle" x="1341" y="-63.5" font-family="Helvetica,sans-Serif" font-size="10.00">freetds/data.h</text>
</a>
</g>
</g>
<!-- Node0&#45;&gt;Node22 -->
<g id="edge44" class="edge"><title>Node0&#45;&gt;Node22</title>
<path fill="none" stroke="midnightblue" d="M814.315,-230.447C901.257,-224.914 1094,-210.477 1156,-188 1224.27,-163.251 1292.68,-108.987 1323.73,-82.3569"/>
<polygon fill="midnightblue" stroke="midnightblue" points="1326.22,-84.8305 1331.47,-75.6262 1321.63,-79.5495 1326.22,-84.8305"/>
</g>
<!-- Node23 -->
<g id="node24" class="node"><title>Node23</title>
<g id="a_node24"><a xlink:href="a00503_source.html" target="_top" xlink:title="sybfront.h">
<polygon fill="white" stroke="black" points="0,-168.5 0,-187.5 62,-187.5 62,-168.5 0,-168.5"/>
<text text-anchor="middle" x="31" y="-175.5" font-family="Helvetica,sans-Serif" font-size="10.00">sybfront.h</text>
</a>
</g>
</g>
<!-- Node0&#45;&gt;Node23 -->
<g id="edge48" class="edge"><title>Node0&#45;&gt;Node23</title>
<path fill="none" stroke="midnightblue" d="M727.7,-232.192C618.131,-229.714 321.146,-220.306 76,-188 74.8942,-187.854 73.7747,-187.698 72.6464,-187.532"/>
<polygon fill="midnightblue" stroke="midnightblue" points="72.8206,-184.013 62.3826,-185.829 71.6751,-190.918 72.8206,-184.013"/>
</g>
<!-- Node24 -->
<g id="node25" class="node"><title>Node24</title>
<g id="a_node25"><a xlink:href="a00497.html" target="_top" xlink:title="Primary include file for db&#45;lib applications. ">
<polygon fill="white" stroke="black" points="8,-112.5 8,-131.5 60,-131.5 60,-112.5 8,-112.5"/>
<text text-anchor="middle" x="34" y="-119.5" font-family="Helvetica,sans-Serif" font-size="10.00">sybdb.h</text>
</a>
</g>
</g>
<!-- Node0&#45;&gt;Node24 -->
<g id="edge51" class="edge"><title>Node0&#45;&gt;Node24</title>
<path fill="none" stroke="midnightblue" d="M727.893,-232.905C602.548,-232.169 240.06,-226.664 129,-188 98.5081,-177.385 68.6656,-154.279 50.7975,-138.677"/>
<polygon fill="midnightblue" stroke="midnightblue" points="52.8161,-135.785 43.0374,-131.707 48.1389,-140.993 52.8161,-135.785"/>
</g>
<!-- Node25 -->
<g id="node26" class="node"><title>Node25</title>
<g id="a_node26"><a xlink:href="a00500_source.html" target="_top" xlink:title="syberror.h">
<polygon fill="white" stroke="black" points="1300,-168.5 1300,-187.5 1364,-187.5 1364,-168.5 1300,-168.5"/>
<text text-anchor="middle" x="1332" y="-175.5" font-family="Helvetica,sans-Serif" font-size="10.00">syberror.h</text>
</a>
</g>
</g>
<!-- Node0&#45;&gt;Node25 -->
<g id="edge52" class="edge"><title>Node0&#45;&gt;Node25</title>
<path fill="none" stroke="midnightblue" d="M814.243,-230.775C903.001,-225.866 1112.04,-212.548 1286,-188 1287.27,-187.821 1288.56,-187.63 1289.85,-187.429"/>
<polygon fill="midnightblue" stroke="midnightblue" points="1290.63,-190.848 1299.9,-185.731 1289.46,-183.946 1290.63,-190.848"/>
</g>
<!-- Node26 -->
<g id="node27" class="node"><title>Node26</title>
<g id="a_node27"><a xlink:href="a00377_source.html" target="_top" xlink:title="dblib.h">
<polygon fill="white" stroke="black" points="1400,-56.5 1400,-75.5 1446,-75.5 1446,-56.5 1400,-56.5"/>
<text text-anchor="middle" x="1423" y="-63.5" font-family="Helvetica,sans-Serif" font-size="10.00">dblib.h</text>
</a>
</g>
</g>
<!-- Node0&#45;&gt;Node26 -->
<g id="edge53" class="edge"><title>Node0&#45;&gt;Node26</title>
<path fill="none" stroke="midnightblue" d="M814.251,-232.356C944.689,-230.06 1328.01,-220.58 1373,-188 1406.34,-163.853 1417.53,-113.304 1421.23,-85.8008"/>
<polygon fill="midnightblue" stroke="midnightblue" points="1424.74,-85.901 1422.39,-75.5688 1417.78,-85.1079 1424.74,-85.901"/>
</g>
<!-- Node27 -->
<g id="node28" class="node"><title>Node27</title>
<g id="a_node28"><a xlink:href="a00074_source.html" target="_top" xlink:title="buffering.h">
<polygon fill="white" stroke="black" points="1420.5,-168.5 1420.5,-187.5 1485.5,-187.5 1485.5,-168.5 1420.5,-168.5"/>
<text text-anchor="middle" x="1453" y="-175.5" font-family="Helvetica,sans-Serif" font-size="10.00">buffering.h</text>
</a>
</g>
</g>
<!-- Node0&#45;&gt;Node27 -->
<g id="edge56" class="edge"><title>Node0&#45;&gt;Node27</title>
<path fill="none" stroke="midnightblue" d="M814.294,-231.7C917.248,-228.225 1184.63,-216.935 1406,-188 1407.47,-187.808 1408.96,-187.6 1410.46,-187.377"/>
<polygon fill="midnightblue" stroke="midnightblue" points="1411.16,-190.81 1420.46,-185.748 1410.03,-183.901 1411.16,-190.81"/>
</g>
<!-- Node3&#45;&gt;Node3 -->
<g id="edge4" class="edge"><title>Node3&#45;&gt;Node3</title>
<path fill="none" stroke="midnightblue" d="M290.737,-131.525C307.545,-134.308 324,-131.133 324,-122 324,-114.722 313.551,-111.228 300.801,-111.517"/>
<polygon fill="midnightblue" stroke="midnightblue" points="300.36,-108.043 290.737,-112.475 301.024,-115.011 300.36,-108.043"/>
</g>
<!-- Node6&#45;&gt;Node2 -->
<g id="edge8" class="edge"><title>Node6&#45;&gt;Node2</title>
<path fill="none" stroke="midnightblue" d="M749.951,-174.326C806.798,-169.53 910.158,-157.485 936,-132 948.063,-120.104 950.896,-100.484 951.117,-85.9063"/>
<polygon fill="midnightblue" stroke="midnightblue" points="954.607,-85.4508 950.861,-75.5403 947.609,-85.6237 954.607,-85.4508"/>
</g>
<!-- Node6&#45;&gt;Node3 -->
<g id="edge10" class="edge"><title>Node6&#45;&gt;Node3</title>
<path fill="none" stroke="midnightblue" d="M674.321,-172.72C606.171,-164.936 457.9,-147.803 333,-132 327.542,-131.309 321.837,-130.57 316.157,-129.823"/>
<polygon fill="midnightblue" stroke="midnightblue" points="316.395,-126.324 306.021,-128.478 315.474,-133.263 316.395,-126.324"/>
</g>
<!-- Node6&#45;&gt;Node5 -->
<g id="edge9" class="edge"><title>Node6&#45;&gt;Node5</title>
<path fill="none" stroke="midnightblue" d="M674.367,-172.579C616.154,-165.499 500.87,-150.511 404,-132 402.543,-131.722 401.058,-131.425 399.56,-131.116"/>
<polygon fill="midnightblue" stroke="midnightblue" points="400.166,-127.665 389.648,-128.939 398.664,-134.502 400.166,-127.665"/>
</g>
<!-- Node7 -->
<g id="node8" class="node"><title>Node7</title>
<g id="a_node8"><a xlink:href="a00470_source.html" target="_top" xlink:title="freetds/version.h">
<polygon fill="white" stroke="black" points="588.5,-112.5 588.5,-131.5 683.5,-131.5 683.5,-112.5 588.5,-112.5"/>
<text text-anchor="middle" x="636" y="-119.5" font-family="Helvetica,sans-Serif" font-size="10.00">freetds/version.h</text>
</a>
</g>
</g>
<!-- Node6&#45;&gt;Node7 -->
<g id="edge11" class="edge"><title>Node6&#45;&gt;Node7</title>
<path fill="none" stroke="midnightblue" d="M699.789,-168.324C688.224,-160.107 670.625,-147.602 656.839,-137.807"/>
<polygon fill="midnightblue" stroke="midnightblue" points="658.612,-134.773 648.433,-131.834 654.557,-140.479 658.612,-134.773"/>
</g>
<!-- Node8 -->
<g id="node9" class="node"><title>Node8</title>
<g id="a_node9"><a xlink:href="a00506_source.html" target="_top" xlink:title="tds_sysdep_public.h">
<polygon fill="white" stroke="black" points="58.5,-56.5 58.5,-75.5 169.5,-75.5 169.5,-56.5 58.5,-56.5"/>
<text text-anchor="middle" x="114" y="-63.5" font-family="Helvetica,sans-Serif" font-size="10.00">tds_sysdep_public.h</text>
</a>
</g>
</g>
<!-- Node6&#45;&gt;Node8 -->
<g id="edge12" class="edge"><title>Node6&#45;&gt;Node8</title>
<path fill="none" stroke="midnightblue" d="M674.167,-173.839C621.284,-168.718 522.685,-156.596 442,-132 421.453,-125.736 418.572,-118.181 398,-112 325.049,-90.0805 238.165,-78.3039 179.875,-72.3662"/>
<polygon fill="midnightblue" stroke="midnightblue" points="179.99,-68.8606 169.694,-71.3589 179.301,-75.8266 179.99,-68.8606"/>
</g>
<!-- Node10 -->
<g id="node11" class="node"><title>Node10</title>
<g id="a_node11"><a xlink:href="a00428_source.html" target="_top" xlink:title="freetds/sysdep_private.h">
<polygon fill="white" stroke="black" points="381.5,-56.5 381.5,-75.5 514.5,-75.5 514.5,-56.5 381.5,-56.5"/>
<text text-anchor="middle" x="448" y="-63.5" font-family="Helvetica,sans-Serif" font-size="10.00">freetds/sysdep_private.h</text>
</a>
</g>
</g>
<!-- Node6&#45;&gt;Node10 -->
<g id="edge14" class="edge"><title>Node6&#45;&gt;Node10</title>
<path fill="none" stroke="midnightblue" d="M712.011,-168.353C711.529,-154.298 708.403,-126.601 692,-112 679.376,-100.763 590.525,-86.3908 523.655,-76.9511"/>
<polygon fill="midnightblue" stroke="midnightblue" points="523.932,-73.4559 513.544,-75.5375 522.963,-80.3885 523.932,-73.4559"/>
</g>
<!-- Node6&#45;&gt;Node11 -->
<g id="edge15" class="edge"><title>Node6&#45;&gt;Node11</title>
<path fill="none" stroke="midnightblue" d="M674.424,-173.659C591.732,-166.29 387.755,-148.024 217,-132 205.14,-130.887 192.431,-129.672 180.336,-128.505"/>
<polygon fill="midnightblue" stroke="midnightblue" points="180.644,-125.018 170.353,-127.539 179.97,-131.986 180.644,-125.018"/>
</g>
<!-- Node12 -->
<g id="node13" class="node"><title>Node12</title>
<g id="a_node13"><a xlink:href="a00383_source.html" target="_top" xlink:title="freetds/bool.h">
<polygon fill="white" stroke="black" points="740,-112.5 740,-131.5 820,-131.5 820,-112.5 740,-112.5"/>
<text text-anchor="middle" x="780" y="-119.5" font-family="Helvetica,sans-Serif" font-size="10.00">freetds/bool.h</text>
</a>
</g>
</g>
<!-- Node6&#45;&gt;Node12 -->
<g id="edge17" class="edge"><title>Node6&#45;&gt;Node12</title>
<path fill="none" stroke="midnightblue" d="M722.925,-168.324C733.175,-160.185 748.721,-147.839 761.001,-138.087"/>
<polygon fill="midnightblue" stroke="midnightblue" points="763.221,-140.794 768.876,-131.834 758.868,-135.312 763.221,-140.794"/>
</g>
<!-- Node13 -->
<g id="node14" class="node"><title>Node13</title>
<g id="a_node14"><a xlink:href="a00407_source.html" target="_top" xlink:title="freetds/macros.h">
<polygon fill="white" stroke="black" points="1034.5,-56.5 1034.5,-75.5 1129.5,-75.5 1129.5,-56.5 1034.5,-56.5"/>
<text text-anchor="middle" x="1082" y="-63.5" font-family="Helvetica,sans-Serif" font-size="10.00">freetds/macros.h</text>
</a>
</g>
</g>
<!-- Node6&#45;&gt;Node13 -->
<g id="edge18" class="edge"><title>Node6&#45;&gt;Node13</title>
<path fill="none" stroke="midnightblue" d="M749.922,-177.905C808.189,-177.864 922.004,-172.045 1008,-132 1032.33,-120.672 1054.64,-98.8047 1068.26,-83.5777"/>
<polygon fill="midnightblue" stroke="midnightblue" points="1071,-85.7631 1074.89,-75.9104 1065.71,-81.1834 1071,-85.7631"/>
</g>
<!-- Node6&#45;&gt;Node14 -->
<g id="edge19" class="edge"><title>Node6&#45;&gt;Node14</title>
<path fill="none" stroke="midnightblue" d="M749.514,-172.396C824.631,-163.177 994.279,-142.357 1087.55,-130.91"/>
<polygon fill="midnightblue" stroke="midnightblue" points="1088.21,-134.355 1097.71,-129.663 1087.36,-127.407 1088.21,-134.355"/>
</g>
<!-- Node15 -->
<g id="node16" class="node"><title>Node15</title>
<g id="a_node16"><a xlink:href="a00419_source.html" target="_top" xlink:title="freetds/pushvis.h">
<polygon fill="white" stroke="black" points="1072,-0.5 1072,-19.5 1168,-19.5 1168,-0.5 1072,-0.5"/>
<text text-anchor="middle" x="1120" y="-7.5" font-family="Helvetica,sans-Serif" font-size="10.00">freetds/pushvis.h</text>
</a>
</g>
</g>
<!-- Node6&#45;&gt;Node15 -->
<g id="edge36" class="edge"><title>Node6&#45;&gt;Node15</title>
<path fill="none" stroke="midnightblue" d="M749.614,-177.358C799.786,-176.276 889.949,-168.773 956,-132 995.861,-109.808 988.352,-83.1723 1025,-56 1043.6,-42.2085 1067.1,-31.0336 1086.07,-23.2696"/>
<polygon fill="midnightblue" stroke="midnightblue" points="1087.52,-26.46 1095.53,-19.5246 1084.95,-19.9515 1087.52,-26.46"/>
</g>
<!-- Node16 -->
<g id="node17" class="node"><title>Node16</title>
<g id="a_node17"><a xlink:href="a00413_source.html" target="_top" xlink:title="freetds/popvis.h">
<polygon fill="white" stroke="black" points="849,-0.5 849,-19.5 941,-19.5 941,-0.5 849,-0.5"/>
<text text-anchor="middle" x="895" y="-7.5" font-family="Helvetica,sans-Serif" font-size="10.00">freetds/popvis.h</text>
</a>
</g>
</g>
<!-- Node6&#45;&gt;Node16 -->
<g id="edge38" class="edge"><title>Node6&#45;&gt;Node16</title>
<path fill="none" stroke="midnightblue" d="M674.108,-173.466C626.508,-168.204 542.844,-156.214 475,-132 468.866,-129.811 375.329,-81.5985 372,-76 367.457,-68.3595 365.99,-62.5493 372,-56 403.084,-22.1268 710.104,-13.6946 838.749,-11.6423"/>
<polygon fill="midnightblue" stroke="midnightblue" points="838.854,-15.1412 848.799,-11.4892 838.747,-8.14199 838.854,-15.1412"/>
</g>
<!-- Node6&#45;&gt;Node17 -->
<g id="edge23" class="edge"><title>Node6&#45;&gt;Node17</title>
<path fill="none" stroke="midnightblue" d="M739.095,-168.444C767.988,-159.32 813.925,-144.813 846.105,-134.651"/>
<polygon fill="midnightblue" stroke="midnightblue" points="847.549,-137.865 856.031,-131.516 845.441,-131.19 847.549,-137.865"/>
</g>
<!-- Node20 -->
<g id="node21" class="node"><title>Node20</title>
<g id="a_node21"><a xlink:href="a00416_source.html" target="_top" xlink:title="freetds/proto.h">
<polygon fill="white" stroke="black" points="484,-112.5 484,-131.5 570,-131.5 570,-112.5 484,-112.5"/>
<text text-anchor="middle" x="527" y="-119.5" font-family="Helvetica,sans-Serif" font-size="10.00">freetds/proto.h</text>
</a>
</g>
</g>
<!-- Node6&#45;&gt;Node20 -->
<g id="edge37" class="edge"><title>Node6&#45;&gt;Node20</title>
<path fill="none" stroke="midnightblue" d="M682.686,-168.444C651.158,-159.241 600.869,-144.562 566.014,-134.388"/>
<polygon fill="midnightblue" stroke="midnightblue" points="566.757,-130.959 556.177,-131.516 564.795,-137.678 566.757,-130.959"/>
</g>
<!-- Node9 -->
<g id="node10" class="node"><title>Node9</title>
<polygon fill="white" stroke="#bfbfbf" points="91.5,-0.5 91.5,-19.5 136.5,-19.5 136.5,-0.5 91.5,-0.5"/>
<text text-anchor="middle" x="114" y="-7.5" font-family="Helvetica,sans-Serif" font-size="10.00">float.h</text>
</g>
<!-- Node8&#45;&gt;Node9 -->
<g id="edge13" class="edge"><title>Node8&#45;&gt;Node9</title>
<path fill="none" stroke="midnightblue" d="M114,-56.083C114,-49.0059 114,-38.8611 114,-29.9865"/>
<polygon fill="midnightblue" stroke="midnightblue" points="117.5,-29.751 114,-19.7511 110.5,-29.7511 117.5,-29.751"/>
</g>
<!-- Node11&#45;&gt;Node8 -->
<g id="edge16" class="edge"><title>Node11&#45;&gt;Node8</title>
<path fill="none" stroke="midnightblue" d="M122.349,-112.083C121.024,-104.927 119.118,-94.6353 117.461,-85.6911"/>
<polygon fill="midnightblue" stroke="midnightblue" points="120.883,-84.9466 115.621,-75.7511 114,-86.2212 120.883,-84.9466"/>
</g>
<!-- Node14&#45;&gt;Node13 -->
<g id="edge20" class="edge"><title>Node14&#45;&gt;Node13</title>
<path fill="none" stroke="midnightblue" d="M1140.75,-112.324C1130.2,-104.185 1114.2,-91.8395 1101.56,-82.0874"/>
<polygon fill="midnightblue" stroke="midnightblue" points="1103.51,-79.1707 1093.45,-75.8339 1099.23,-84.7132 1103.51,-79.1707"/>
</g>
<!-- Node14&#45;&gt;Node15 -->
<g id="edge21" class="edge"><title>Node14&#45;&gt;Node15</title>
<path fill="none" stroke="midnightblue" d="M1206.04,-121.071C1284.35,-119.891 1423.48,-112.547 1455,-76 1460.81,-69.2687 1460.85,-62.6907 1455,-56 1419.78,-15.7303 1264.78,-9.99643 1178.5,-10.0308"/>
<polygon fill="midnightblue" stroke="midnightblue" points="1178.32,-6.53124 1168.33,-10.0617 1178.34,-13.5312 1178.32,-6.53124"/>
</g>
<!-- Node14&#45;&gt;Node16 -->
<g id="edge22" class="edge"><title>Node14&#45;&gt;Node16</title>
<path fill="none" stroke="midnightblue" d="M1152.89,-112.434C1153.81,-98.4944 1153.4,-70.9603 1138,-56 1112.02,-30.7614 1014.6,-19.2396 951.278,-14.3198"/>
<polygon fill="midnightblue" stroke="midnightblue" points="951.27,-10.8097 941.038,-13.5583 950.751,-17.7904 951.27,-10.8097"/>
</g>
<!-- Node17&#45;&gt;Node2 -->
<g id="edge24" class="edge"><title>Node17&#45;&gt;Node2</title>
<path fill="none" stroke="midnightblue" d="M893.765,-112.324C903.766,-104.263 918.887,-92.0765 930.93,-82.3695"/>
<polygon fill="midnightblue" stroke="midnightblue" points="933.45,-84.8343 939.039,-75.8339 929.057,-79.3841 933.45,-84.8343"/>
</g>
<!-- Node17&#45;&gt;Node8 -->
<g id="edge25" class="edge"><title>Node17&#45;&gt;Node8</title>
<path fill="none" stroke="midnightblue" d="M838.261,-113.181C835.132,-112.746 832.022,-112.346 829,-112 591.021,-84.7519 306.454,-73.0335 180.076,-68.8998"/>
<polygon fill="midnightblue" stroke="midnightblue" points="179.904,-65.3926 169.797,-68.569 179.679,-72.389 179.904,-65.3926"/>
</g>
<!-- Node17&#45;&gt;Node10 -->
<g id="edge26" class="edge"><title>Node17&#45;&gt;Node10</title>
<path fill="none" stroke="midnightblue" d="M838.236,-113.371C835.113,-112.89 832.011,-112.428 829,-112 772.057,-103.897 618.54,-86.2459 524.669,-75.6179"/>
<polygon fill="midnightblue" stroke="midnightblue" points="524.984,-72.1312 514.654,-74.4849 524.197,-79.0868 524.984,-72.1312"/>
</g>
<!-- Node17&#45;&gt;Node15 -->
<g id="edge34" class="edge"><title>Node17&#45;&gt;Node15</title>
<path fill="none" stroke="midnightblue" d="M884.458,-112.323C887.303,-98.2253 894.97,-70.468 913,-56 935.636,-37.8364 1009.04,-24.965 1062.01,-17.7641"/>
<polygon fill="midnightblue" stroke="midnightblue" points="1062.52,-21.2266 1071.98,-16.4426 1061.6,-14.2873 1062.52,-21.2266"/>
</g>
<!-- Node17&#45;&gt;Node16 -->
<g id="edge35" class="edge"><title>Node17&#45;&gt;Node16</title>
<path fill="none" stroke="midnightblue" d="M838.228,-113.428C835.107,-112.934 832.007,-112.453 829,-112 709.105,-93.9305 482.211,-147.296 562,-56 597.276,-15.636 753.52,-10.0343 838.868,-10.0862"/>
<polygon fill="midnightblue" stroke="midnightblue" points="838.901,-13.5862 848.912,-10.1186 838.924,-6.58624 838.901,-13.5862"/>
</g>
<!-- Node18 -->
<g id="node19" class="node"><title>Node18</title>
<g id="a_node19"><a xlink:href="a00482_source.html" target="_top" xlink:title="replacements/readpassphrase.h">
<polygon fill="white" stroke="black" points="697.5,-56.5 697.5,-75.5 866.5,-75.5 866.5,-56.5 697.5,-56.5"/>
<text text-anchor="middle" x="782" y="-63.5" font-family="Helvetica,sans-Serif" font-size="10.00">replacements/readpassphrase.h</text>
</a>
</g>
</g>
<!-- Node17&#45;&gt;Node18 -->
<g id="edge27" class="edge"><title>Node17&#45;&gt;Node18</title>
<path fill="none" stroke="midnightblue" d="M866.773,-112.324C850.649,-103.703 825.7,-90.3643 807.036,-80.3855"/>
<polygon fill="midnightblue" stroke="midnightblue" points="808.656,-77.283 798.187,-75.6545 805.356,-83.456 808.656,-77.283"/>
</g>
<!-- Node19 -->
<g id="node20" class="node"><title>Node19</title>
<g id="a_node20"><a xlink:href="a00479.html" target="_top" xlink:title="Provide poll call where missing. ">
<polygon fill="white" stroke="black" points="571,-56.5 571,-75.5 679,-75.5 679,-56.5 571,-56.5"/>
<text text-anchor="middle" x="625" y="-63.5" font-family="Helvetica,sans-Serif" font-size="10.00">replacements/poll.h</text>
</a>
</g>
</g>
<!-- Node17&#45;&gt;Node19 -->
<g id="edge30" class="edge"><title>Node17&#45;&gt;Node19</title>
<path fill="none" stroke="midnightblue" d="M842.119,-112.444C797.017,-103.004 724.388,-87.802 675.698,-77.6111"/>
<polygon fill="midnightblue" stroke="midnightblue" points="676.195,-74.1394 665.69,-75.5164 674.76,-80.9909 676.195,-74.1394"/>
</g>
<!-- Node18&#45;&gt;Node15 -->
<g id="edge28" class="edge"><title>Node18&#45;&gt;Node15</title>
<path fill="none" stroke="midnightblue" d="M835.557,-56.4435C897.184,-46.5978 998.043,-30.4842 1061.63,-20.3253"/>
<polygon fill="midnightblue" stroke="midnightblue" points="1062.57,-23.72 1071.89,-18.6861 1061.46,-16.8077 1062.57,-23.72"/>
</g>
<!-- Node18&#45;&gt;Node16 -->
<g id="edge29" class="edge"><title>Node18&#45;&gt;Node16</title>
<path fill="none" stroke="midnightblue" d="M799.905,-56.4435C818.254,-47.6751 847.005,-33.9355 868.094,-23.8579"/>
<polygon fill="midnightblue" stroke="midnightblue" points="869.665,-26.9862 877.179,-19.5164 866.647,-20.6703 869.665,-26.9862"/>
</g>
<!-- Node19&#45;&gt;Node1 -->
<g id="edge31" class="edge"><title>Node19&#45;&gt;Node1</title>
<path fill="none" stroke="midnightblue" d="M591.091,-56.4435C551.952,-46.5674 487.821,-30.3846 447.584,-20.2314"/>
<polygon fill="midnightblue" stroke="midnightblue" points="448.204,-16.7782 437.651,-17.7251 446.491,-23.5654 448.204,-16.7782"/>
</g>
<!-- Node19&#45;&gt;Node15 -->
<g id="edge32" class="edge"><title>Node19&#45;&gt;Node15</title>
<path fill="none" stroke="midnightblue" d="M679.279,-57.112C682.227,-56.7253 685.149,-56.352 688,-56 821.624,-39.5019 979.004,-24.1267 1062,-16.3338"/>
<polygon fill="midnightblue" stroke="midnightblue" points="1062.36,-19.8156 1071.99,-15.3987 1061.7,-12.846 1062.36,-19.8156"/>
</g>
<!-- Node19&#45;&gt;Node16 -->
<g id="edge33" class="edge"><title>Node19&#45;&gt;Node16</title>
<path fill="none" stroke="midnightblue" d="M667.782,-56.4435C715.179,-46.9641 791.626,-31.6747 842.583,-21.4835"/>
<polygon fill="midnightblue" stroke="midnightblue" points="843.298,-24.9097 852.418,-19.5164 841.926,-18.0456 843.298,-24.9097"/>
</g>
<!-- Node21&#45;&gt;Node15 -->
<g id="edge41" class="edge"><title>Node21&#45;&gt;Node15</title>
<path fill="none" stroke="midnightblue" d="M1215.94,-56.4435C1197.43,-47.6751 1168.42,-33.9355 1147.14,-23.8579"/>
<polygon fill="midnightblue" stroke="midnightblue" points="1148.51,-20.6343 1137.98,-19.5164 1145.52,-26.9604 1148.51,-20.6343"/>
</g>
<!-- Node21&#45;&gt;Node16 -->
<g id="edge42" class="edge"><title>Node21&#45;&gt;Node16</title>
<path fill="none" stroke="midnightblue" d="M1185.79,-57.3205C1123.93,-47.467 1016.82,-30.4043 951.288,-19.9663"/>
<polygon fill="midnightblue" stroke="midnightblue" points="951.568,-16.4668 941.142,-18.35 950.467,-23.3796 951.568,-16.4668"/>
</g>
<!-- Node22&#45;&gt;Node15 -->
<g id="edge45" class="edge"><title>Node22&#45;&gt;Node15</title>
<path fill="none" stroke="midnightblue" d="M1305.98,-56.4435C1267.75,-47.1024 1206.43,-32.1194 1164.74,-21.9326"/>
<polygon fill="midnightblue" stroke="midnightblue" points="1165.4,-18.4901 1154.85,-19.5164 1163.74,-25.2901 1165.4,-18.4901"/>
</g>
<!-- Node22&#45;&gt;Node16 -->
<g id="edge46" class="edge"><title>Node22&#45;&gt;Node16</title>
<path fill="none" stroke="midnightblue" d="M1299.83,-57.3715C1296.85,-56.8854 1293.88,-56.4224 1291,-56 1170.53,-38.3316 1028.57,-23.6905 951.581,-16.2633"/>
<polygon fill="midnightblue" stroke="midnightblue" points="951.447,-12.7345 941.159,-15.2637 950.779,-19.7025 951.447,-12.7345"/>
</g>
<!-- Node23&#45;&gt;Node24 -->
<g id="edge49" class="edge"><title>Node23&#45;&gt;Node24</title>
<path fill="none" stroke="midnightblue" d="M31.4954,-168.083C31.8886,-161.006 32.4522,-150.861 32.9452,-141.986"/>
<polygon fill="midnightblue" stroke="midnightblue" points="36.4536,-141.93 33.5138,-131.751 29.4644,-141.542 36.4536,-141.93"/>
</g>
<!-- Node24&#45;&gt;Node8 -->
<g id="edge50" class="edge"><title>Node24&#45;&gt;Node8</title>
<path fill="none" stroke="midnightblue" d="M46.8534,-112.324C59.2164,-103.979 78.1301,-91.2122 92.7372,-81.3524"/>
<polygon fill="midnightblue" stroke="midnightblue" points="94.8482,-84.1503 101.179,-75.6545 90.9318,-78.3483 94.8482,-84.1503"/>
</g>
<!-- Node26&#45;&gt;Node15 -->
<g id="edge54" class="edge"><title>Node26&#45;&gt;Node15</title>
<path fill="none" stroke="midnightblue" d="M1399.66,-58.1156C1396.75,-57.3539 1393.82,-56.6279 1391,-56 1318.25,-39.7817 1233.34,-26.5953 1178.22,-18.7827"/>
<polygon fill="midnightblue" stroke="midnightblue" points="1178.67,-15.3122 1168.28,-17.387 1177.7,-22.2441 1178.67,-15.3122"/>
</g>
<!-- Node26&#45;&gt;Node16 -->
<g id="edge55" class="edge"><title>Node26&#45;&gt;Node16</title>
<path fill="none" stroke="midnightblue" d="M1399.7,-57.9122C1396.79,-57.1853 1393.84,-56.5232 1391,-56 1307.92,-40.6833 1062.7,-22.5316 951.257,-14.7962"/>
<polygon fill="midnightblue" stroke="midnightblue" points="951.438,-11.3004 941.22,-14.1026 950.955,-18.2837 951.438,-11.3004"/>
</g>
</g>
</svg>
