<?xml version="1.0" encoding="UTF-8" standalone="no"?>
<!DOCTYPE svg PUBLIC "-//W3C//DTD SVG 1.1//EN"
 "http://www.w3.org/Graphics/SVG/1.1/DTD/svg11.dtd">
<!-- Generated by graphviz version 2.38.0 (20140413.2041)
 -->
<!-- Title: src/tds/read.c Pages: 1 -->
<svg width="1340pt" height="252pt"
 viewBox="0.00 0.00 1339.80 252.00" xmlns="http://www.w3.org/2000/svg" xmlns:xlink="http://www.w3.org/1999/xlink">
<g id="graph0" class="graph" transform="scale(1 1) rotate(0) translate(4 248)">
<title>src/tds/read.c</title>
<polygon fill="white" stroke="none" points="-4,4 -4,-248 1335.8,-248 1335.8,4 -4,4"/>
<!-- Node0 -->
<g id="node1" class="node"><title>Node0</title>
<polygon fill="#bfbfbf" stroke="black" points="919.8,-224.5 919.8,-243.5 999.8,-243.5 999.8,-224.5 919.8,-224.5"/>
<text text-anchor="middle" x="959.8" y="-231.5" font-family="Helvetica,sans-Serif" font-size="10.00">src/tds/read.c</text>
</g>
<!-- Node1 -->
<g id="node2" class="node"><title>Node1</title>
<g id="a_node2"><a xlink:href="a00362_source.html" target="_top" xlink:title="config.h">
<polygon fill="white" stroke="black" points="2.29956,-0.5 2.29956,-19.5 55.2996,-19.5 55.2996,-0.5 2.29956,-0.5"/>
<text text-anchor="middle" x="28.7996" y="-7.5" font-family="Helvetica,sans-Serif" font-size="10.00">config.h</text>
</a>
</g>
</g>
<!-- Node0&#45;&gt;Node1 -->
<g id="edge1" class="edge"><title>Node0&#45;&gt;Node1</title>
<path fill="none" stroke="midnightblue" d="M919.587,-231.422C767.543,-224.996 228.486,-197.944 71.7996,-132 35.3966,-116.679 19.7834,-111.657 2.79956,-76 -4.84412,-59.9521 4.73135,-41.0261 14.3464,-27.748"/>
<polygon fill="midnightblue" stroke="midnightblue" points="17.3567,-29.5828 20.7982,-19.5625 11.8591,-25.2496 17.3567,-29.5828"/>
</g>
<!-- Node2 -->
<g id="node3" class="node"><title>Node2</title>
<polygon fill="white" stroke="#bfbfbf" points="565.8,-168.5 565.8,-187.5 619.8,-187.5 619.8,-168.5 565.8,-168.5"/>
<text text-anchor="middle" x="592.8" y="-175.5" font-family="Helvetica,sans-Serif" font-size="10.00">assert.h</text>
</g>
<!-- Node0&#45;&gt;Node2 -->
<g id="edge2" class="edge"><title>Node0&#45;&gt;Node2</title>
<path fill="none" stroke="midnightblue" d="M919.571,-228.973C858.87,-222.583 740.097,-208.857 629.816,-188.01"/>
<polygon fill="midnightblue" stroke="midnightblue" points="630.335,-184.546 619.855,-186.103 629.019,-191.421 630.335,-184.546"/>
</g>
<!-- Node3 -->
<g id="node4" class="node"><title>Node3</title>
<g id="a_node4"><a xlink:href="a00431.html" target="_top" xlink:title="Main include file for libtds. ">
<polygon fill="white" stroke="black" points="638.3,-168.5 638.3,-187.5 713.3,-187.5 713.3,-168.5 638.3,-168.5"/>
<text text-anchor="middle" x="675.8" y="-175.5" font-family="Helvetica,sans-Serif" font-size="10.00">freetds/tds.h</text>
</a>
</g>
</g>
<!-- Node0&#45;&gt;Node3 -->
<g id="edge3" class="edge"><title>Node0&#45;&gt;Node3</title>
<path fill="none" stroke="midnightblue" d="M919.712,-225.378C868.037,-215.552 778.306,-198.491 723.274,-188.027"/>
<polygon fill="midnightblue" stroke="midnightblue" points="723.898,-184.583 713.42,-186.153 722.59,-191.46 723.898,-184.583"/>
</g>
<!-- Node14 -->
<g id="node15" class="node"><title>Node14</title>
<g id="a_node15"><a xlink:href="a00464_source.html" target="_top" xlink:title="freetds/utils/string.h">
<polygon fill="white" stroke="black" points="1006.8,-112.5 1006.8,-131.5 1114.8,-131.5 1114.8,-112.5 1006.8,-112.5"/>
<text text-anchor="middle" x="1060.8" y="-119.5" font-family="Helvetica,sans-Serif" font-size="10.00">freetds/utils/string.h</text>
</a>
</g>
</g>
<!-- Node0&#45;&gt;Node14 -->
<g id="edge43" class="edge"><title>Node0&#45;&gt;Node14</title>
<path fill="none" stroke="midnightblue" d="M963.469,-224.251C969.321,-211.012 981.762,-185.572 997.8,-168 1008.96,-155.777 1023.95,-144.903 1036.52,-136.907"/>
<polygon fill="midnightblue" stroke="midnightblue" points="1038.45,-139.827 1045.14,-131.615 1034.79,-133.86 1038.45,-139.827"/>
</g>
<!-- Node21 -->
<g id="node22" class="node"><title>Node21</title>
<g id="a_node22"><a xlink:href="a00404_source.html" target="_top" xlink:title="freetds/iconv.h">
<polygon fill="white" stroke="black" points="1245.8,-56.5 1245.8,-75.5 1331.8,-75.5 1331.8,-56.5 1245.8,-56.5"/>
<text text-anchor="middle" x="1288.8" y="-63.5" font-family="Helvetica,sans-Serif" font-size="10.00">freetds/iconv.h</text>
</a>
</g>
</g>
<!-- Node0&#45;&gt;Node21 -->
<g id="edge36" class="edge"><title>Node0&#45;&gt;Node21</title>
<path fill="none" stroke="midnightblue" d="M1000.02,-226.225C1034.15,-219.492 1083.79,-207.338 1123.8,-188 1183.47,-159.154 1243.81,-108.081 1272.15,-82.5032"/>
<polygon fill="midnightblue" stroke="midnightblue" points="1274.55,-85.0491 1279.57,-75.7199 1269.83,-79.8813 1274.55,-85.0491"/>
</g>
<!-- Node22 -->
<g id="node23" class="node"><title>Node22</title>
<g id="a_node23"><a xlink:href="a00386_source.html" target="_top" xlink:title="freetds/bytes.h">
<polygon fill="white" stroke="black" points="1006.8,-168.5 1006.8,-187.5 1092.8,-187.5 1092.8,-168.5 1006.8,-168.5"/>
<text text-anchor="middle" x="1049.8" y="-175.5" font-family="Helvetica,sans-Serif" font-size="10.00">freetds/bytes.h</text>
</a>
</g>
</g>
<!-- Node0&#45;&gt;Node22 -->
<g id="edge39" class="edge"><title>Node0&#45;&gt;Node22</title>
<path fill="none" stroke="midnightblue" d="M974.26,-224.324C988.299,-215.9 1009.85,-202.971 1026.34,-193.074"/>
<polygon fill="midnightblue" stroke="midnightblue" points="1028.6,-195.801 1035.38,-187.655 1025,-189.798 1028.6,-195.801"/>
</g>
<!-- Node23 -->
<g id="node24" class="node"><title>Node23</title>
<g id="a_node24"><a xlink:href="a00425_source.html" target="_top" xlink:title="freetds/stream.h">
<polygon fill="white" stroke="black" points="794.3,-56.5 794.3,-75.5 887.3,-75.5 887.3,-56.5 794.3,-56.5"/>
<text text-anchor="middle" x="840.8" y="-63.5" font-family="Helvetica,sans-Serif" font-size="10.00">freetds/stream.h</text>
</a>
</g>
</g>
<!-- Node0&#45;&gt;Node23 -->
<g id="edge40" class="edge"><title>Node0&#45;&gt;Node23</title>
<path fill="none" stroke="midnightblue" d="M955.077,-224.429C943.732,-204.115 913.591,-151.771 882.8,-112 874.867,-101.754 865.027,-91.1193 856.866,-82.7621"/>
<polygon fill="midnightblue" stroke="midnightblue" points="859.208,-80.1535 849.673,-75.5345 854.246,-85.0914 859.208,-80.1535"/>
</g>
<!-- Node24 -->
<g id="node25" class="node"><title>Node24</title>
<g id="a_node25"><a xlink:href="a00389_source.html" target="_top" xlink:title="freetds/checks.h">
<polygon fill="white" stroke="black" points="1095.8,-56.5 1095.8,-75.5 1189.8,-75.5 1189.8,-56.5 1095.8,-56.5"/>
<text text-anchor="middle" x="1142.8" y="-63.5" font-family="Helvetica,sans-Serif" font-size="10.00">freetds/checks.h</text>
</a>
</g>
</g>
<!-- Node0&#45;&gt;Node24 -->
<g id="edge44" class="edge"><title>Node0&#45;&gt;Node24</title>
<path fill="none" stroke="midnightblue" d="M1000,-229.592C1031.33,-224.944 1074.03,-213.96 1101.8,-188 1130.73,-160.953 1139.25,-112.763 1141.76,-86.0874"/>
<polygon fill="midnightblue" stroke="midnightblue" points="1145.27,-86.0282 1142.52,-75.7965 1138.29,-85.51 1145.27,-86.0282"/>
</g>
<!-- Node4 -->
<g id="node5" class="node"><title>Node4</title>
<polygon fill="white" stroke="#bfbfbf" points="12.2996,-56.5 12.2996,-75.5 67.2996,-75.5 67.2996,-56.5 12.2996,-56.5"/>
<text text-anchor="middle" x="39.7996" y="-63.5" font-family="Helvetica,sans-Serif" font-size="10.00">stdarg.h</text>
</g>
<!-- Node3&#45;&gt;Node4 -->
<g id="edge4" class="edge"><title>Node3&#45;&gt;Node4</title>
<path fill="none" stroke="midnightblue" d="M638.154,-169.376C634.997,-168.863 631.848,-168.395 628.8,-168 512.607,-152.955 209.066,-181.339 102.8,-132 80.6079,-121.697 62.1075,-99.8849 51.0163,-84.3733"/>
<polygon fill="midnightblue" stroke="midnightblue" points="53.6232,-81.9834 45.1011,-75.6886 47.8377,-85.9239 53.6232,-81.9834"/>
</g>
<!-- Node5 -->
<g id="node6" class="node"><title>Node5</title>
<polygon fill="white" stroke="#bfbfbf" points="225.3,-112.5 225.3,-131.5 272.3,-131.5 272.3,-112.5 225.3,-112.5"/>
<text text-anchor="middle" x="248.8" y="-119.5" font-family="Helvetica,sans-Serif" font-size="10.00">stdio.h</text>
</g>
<!-- Node3&#45;&gt;Node5 -->
<g id="edge5" class="edge"><title>Node3&#45;&gt;Node5</title>
<path fill="none" stroke="midnightblue" d="M638.138,-169.493C634.985,-168.955 631.841,-168.448 628.8,-168 478.701,-145.884 436.031,-159.861 282.744,-131.862"/>
<polygon fill="midnightblue" stroke="midnightblue" points="282.957,-128.341 272.485,-129.956 281.678,-135.223 282.957,-128.341"/>
</g>
<!-- Node6 -->
<g id="node7" class="node"><title>Node6</title>
<g id="a_node7"><a xlink:href="a00437_source.html" target="_top" xlink:title="time.h">
<polygon fill="white" stroke="black" points="290.8,-112.5 290.8,-131.5 334.8,-131.5 334.8,-112.5 290.8,-112.5"/>
<text text-anchor="middle" x="312.8" y="-119.5" font-family="Helvetica,sans-Serif" font-size="10.00">time.h</text>
</a>
</g>
</g>
<!-- Node3&#45;&gt;Node6 -->
<g id="edge6" class="edge"><title>Node3&#45;&gt;Node6</title>
<path fill="none" stroke="midnightblue" d="M638.122,-169.596C634.972,-169.034 631.833,-168.495 628.8,-168 510.619,-148.733 480.052,-150.821 361.8,-132 356.49,-131.155 350.871,-130.19 345.404,-129.212"/>
<polygon fill="midnightblue" stroke="midnightblue" points="345.67,-125.703 335.203,-127.347 344.41,-132.589 345.67,-125.703"/>
</g>
<!-- Node7 -->
<g id="node8" class="node"><title>Node7</title>
<g id="a_node8"><a xlink:href="a00470_source.html" target="_top" xlink:title="freetds/version.h">
<polygon fill="white" stroke="black" points="371.3,-112.5 371.3,-131.5 466.3,-131.5 466.3,-112.5 371.3,-112.5"/>
<text text-anchor="middle" x="418.8" y="-119.5" font-family="Helvetica,sans-Serif" font-size="10.00">freetds/version.h</text>
</a>
</g>
</g>
<!-- Node3&#45;&gt;Node7 -->
<g id="edge8" class="edge"><title>Node3&#45;&gt;Node7</title>
<path fill="none" stroke="midnightblue" d="M638.154,-169.09C593.545,-159.717 519.028,-144.06 469.403,-133.633"/>
<polygon fill="midnightblue" stroke="midnightblue" points="470.025,-130.187 459.519,-131.556 468.585,-137.037 470.025,-130.187"/>
</g>
<!-- Node8 -->
<g id="node9" class="node"><title>Node8</title>
<g id="a_node9"><a xlink:href="a00506_source.html" target="_top" xlink:title="tds_sysdep_public.h">
<polygon fill="white" stroke="black" points="85.2996,-56.5 85.2996,-75.5 196.3,-75.5 196.3,-56.5 85.2996,-56.5"/>
<text text-anchor="middle" x="140.8" y="-63.5" font-family="Helvetica,sans-Serif" font-size="10.00">tds_sysdep_public.h</text>
</a>
</g>
</g>
<!-- Node3&#45;&gt;Node8 -->
<g id="edge9" class="edge"><title>Node3&#45;&gt;Node8</title>
<path fill="none" stroke="midnightblue" d="M638.154,-169.38C634.997,-168.866 631.848,-168.397 628.8,-168 571.697,-160.572 151.078,-174.108 111.8,-132 98.8351,-118.101 111.918,-97.4394 124.429,-83.1587"/>
<polygon fill="midnightblue" stroke="midnightblue" points="127.241,-85.2762 131.528,-75.5872 122.135,-80.4885 127.241,-85.2762"/>
</g>
<!-- Node10 -->
<g id="node11" class="node"><title>Node10</title>
<g id="a_node11"><a xlink:href="a00428_source.html" target="_top" xlink:title="freetds/sysdep_private.h">
<polygon fill="white" stroke="black" points="604.3,-56.5 604.3,-75.5 737.3,-75.5 737.3,-56.5 604.3,-56.5"/>
<text text-anchor="middle" x="670.8" y="-63.5" font-family="Helvetica,sans-Serif" font-size="10.00">freetds/sysdep_private.h</text>
</a>
</g>
</g>
<!-- Node3&#45;&gt;Node10 -->
<g id="edge11" class="edge"><title>Node3&#45;&gt;Node10</title>
<path fill="none" stroke="midnightblue" d="M680.876,-168.208C687.433,-155.751 697.48,-132.228 692.8,-112 690.57,-102.363 685.978,-92.4052 681.564,-84.3149"/>
<polygon fill="midnightblue" stroke="midnightblue" points="684.497,-82.3968 676.437,-75.5194 678.449,-85.9216 684.497,-82.3968"/>
</g>
<!-- Node11 -->
<g id="node12" class="node"><title>Node11</title>
<g id="a_node12"><a xlink:href="a00434_source.html" target="_top" xlink:title="freetds/thread.h">
<polygon fill="white" stroke="black" points="484.8,-112.5 484.8,-131.5 576.8,-131.5 576.8,-112.5 484.8,-112.5"/>
<text text-anchor="middle" x="530.8" y="-119.5" font-family="Helvetica,sans-Serif" font-size="10.00">freetds/thread.h</text>
</a>
</g>
</g>
<!-- Node3&#45;&gt;Node11 -->
<g id="edge12" class="edge"><title>Node3&#45;&gt;Node11</title>
<path fill="none" stroke="midnightblue" d="M652.824,-168.444C628.643,-159.438 590.382,-145.189 563.153,-135.049"/>
<polygon fill="midnightblue" stroke="midnightblue" points="564.26,-131.727 553.668,-131.516 561.817,-138.286 564.26,-131.727"/>
</g>
<!-- Node12 -->
<g id="node13" class="node"><title>Node12</title>
<g id="a_node13"><a xlink:href="a00383_source.html" target="_top" xlink:title="freetds/bool.h">
<polygon fill="white" stroke="black" points="793.8,-112.5 793.8,-131.5 873.8,-131.5 873.8,-112.5 793.8,-112.5"/>
<text text-anchor="middle" x="833.8" y="-119.5" font-family="Helvetica,sans-Serif" font-size="10.00">freetds/bool.h</text>
</a>
</g>
</g>
<!-- Node3&#45;&gt;Node12 -->
<g id="edge14" class="edge"><title>Node3&#45;&gt;Node12</title>
<path fill="none" stroke="midnightblue" d="M700.835,-168.444C727.416,-159.359 769.608,-144.939 799.323,-134.783"/>
<polygon fill="midnightblue" stroke="midnightblue" points="800.55,-138.062 808.881,-131.516 798.287,-131.439 800.55,-138.062"/>
</g>
<!-- Node13 -->
<g id="node14" class="node"><title>Node13</title>
<g id="a_node14"><a xlink:href="a00407_source.html" target="_top" xlink:title="freetds/macros.h">
<polygon fill="white" stroke="black" points="944.3,-56.5 944.3,-75.5 1039.3,-75.5 1039.3,-56.5 944.3,-56.5"/>
<text text-anchor="middle" x="991.8" y="-63.5" font-family="Helvetica,sans-Serif" font-size="10.00">freetds/macros.h</text>
</a>
</g>
</g>
<!-- Node3&#45;&gt;Node13 -->
<g id="edge15" class="edge"><title>Node3&#45;&gt;Node13</title>
<path fill="none" stroke="midnightblue" d="M713.606,-176.009C762.728,-173.398 850.091,-164.17 916.8,-132 941.156,-120.254 963.836,-98.4816 977.741,-83.3901"/>
<polygon fill="midnightblue" stroke="midnightblue" points="980.469,-85.5899 984.518,-75.7994 975.247,-80.9278 980.469,-85.5899"/>
</g>
<!-- Node3&#45;&gt;Node14 -->
<g id="edge16" class="edge"><title>Node3&#45;&gt;Node14</title>
<path fill="none" stroke="midnightblue" d="M713.416,-171.724C779.192,-162.498 915.791,-143.339 996.718,-131.988"/>
<polygon fill="midnightblue" stroke="midnightblue" points="997.369,-135.431 1006.79,-130.576 996.397,-128.499 997.369,-135.431"/>
</g>
<!-- Node15 -->
<g id="node16" class="node"><title>Node15</title>
<g id="a_node16"><a xlink:href="a00419_source.html" target="_top" xlink:title="freetds/pushvis.h">
<polygon fill="white" stroke="black" points="857.8,-0.5 857.8,-19.5 953.8,-19.5 953.8,-0.5 857.8,-0.5"/>
<text text-anchor="middle" x="905.8" y="-7.5" font-family="Helvetica,sans-Serif" font-size="10.00">freetds/pushvis.h</text>
</a>
</g>
</g>
<!-- Node3&#45;&gt;Node15 -->
<g id="edge33" class="edge"><title>Node3&#45;&gt;Node15</title>
<path fill="none" stroke="midnightblue" d="M713.467,-173.601C766.468,-168.046 859.231,-155.24 882.8,-132 910.122,-105.059 910.441,-56.4345 908.189,-29.7623"/>
<polygon fill="midnightblue" stroke="midnightblue" points="911.636,-29.0792 907.1,-19.5049 904.676,-29.8187 911.636,-29.0792"/>
</g>
<!-- Node16 -->
<g id="node17" class="node"><title>Node16</title>
<g id="a_node17"><a xlink:href="a00413_source.html" target="_top" xlink:title="freetds/popvis.h">
<polygon fill="white" stroke="black" points="728.8,-0.5 728.8,-19.5 820.8,-19.5 820.8,-0.5 728.8,-0.5"/>
<text text-anchor="middle" x="774.8" y="-7.5" font-family="Helvetica,sans-Serif" font-size="10.00">freetds/popvis.h</text>
</a>
</g>
</g>
<!-- Node3&#45;&gt;Node16 -->
<g id="edge35" class="edge"><title>Node3&#45;&gt;Node16</title>
<path fill="none" stroke="midnightblue" d="M681.991,-168.413C688.478,-159.387 698.939,-144.754 707.8,-132 724.961,-107.298 731.171,-102.281 745.8,-76 754.336,-60.665 762.326,-42.3381 767.75,-29.0595"/>
<polygon fill="midnightblue" stroke="midnightblue" points="771.05,-30.2312 771.51,-19.6463 764.55,-27.6345 771.05,-30.2312"/>
</g>
<!-- Node17 -->
<g id="node18" class="node"><title>Node17</title>
<g id="a_node18"><a xlink:href="a00485_source.html" target="_top" xlink:title="replacements.h">
<polygon fill="white" stroke="black" points="595.3,-112.5 595.3,-131.5 684.3,-131.5 684.3,-112.5 595.3,-112.5"/>
<text text-anchor="middle" x="639.8" y="-119.5" font-family="Helvetica,sans-Serif" font-size="10.00">replacements.h</text>
</a>
</g>
</g>
<!-- Node3&#45;&gt;Node17 -->
<g id="edge20" class="edge"><title>Node3&#45;&gt;Node17</title>
<path fill="none" stroke="midnightblue" d="M669.855,-168.083C664.822,-160.534 657.463,-149.495 651.286,-140.23"/>
<polygon fill="midnightblue" stroke="midnightblue" points="654.093,-138.13 645.634,-131.751 648.268,-142.013 654.093,-138.13"/>
</g>
<!-- Node20 -->
<g id="node21" class="node"><title>Node20</title>
<g id="a_node21"><a xlink:href="a00416_source.html" target="_top" xlink:title="freetds/proto.h">
<polygon fill="white" stroke="black" points="120.8,-112.5 120.8,-131.5 206.8,-131.5 206.8,-112.5 120.8,-112.5"/>
<text text-anchor="middle" x="163.8" y="-119.5" font-family="Helvetica,sans-Serif" font-size="10.00">freetds/proto.h</text>
</a>
</g>
</g>
<!-- Node3&#45;&gt;Node20 -->
<g id="edge34" class="edge"><title>Node3&#45;&gt;Node20</title>
<path fill="none" stroke="midnightblue" d="M638.146,-169.439C634.991,-168.912 631.844,-168.423 628.8,-168 449.509,-143.086 400.238,-155.284 216.861,-132.029"/>
<polygon fill="midnightblue" stroke="midnightblue" points="217.252,-128.55 206.887,-130.746 216.359,-135.493 217.252,-128.55"/>
</g>
<!-- Node6&#45;&gt;Node6 -->
<g id="edge7" class="edge"><title>Node6&#45;&gt;Node6</title>
<path fill="none" stroke="midnightblue" d="M330.068,-131.575C341.587,-134.27 352.8,-131.078 352.8,-122 352.8,-115.759 347.5,-112.3 340.444,-111.623"/>
<polygon fill="midnightblue" stroke="midnightblue" points="339.768,-108.165 330.068,-112.425 340.308,-115.144 339.768,-108.165"/>
</g>
<!-- Node9 -->
<g id="node10" class="node"><title>Node9</title>
<polygon fill="white" stroke="#bfbfbf" points="118.3,-0.5 118.3,-19.5 163.3,-19.5 163.3,-0.5 118.3,-0.5"/>
<text text-anchor="middle" x="140.8" y="-7.5" font-family="Helvetica,sans-Serif" font-size="10.00">float.h</text>
</g>
<!-- Node8&#45;&gt;Node9 -->
<g id="edge10" class="edge"><title>Node8&#45;&gt;Node9</title>
<path fill="none" stroke="midnightblue" d="M140.8,-56.083C140.8,-49.0059 140.8,-38.8611 140.8,-29.9865"/>
<polygon fill="midnightblue" stroke="midnightblue" points="144.3,-29.751 140.8,-19.7511 137.3,-29.7511 144.3,-29.751"/>
</g>
<!-- Node11&#45;&gt;Node8 -->
<g id="edge13" class="edge"><title>Node11&#45;&gt;Node8</title>
<path fill="none" stroke="midnightblue" d="M484.669,-113.491C481.331,-112.977 478.014,-112.475 474.8,-112 424.514,-104.573 288.626,-86.4978 206.502,-75.6502"/>
<polygon fill="midnightblue" stroke="midnightblue" points="206.888,-72.1709 196.516,-74.3318 205.972,-79.1107 206.888,-72.1709"/>
</g>
<!-- Node14&#45;&gt;Node13 -->
<g id="edge17" class="edge"><title>Node14&#45;&gt;Node13</title>
<path fill="none" stroke="midnightblue" d="M1049.71,-112.324C1039.31,-104.185 1023.54,-91.8395 1011.08,-82.0874"/>
<polygon fill="midnightblue" stroke="midnightblue" points="1013.12,-79.2407 1003.09,-75.8339 1008.81,-84.7533 1013.12,-79.2407"/>
</g>
<!-- Node14&#45;&gt;Node15 -->
<g id="edge18" class="edge"><title>Node14&#45;&gt;Node15</title>
<path fill="none" stroke="midnightblue" d="M1115.18,-114.158C1164.83,-105.724 1226.57,-88.3569 1198.8,-56 1169.23,-21.5432 1041.22,-13.2072 964.527,-11.3537"/>
<polygon fill="midnightblue" stroke="midnightblue" points="964.132,-7.84469 954.06,-11.1331 963.984,-14.8431 964.132,-7.84469"/>
</g>
<!-- Node14&#45;&gt;Node16 -->
<g id="edge19" class="edge"><title>Node14&#45;&gt;Node16</title>
<path fill="none" stroke="midnightblue" d="M1061.87,-112.415C1063.08,-98.4484 1063.19,-70.8761 1047.8,-56 1040.04,-48.502 908.683,-29.3605 831.052,-18.6142"/>
<polygon fill="midnightblue" stroke="midnightblue" points="831.321,-15.1183 820.937,-17.2193 830.365,-22.0526 831.321,-15.1183"/>
</g>
<!-- Node17&#45;&gt;Node4 -->
<g id="edge21" class="edge"><title>Node17&#45;&gt;Node4</title>
<path fill="none" stroke="midnightblue" d="M595.057,-113.208C591.929,-112.766 588.82,-112.357 585.8,-112 363.449,-85.6831 302.001,-110.93 77.7202,-76.0573"/>
<polygon fill="midnightblue" stroke="midnightblue" points="78.0319,-72.5632 67.6086,-74.4618 76.9409,-79.4777 78.0319,-72.5632"/>
</g>
<!-- Node17&#45;&gt;Node8 -->
<g id="edge22" class="edge"><title>Node17&#45;&gt;Node8</title>
<path fill="none" stroke="midnightblue" d="M595.046,-113.295C591.921,-112.833 588.815,-112.396 585.8,-112 419.789,-90.224 377.187,-94.6781 210.8,-76 209.498,-75.8539 208.184,-75.7043 206.859,-75.5518"/>
<polygon fill="midnightblue" stroke="midnightblue" points="206.906,-72.0331 196.564,-74.334 206.084,-78.9847 206.906,-72.0331"/>
</g>
<!-- Node17&#45;&gt;Node10 -->
<g id="edge23" class="edge"><title>Node17&#45;&gt;Node10</title>
<path fill="none" stroke="midnightblue" d="M644.919,-112.083C649.207,-104.613 655.458,-93.7244 660.742,-84.5199"/>
<polygon fill="midnightblue" stroke="midnightblue" points="663.832,-86.1662 665.776,-75.7511 657.762,-82.6811 663.832,-86.1662"/>
</g>
<!-- Node17&#45;&gt;Node15 -->
<g id="edge31" class="edge"><title>Node17&#45;&gt;Node15</title>
<path fill="none" stroke="midnightblue" d="M626.289,-112.368C607.767,-99.4982 578.54,-74.782 594.8,-56 598.92,-51.2403 758.87,-29.9387 847.728,-18.4319"/>
<polygon fill="midnightblue" stroke="midnightblue" points="848.204,-21.8997 857.672,-17.1467 847.306,-14.9574 848.204,-21.8997"/>
</g>
<!-- Node17&#45;&gt;Node16 -->
<g id="edge32" class="edge"><title>Node17&#45;&gt;Node16</title>
<path fill="none" stroke="midnightblue" d="M595.042,-113.327C591.917,-112.857 588.813,-112.409 585.8,-112 509.488,-101.634 191.694,-112.708 243.8,-56 275.454,-21.5499 588.589,-13.4462 718.633,-11.5621"/>
<polygon fill="midnightblue" stroke="midnightblue" points="718.835,-15.0597 728.786,-11.4223 718.739,-8.06039 718.835,-15.0597"/>
</g>
<!-- Node18 -->
<g id="node19" class="node"><title>Node18</title>
<g id="a_node19"><a xlink:href="a00482_source.html" target="_top" xlink:title="replacements/readpassphrase.h">
<polygon fill="white" stroke="black" points="379.3,-56.5 379.3,-75.5 548.3,-75.5 548.3,-56.5 379.3,-56.5"/>
<text text-anchor="middle" x="463.8" y="-63.5" font-family="Helvetica,sans-Serif" font-size="10.00">replacements/readpassphrase.h</text>
</a>
</g>
</g>
<!-- Node17&#45;&gt;Node18 -->
<g id="edge24" class="edge"><title>Node17&#45;&gt;Node18</title>
<path fill="none" stroke="midnightblue" d="M611.912,-112.444C582.046,-103.28 534.485,-88.6876 501.344,-78.5192"/>
<polygon fill="midnightblue" stroke="midnightblue" points="502.144,-75.1037 491.557,-75.5164 500.09,-81.7958 502.144,-75.1037"/>
</g>
<!-- Node19 -->
<g id="node20" class="node"><title>Node19</title>
<g id="a_node20"><a xlink:href="a00479.html" target="_top" xlink:title="Provide poll call where missing. ">
<polygon fill="white" stroke="black" points="252.8,-56.5 252.8,-75.5 360.8,-75.5 360.8,-56.5 252.8,-56.5"/>
<text text-anchor="middle" x="306.8" y="-63.5" font-family="Helvetica,sans-Serif" font-size="10.00">replacements/poll.h</text>
</a>
</g>
</g>
<!-- Node17&#45;&gt;Node19 -->
<g id="edge27" class="edge"><title>Node17&#45;&gt;Node19</title>
<path fill="none" stroke="midnightblue" d="M595.013,-113.517C591.896,-113.002 588.801,-112.492 585.8,-112 511.846,-99.8733 426.819,-86.1977 370.26,-77.1386"/>
<polygon fill="midnightblue" stroke="midnightblue" points="370.467,-73.6272 360.039,-75.5021 369.36,-80.5392 370.467,-73.6272"/>
</g>
<!-- Node18&#45;&gt;Node15 -->
<g id="edge25" class="edge"><title>Node18&#45;&gt;Node15</title>
<path fill="none" stroke="midnightblue" d="M533.836,-56.4435C620.558,-45.8485 766.688,-27.9955 847.562,-18.115"/>
<polygon fill="midnightblue" stroke="midnightblue" points="848.07,-21.5791 857.571,-16.8921 847.221,-14.6307 848.07,-21.5791"/>
</g>
<!-- Node18&#45;&gt;Node16 -->
<g id="edge26" class="edge"><title>Node18&#45;&gt;Node16</title>
<path fill="none" stroke="midnightblue" d="M513.078,-56.4435C568.983,-46.7366 659.976,-30.9373 718.598,-20.7584"/>
<polygon fill="midnightblue" stroke="midnightblue" points="719.539,-24.1475 728.793,-18.9883 718.341,-17.2507 719.539,-24.1475"/>
</g>
<!-- Node19&#45;&gt;Node1 -->
<g id="edge28" class="edge"><title>Node19&#45;&gt;Node1</title>
<path fill="none" stroke="midnightblue" d="M262.75,-56.4435C208.177,-45.8432 116.202,-27.9774 65.351,-18.0999"/>
<polygon fill="midnightblue" stroke="midnightblue" points="65.9363,-14.6483 55.4524,-16.1772 64.6015,-21.5198 65.9363,-14.6483"/>
</g>
<!-- Node19&#45;&gt;Node15 -->
<g id="edge29" class="edge"><title>Node19&#45;&gt;Node15</title>
<path fill="none" stroke="midnightblue" d="M361.068,-57.0233C364.019,-56.6595 366.944,-56.3153 369.8,-56 573.63,-33.4879 625.714,-40.062 829.8,-20 835.56,-19.4338 841.56,-18.7996 847.553,-18.1371"/>
<polygon fill="midnightblue" stroke="midnightblue" points="848.042,-21.6041 857.585,-17.0023 847.255,-14.6485 848.042,-21.6041"/>
</g>
<!-- Node19&#45;&gt;Node16 -->
<g id="edge30" class="edge"><title>Node19&#45;&gt;Node16</title>
<path fill="none" stroke="midnightblue" d="M361.081,-57.1357C364.029,-56.7429 366.95,-56.3618 369.8,-56 494.057,-40.2252 640.159,-24.746 718.455,-16.6988"/>
<polygon fill="midnightblue" stroke="midnightblue" points="718.992,-20.1622 728.583,-15.6605 718.278,-13.1987 718.992,-20.1622"/>
</g>
<!-- Node21&#45;&gt;Node15 -->
<g id="edge37" class="edge"><title>Node21&#45;&gt;Node15</title>
<path fill="none" stroke="midnightblue" d="M1245.55,-58.0812C1240.91,-57.3658 1236.26,-56.6598 1231.8,-56 1138.18,-42.1493 1029.23,-27.3832 963.985,-18.6848"/>
<polygon fill="midnightblue" stroke="midnightblue" points="964.271,-15.1921 953.897,-17.3419 963.348,-22.1309 964.271,-15.1921"/>
</g>
<!-- Node21&#45;&gt;Node16 -->
<g id="edge38" class="edge"><title>Node21&#45;&gt;Node16</title>
<path fill="none" stroke="midnightblue" d="M1245.44,-60.6727C1150.18,-51.1463 925.015,-28.5313 848.8,-20 843.032,-19.3544 837.014,-18.6588 831.011,-17.9506"/>
<polygon fill="midnightblue" stroke="midnightblue" points="831.313,-14.4618 820.969,-16.7533 830.484,-21.4126 831.313,-14.4618"/>
</g>
<!-- Node23&#45;&gt;Node15 -->
<g id="edge41" class="edge"><title>Node23&#45;&gt;Node15</title>
<path fill="none" stroke="midnightblue" d="M851.243,-56.324C860.946,-48.2631 875.615,-36.0765 887.299,-26.3695"/>
<polygon fill="midnightblue" stroke="midnightblue" points="889.711,-28.9163 895.166,-19.8339 885.238,-23.532 889.711,-28.9163"/>
</g>
<!-- Node23&#45;&gt;Node16 -->
<g id="edge42" class="edge"><title>Node23&#45;&gt;Node16</title>
<path fill="none" stroke="midnightblue" d="M830.196,-56.324C820.343,-48.2631 805.449,-36.0765 793.584,-26.3695"/>
<polygon fill="midnightblue" stroke="midnightblue" points="795.552,-23.4575 785.597,-19.8339 791.12,-28.8752 795.552,-23.4575"/>
</g>
<!-- Node24&#45;&gt;Node15 -->
<g id="edge45" class="edge"><title>Node24&#45;&gt;Node15</title>
<path fill="none" stroke="midnightblue" d="M1105.25,-56.4435C1063.99,-47.0431 997.655,-31.9291 952.933,-21.7393"/>
<polygon fill="midnightblue" stroke="midnightblue" points="953.705,-18.3255 943.177,-19.5164 952.15,-25.1506 953.705,-18.3255"/>
</g>
<!-- Node24&#45;&gt;Node16 -->
<g id="edge46" class="edge"><title>Node24&#45;&gt;Node16</title>
<path fill="none" stroke="midnightblue" d="M1095.51,-58.0186C1090.88,-57.3359 1086.25,-56.6542 1081.8,-56 994.264,-43.1269 892.678,-28.2485 831.105,-19.2371"/>
<polygon fill="midnightblue" stroke="midnightblue" points="831.233,-15.7185 820.831,-17.7335 830.219,-22.6447 831.233,-15.7185"/>
</g>
</g>
</svg>
