<?xml version="1.0" encoding="UTF-8" standalone="no"?>
<!DOCTYPE svg PUBLIC "-//W3C//DTD SVG 1.1//EN"
 "http://www.w3.org/Graphics/SVG/1.1/DTD/svg11.dtd">
<!-- Generated by graphviz version 2.38.0 (20140413.2041)
 -->
<!-- Title: src/tds/bulk.c Pages: 1 -->
<svg width="1491pt" height="252pt"
 viewBox="0.00 0.00 1491.17 252.00" xmlns="http://www.w3.org/2000/svg" xmlns:xlink="http://www.w3.org/1999/xlink">
<g id="graph0" class="graph" transform="scale(1 1) rotate(0) translate(4 248)">
<title>src/tds/bulk.c</title>
<polygon fill="white" stroke="none" points="-4,4 -4,-248 1487.17,-248 1487.17,4 -4,4"/>
<!-- Node0 -->
<g id="node1" class="node"><title>Node0</title>
<polygon fill="#bfbfbf" stroke="black" points="627.674,-224.5 627.674,-243.5 704.674,-243.5 704.674,-224.5 627.674,-224.5"/>
<text text-anchor="middle" x="666.174" y="-231.5" font-family="Helvetica,sans-Serif" font-size="10.00">src/tds/bulk.c</text>
</g>
<!-- Node1 -->
<g id="node2" class="node"><title>Node1</title>
<g id="a_node2"><a xlink:href="a00362_source.html" target="_top" xlink:title="config.h">
<polygon fill="white" stroke="black" points="1261.67,-0.5 1261.67,-19.5 1314.67,-19.5 1314.67,-0.5 1261.67,-0.5"/>
<text text-anchor="middle" x="1288.17" y="-7.5" font-family="Helvetica,sans-Serif" font-size="10.00">config.h</text>
</a>
</g>
</g>
<!-- Node0&#45;&gt;Node1 -->
<g id="edge1" class="edge"><title>Node0&#45;&gt;Node1</title>
<path fill="none" stroke="midnightblue" d="M704.879,-229.897C818.092,-220.245 1146.29,-187.993 1236.17,-132 1262.36,-115.691 1265.17,-104.414 1277.17,-76 1283.38,-61.3228 1286.09,-43.3858 1287.27,-30.0753"/>
<polygon fill="midnightblue" stroke="midnightblue" points="1290.78,-29.98 1287.96,-19.7673 1283.8,-29.5095 1290.78,-29.98"/>
</g>
<!-- Node2 -->
<g id="node3" class="node"><title>Node2</title>
<polygon fill="white" stroke="#bfbfbf" points="1325.17,-168.5 1325.17,-187.5 1379.17,-187.5 1379.17,-168.5 1325.17,-168.5"/>
<text text-anchor="middle" x="1352.17" y="-175.5" font-family="Helvetica,sans-Serif" font-size="10.00">assert.h</text>
</g>
<!-- Node0&#45;&gt;Node2 -->
<g id="edge2" class="edge"><title>Node0&#45;&gt;Node2</title>
<path fill="none" stroke="midnightblue" d="M704.914,-232.272C805.465,-229.955 1082.85,-220.845 1311.17,-188 1312.43,-187.819 1313.71,-187.621 1315,-187.409"/>
<polygon fill="midnightblue" stroke="midnightblue" points="1315.74,-190.831 1324.93,-185.564 1314.46,-183.949 1315.74,-190.831"/>
</g>
<!-- Node3 -->
<g id="node4" class="node"><title>Node3</title>
<g id="a_node4"><a xlink:href="a00431.html" target="_top" xlink:title="Main include file for libtds. ">
<polygon fill="white" stroke="black" points="628.674,-168.5 628.674,-187.5 703.674,-187.5 703.674,-168.5 628.674,-168.5"/>
<text text-anchor="middle" x="666.174" y="-175.5" font-family="Helvetica,sans-Serif" font-size="10.00">freetds/tds.h</text>
</a>
</g>
</g>
<!-- Node0&#45;&gt;Node3 -->
<g id="edge3" class="edge"><title>Node0&#45;&gt;Node3</title>
<path fill="none" stroke="midnightblue" d="M666.174,-224.083C666.174,-217.006 666.174,-206.861 666.174,-197.986"/>
<polygon fill="midnightblue" stroke="midnightblue" points="669.674,-197.751 666.174,-187.751 662.674,-197.751 669.674,-197.751"/>
</g>
<!-- Node14 -->
<g id="node15" class="node"><title>Node14</title>
<g id="a_node15"><a xlink:href="a00464_source.html" target="_top" xlink:title="freetds/utils/string.h">
<polygon fill="white" stroke="black" points="217.174,-112.5 217.174,-131.5 325.174,-131.5 325.174,-112.5 217.174,-112.5"/>
<text text-anchor="middle" x="271.174" y="-119.5" font-family="Helvetica,sans-Serif" font-size="10.00">freetds/utils/string.h</text>
</a>
</g>
</g>
<!-- Node0&#45;&gt;Node14 -->
<g id="edge46" class="edge"><title>Node0&#45;&gt;Node14</title>
<path fill="none" stroke="midnightblue" d="M635.507,-224.46C564.99,-204.822 391.29,-156.45 311.922,-134.348"/>
<polygon fill="midnightblue" stroke="midnightblue" points="312.393,-130.846 301.82,-131.535 310.515,-137.589 312.393,-130.846"/>
</g>
<!-- Node17 -->
<g id="node18" class="node"><title>Node17</title>
<g id="a_node18"><a xlink:href="a00485_source.html" target="_top" xlink:title="replacements.h">
<polygon fill="white" stroke="black" points="957.674,-112.5 957.674,-131.5 1046.67,-131.5 1046.67,-112.5 957.674,-112.5"/>
<text text-anchor="middle" x="1002.17" y="-119.5" font-family="Helvetica,sans-Serif" font-size="10.00">replacements.h</text>
</a>
</g>
</g>
<!-- Node0&#45;&gt;Node17 -->
<g id="edge47" class="edge"><title>Node0&#45;&gt;Node17</title>
<path fill="none" stroke="midnightblue" d="M692.259,-224.46C751.803,-204.966 897.833,-157.159 966.011,-134.839"/>
<polygon fill="midnightblue" stroke="midnightblue" points="967.458,-138.048 975.873,-131.61 965.28,-131.395 967.458,-138.048"/>
</g>
<!-- Node21 -->
<g id="node22" class="node"><title>Node21</title>
<g id="a_node22"><a xlink:href="a00389_source.html" target="_top" xlink:title="freetds/checks.h">
<polygon fill="white" stroke="black" points="26.1737,-56.5 26.1737,-75.5 120.174,-75.5 120.174,-56.5 26.1737,-56.5"/>
<text text-anchor="middle" x="73.1737" y="-63.5" font-family="Helvetica,sans-Serif" font-size="10.00">freetds/checks.h</text>
</a>
</g>
</g>
<!-- Node0&#45;&gt;Node21 -->
<g id="edge36" class="edge"><title>Node0&#45;&gt;Node21</title>
<path fill="none" stroke="midnightblue" d="M627.634,-231.84C534.164,-228.585 297.778,-217.591 225.174,-188 166.579,-164.119 112.239,-110.263 87.3816,-83.1863"/>
<polygon fill="midnightblue" stroke="midnightblue" points="89.9358,-80.7923 80.6419,-75.7057 84.7352,-85.4779 89.9358,-80.7923"/>
</g>
<!-- Node22 -->
<g id="node23" class="node"><title>Node22</title>
<g id="a_node23"><a xlink:href="a00386_source.html" target="_top" xlink:title="freetds/bytes.h">
<polygon fill="white" stroke="black" points="1397.17,-168.5 1397.17,-187.5 1483.17,-187.5 1483.17,-168.5 1397.17,-168.5"/>
<text text-anchor="middle" x="1440.17" y="-175.5" font-family="Helvetica,sans-Serif" font-size="10.00">freetds/bytes.h</text>
</a>
</g>
</g>
<!-- Node0&#45;&gt;Node22 -->
<g id="edge39" class="edge"><title>Node0&#45;&gt;Node22</title>
<path fill="none" stroke="midnightblue" d="M705.049,-232.069C812.115,-229.187 1120.45,-218.752 1386.84,-188.024"/>
<polygon fill="midnightblue" stroke="midnightblue" points="1387.57,-191.463 1397.1,-186.828 1386.76,-184.51 1387.57,-191.463"/>
</g>
<!-- Node23 -->
<g id="node24" class="node"><title>Node23</title>
<g id="a_node24"><a xlink:href="a00404_source.html" target="_top" xlink:title="freetds/iconv.h">
<polygon fill="white" stroke="black" points="138.174,-56.5 138.174,-75.5 224.174,-75.5 224.174,-56.5 138.174,-56.5"/>
<text text-anchor="middle" x="181.174" y="-63.5" font-family="Helvetica,sans-Serif" font-size="10.00">freetds/iconv.h</text>
</a>
</g>
</g>
<!-- Node0&#45;&gt;Node23 -->
<g id="edge40" class="edge"><title>Node0&#45;&gt;Node23</title>
<path fill="none" stroke="midnightblue" d="M627.639,-231.66C539.91,-228.136 327.888,-216.816 263.174,-188 228.95,-172.761 220.209,-163.655 200.174,-132 191.234,-117.875 186.363,-99.3883 183.8,-85.7429"/>
<polygon fill="midnightblue" stroke="midnightblue" points="187.213,-84.9282 182.15,-75.6214 180.304,-86.0542 187.213,-84.9282"/>
</g>
<!-- Node24 -->
<g id="node25" class="node"><title>Node24</title>
<g id="a_node25"><a xlink:href="a00425_source.html" target="_top" xlink:title="freetds/stream.h">
<polygon fill="white" stroke="black" points="242.674,-56.5 242.674,-75.5 335.674,-75.5 335.674,-56.5 242.674,-56.5"/>
<text text-anchor="middle" x="289.174" y="-63.5" font-family="Helvetica,sans-Serif" font-size="10.00">freetds/stream.h</text>
</a>
</g>
</g>
<!-- Node0&#45;&gt;Node24 -->
<g id="edge43" class="edge"><title>Node0&#45;&gt;Node24</title>
<path fill="none" stroke="midnightblue" d="M627.586,-230.597C526.806,-223.425 259.904,-198.4 208.174,-132 191.05,-110.02 224.114,-90.8915 253.015,-79.1808"/>
<polygon fill="midnightblue" stroke="midnightblue" points="254.502,-82.3586 262.578,-75.5003 251.988,-75.8257 254.502,-82.3586"/>
</g>
<!-- Node4 -->
<g id="node5" class="node"><title>Node4</title>
<polygon fill="white" stroke="#bfbfbf" points="505.674,-56.5 505.674,-75.5 560.674,-75.5 560.674,-56.5 505.674,-56.5"/>
<text text-anchor="middle" x="533.174" y="-63.5" font-family="Helvetica,sans-Serif" font-size="10.00">stdarg.h</text>
</g>
<!-- Node3&#45;&gt;Node4 -->
<g id="edge4" class="edge"><title>Node3&#45;&gt;Node4</title>
<path fill="none" stroke="midnightblue" d="M628.636,-176.087C564.396,-173.647 437.63,-164.703 410.174,-132 404.458,-125.192 405.081,-119.286 410.174,-112 415.346,-104.6 461.443,-89.0617 495.694,-78.3312"/>
<polygon fill="midnightblue" stroke="midnightblue" points="496.927,-81.6133 505.44,-75.3065 494.852,-74.9279 496.927,-81.6133"/>
</g>
<!-- Node5 -->
<g id="node6" class="node"><title>Node5</title>
<polygon fill="white" stroke="#bfbfbf" points="419.674,-112.5 419.674,-131.5 466.674,-131.5 466.674,-112.5 419.674,-112.5"/>
<text text-anchor="middle" x="443.174" y="-119.5" font-family="Helvetica,sans-Serif" font-size="10.00">stdio.h</text>
</g>
<!-- Node3&#45;&gt;Node5 -->
<g id="edge5" class="edge"><title>Node3&#45;&gt;Node5</title>
<path fill="none" stroke="midnightblue" d="M628.59,-168.492C592.219,-160.171 535.299,-146.92 476.734,-132.078"/>
<polygon fill="midnightblue" stroke="midnightblue" points="477.496,-128.66 466.941,-129.585 475.769,-135.444 477.496,-128.66"/>
</g>
<!-- Node6 -->
<g id="node7" class="node"><title>Node6</title>
<g id="a_node7"><a xlink:href="a00437_source.html" target="_top" xlink:title="time.h">
<polygon fill="white" stroke="black" points="485.174,-112.5 485.174,-131.5 529.174,-131.5 529.174,-112.5 485.174,-112.5"/>
<text text-anchor="middle" x="507.174" y="-119.5" font-family="Helvetica,sans-Serif" font-size="10.00">time.h</text>
</a>
</g>
</g>
<!-- Node3&#45;&gt;Node6 -->
<g id="edge6" class="edge"><title>Node3&#45;&gt;Node6</title>
<path fill="none" stroke="midnightblue" d="M640.98,-168.444C613.287,-159.038 568.754,-143.914 538.751,-133.724"/>
<polygon fill="midnightblue" stroke="midnightblue" points="539.772,-130.375 529.178,-130.473 537.521,-137.003 539.772,-130.375"/>
</g>
<!-- Node7 -->
<g id="node8" class="node"><title>Node7</title>
<g id="a_node8"><a xlink:href="a00470_source.html" target="_top" xlink:title="freetds/version.h">
<polygon fill="white" stroke="black" points="565.674,-112.5 565.674,-131.5 660.674,-131.5 660.674,-112.5 565.674,-112.5"/>
<text text-anchor="middle" x="613.174" y="-119.5" font-family="Helvetica,sans-Serif" font-size="10.00">freetds/version.h</text>
</a>
</g>
</g>
<!-- Node3&#45;&gt;Node7 -->
<g id="edge8" class="edge"><title>Node3&#45;&gt;Node7</title>
<path fill="none" stroke="midnightblue" d="M657.422,-168.083C649.704,-160.22 638.269,-148.569 628.957,-139.081"/>
<polygon fill="midnightblue" stroke="midnightblue" points="631.265,-136.436 621.763,-131.751 626.27,-141.34 631.265,-136.436"/>
</g>
<!-- Node8 -->
<g id="node9" class="node"><title>Node8</title>
<g id="a_node9"><a xlink:href="a00506_source.html" target="_top" xlink:title="tds_sysdep_public.h">
<polygon fill="white" stroke="black" points="1157.67,-56.5 1157.67,-75.5 1268.67,-75.5 1268.67,-56.5 1157.67,-56.5"/>
<text text-anchor="middle" x="1213.17" y="-63.5" font-family="Helvetica,sans-Serif" font-size="10.00">tds_sysdep_public.h</text>
</a>
</g>
</g>
<!-- Node3&#45;&gt;Node8 -->
<g id="edge9" class="edge"><title>Node3&#45;&gt;Node8</title>
<path fill="none" stroke="midnightblue" d="M703.806,-176.069C773.979,-173.585 929.118,-164.554 1055.17,-132 1103.63,-119.485 1156.85,-95.2285 1187.51,-80.1461"/>
<polygon fill="midnightblue" stroke="midnightblue" points="1189.24,-83.1916 1196.63,-75.598 1186.12,-76.9267 1189.24,-83.1916"/>
</g>
<!-- Node10 -->
<g id="node11" class="node"><title>Node10</title>
<g id="a_node11"><a xlink:href="a00428_source.html" target="_top" xlink:title="freetds/sysdep_private.h">
<polygon fill="white" stroke="black" points="617.674,-56.5 617.674,-75.5 750.674,-75.5 750.674,-56.5 617.674,-56.5"/>
<text text-anchor="middle" x="684.174" y="-63.5" font-family="Helvetica,sans-Serif" font-size="10.00">freetds/sysdep_private.h</text>
</a>
</g>
</g>
<!-- Node3&#45;&gt;Node10 -->
<g id="edge11" class="edge"><title>Node3&#45;&gt;Node10</title>
<path fill="none" stroke="midnightblue" d="M703.898,-175.552C764.682,-172.339 880.041,-162.307 905.174,-132 910.848,-125.158 910.797,-118.884 905.174,-112 895.582,-100.259 816.707,-86.2536 755.891,-77.0212"/>
<polygon fill="midnightblue" stroke="midnightblue" points="756.325,-73.5474 745.917,-75.5249 755.287,-80.4699 756.325,-73.5474"/>
</g>
<!-- Node11 -->
<g id="node12" class="node"><title>Node11</title>
<g id="a_node12"><a xlink:href="a00434_source.html" target="_top" xlink:title="freetds/thread.h">
<polygon fill="white" stroke="black" points="1135.17,-112.5 1135.17,-131.5 1227.17,-131.5 1227.17,-112.5 1135.17,-112.5"/>
<text text-anchor="middle" x="1181.17" y="-119.5" font-family="Helvetica,sans-Serif" font-size="10.00">freetds/thread.h</text>
</a>
</g>
</g>
<!-- Node3&#45;&gt;Node11 -->
<g id="edge12" class="edge"><title>Node3&#45;&gt;Node11</title>
<path fill="none" stroke="midnightblue" d="M703.778,-173.346C779.692,-165.926 956.678,-148.402 1105.17,-132 1111.5,-131.301 1118.12,-130.549 1124.7,-129.787"/>
<polygon fill="midnightblue" stroke="midnightblue" points="1125.44,-133.225 1134.97,-128.589 1124.63,-126.272 1125.44,-133.225"/>
</g>
<!-- Node12 -->
<g id="node13" class="node"><title>Node12</title>
<g id="a_node13"><a xlink:href="a00383_source.html" target="_top" xlink:title="freetds/bool.h">
<polygon fill="white" stroke="black" points="679.174,-112.5 679.174,-131.5 759.174,-131.5 759.174,-112.5 679.174,-112.5"/>
<text text-anchor="middle" x="719.174" y="-119.5" font-family="Helvetica,sans-Serif" font-size="10.00">freetds/bool.h</text>
</a>
</g>
</g>
<!-- Node3&#45;&gt;Node12 -->
<g id="edge14" class="edge"><title>Node3&#45;&gt;Node12</title>
<path fill="none" stroke="midnightblue" d="M674.926,-168.083C682.643,-160.22 694.078,-148.569 703.39,-139.081"/>
<polygon fill="midnightblue" stroke="midnightblue" points="706.078,-141.34 710.585,-131.751 701.082,-136.436 706.078,-141.34"/>
</g>
<!-- Node13 -->
<g id="node14" class="node"><title>Node13</title>
<g id="a_node14"><a xlink:href="a00407_source.html" target="_top" xlink:title="freetds/macros.h">
<polygon fill="white" stroke="black" points="392.674,-56.5 392.674,-75.5 487.674,-75.5 487.674,-56.5 392.674,-56.5"/>
<text text-anchor="middle" x="440.174" y="-63.5" font-family="Helvetica,sans-Serif" font-size="10.00">freetds/macros.h</text>
</a>
</g>
</g>
<!-- Node3&#45;&gt;Node13 -->
<g id="edge15" class="edge"><title>Node3&#45;&gt;Node13</title>
<path fill="none" stroke="midnightblue" d="M628.52,-176.308C562.632,-174.215 430.699,-165.799 402.174,-132 389.107,-116.518 405.79,-95.958 420.989,-82.1432"/>
<polygon fill="midnightblue" stroke="midnightblue" points="423.317,-84.7582 428.638,-75.5963 418.765,-79.4404 423.317,-84.7582"/>
</g>
<!-- Node3&#45;&gt;Node14 -->
<g id="edge16" class="edge"><title>Node3&#45;&gt;Node14</title>
<path fill="none" stroke="midnightblue" d="M628.657,-171.871C561.181,-162.647 418.639,-143.16 335.374,-131.777"/>
<polygon fill="midnightblue" stroke="midnightblue" points="335.656,-128.283 325.274,-130.396 334.708,-135.218 335.656,-128.283"/>
</g>
<!-- Node15 -->
<g id="node16" class="node"><title>Node15</title>
<g id="a_node16"><a xlink:href="a00419_source.html" target="_top" xlink:title="freetds/pushvis.h">
<polygon fill="white" stroke="black" points="428.174,-0.5 428.174,-19.5 524.174,-19.5 524.174,-0.5 428.174,-0.5"/>
<text text-anchor="middle" x="476.174" y="-7.5" font-family="Helvetica,sans-Serif" font-size="10.00">freetds/pushvis.h</text>
</a>
</g>
</g>
<!-- Node3&#45;&gt;Node15 -->
<g id="edge33" class="edge"><title>Node3&#45;&gt;Node15</title>
<path fill="none" stroke="midnightblue" d="M703.952,-174.281C757.543,-169.55 851.455,-157.734 872.174,-132 877.748,-125.076 878.019,-118.697 872.174,-112 833.237,-67.3936 664.656,-93.7627 608.174,-76 589.591,-70.1562 586.609,-64.6873 569.174,-56 547.027,-44.9649 521.742,-32.7554 503.133,-23.8417"/>
<polygon fill="midnightblue" stroke="midnightblue" points="504.594,-20.6606 494.063,-19.5045 501.574,-26.9759 504.594,-20.6606"/>
</g>
<!-- Node16 -->
<g id="node17" class="node"><title>Node16</title>
<g id="a_node17"><a xlink:href="a00413_source.html" target="_top" xlink:title="freetds/popvis.h">
<polygon fill="white" stroke="black" points="189.174,-0.5 189.174,-19.5 281.174,-19.5 281.174,-0.5 189.174,-0.5"/>
<text text-anchor="middle" x="235.174" y="-7.5" font-family="Helvetica,sans-Serif" font-size="10.00">freetds/popvis.h</text>
</a>
</g>
</g>
<!-- Node3&#45;&gt;Node16 -->
<g id="edge35" class="edge"><title>Node3&#45;&gt;Node16</title>
<path fill="none" stroke="midnightblue" d="M628.314,-177.686C499.252,-179.106 80.3059,-175.848 4.17372,-76 -1.21592,-68.9315 -1.4789,-62.86 4.17372,-56 25.88,-29.6572 117.654,-18.5317 178.786,-13.9812"/>
<polygon fill="midnightblue" stroke="midnightblue" points="179.34,-17.4509 189.069,-13.2558 178.847,-10.4683 179.34,-17.4509"/>
</g>
<!-- Node3&#45;&gt;Node17 -->
<g id="edge20" class="edge"><title>Node3&#45;&gt;Node17</title>
<path fill="none" stroke="midnightblue" d="M703.739,-170.963C763.029,-161.434 878.6,-142.86 947.223,-131.831"/>
<polygon fill="midnightblue" stroke="midnightblue" points="948.088,-135.237 957.406,-130.195 946.978,-128.326 948.088,-135.237"/>
</g>
<!-- Node20 -->
<g id="node21" class="node"><title>Node20</title>
<g id="a_node21"><a xlink:href="a00416_source.html" target="_top" xlink:title="freetds/proto.h">
<polygon fill="white" stroke="black" points="777.174,-112.5 777.174,-131.5 863.174,-131.5 863.174,-112.5 777.174,-112.5"/>
<text text-anchor="middle" x="820.174" y="-119.5" font-family="Helvetica,sans-Serif" font-size="10.00">freetds/proto.h</text>
</a>
</g>
</g>
<!-- Node3&#45;&gt;Node20 -->
<g id="edge34" class="edge"><title>Node3&#45;&gt;Node20</title>
<path fill="none" stroke="midnightblue" d="M690.575,-168.444C716.37,-159.399 757.25,-145.064 786.191,-134.916"/>
<polygon fill="midnightblue" stroke="midnightblue" points="787.608,-138.128 795.886,-131.516 785.291,-131.523 787.608,-138.128"/>
</g>
<!-- Node6&#45;&gt;Node6 -->
<g id="edge7" class="edge"><title>Node6&#45;&gt;Node6</title>
<path fill="none" stroke="midnightblue" d="M524.442,-131.575C535.961,-134.27 547.174,-131.078 547.174,-122 547.174,-115.759 541.874,-112.3 534.819,-111.623"/>
<polygon fill="midnightblue" stroke="midnightblue" points="534.143,-108.165 524.442,-112.425 534.682,-115.144 534.143,-108.165"/>
</g>
<!-- Node9 -->
<g id="node10" class="node"><title>Node9</title>
<polygon fill="white" stroke="#bfbfbf" points="1190.67,-0.5 1190.67,-19.5 1235.67,-19.5 1235.67,-0.5 1190.67,-0.5"/>
<text text-anchor="middle" x="1213.17" y="-7.5" font-family="Helvetica,sans-Serif" font-size="10.00">float.h</text>
</g>
<!-- Node8&#45;&gt;Node9 -->
<g id="edge10" class="edge"><title>Node8&#45;&gt;Node9</title>
<path fill="none" stroke="midnightblue" d="M1213.17,-56.083C1213.17,-49.0059 1213.17,-38.8611 1213.17,-29.9865"/>
<polygon fill="midnightblue" stroke="midnightblue" points="1216.67,-29.751 1213.17,-19.7511 1209.67,-29.7511 1216.67,-29.751"/>
</g>
<!-- Node11&#45;&gt;Node8 -->
<g id="edge13" class="edge"><title>Node11&#45;&gt;Node8</title>
<path fill="none" stroke="midnightblue" d="M1186.46,-112.083C1190.88,-104.613 1197.34,-93.7244 1202.79,-84.5199"/>
<polygon fill="midnightblue" stroke="midnightblue" points="1205.9,-86.1383 1207.99,-75.7511 1199.88,-82.5697 1205.9,-86.1383"/>
</g>
<!-- Node14&#45;&gt;Node13 -->
<g id="edge17" class="edge"><title>Node14&#45;&gt;Node13</title>
<path fill="none" stroke="midnightblue" d="M297.952,-112.444C326.507,-103.32 371.906,-88.8133 403.711,-78.6509"/>
<polygon fill="midnightblue" stroke="midnightblue" points="405.06,-81.8941 413.52,-75.5164 402.93,-75.2262 405.06,-81.8941"/>
</g>
<!-- Node14&#45;&gt;Node15 -->
<g id="edge18" class="edge"><title>Node14&#45;&gt;Node15</title>
<path fill="none" stroke="midnightblue" d="M285.127,-112.447C306.129,-99.6775 347.236,-75.0881 383.174,-56 404.757,-44.5361 429.709,-32.5281 448.331,-23.8024"/>
<polygon fill="midnightblue" stroke="midnightblue" points="449.854,-26.9543 457.44,-19.5589 446.898,-20.609 449.854,-26.9543"/>
</g>
<!-- Node14&#45;&gt;Node16 -->
<g id="edge19" class="edge"><title>Node14&#45;&gt;Node16</title>
<path fill="none" stroke="midnightblue" d="M216.875,-115.092C146.125,-106.84 29.8876,-91.1643 17.1737,-76 -28.8435,-21.1135 99.7465,-11.3717 178.645,-10.3569"/>
<polygon fill="midnightblue" stroke="midnightblue" points="178.982,-13.8543 188.952,-10.2697 178.922,-6.85457 178.982,-13.8543"/>
</g>
<!-- Node17&#45;&gt;Node4 -->
<g id="edge21" class="edge"><title>Node17&#45;&gt;Node4</title>
<path fill="none" stroke="midnightblue" d="M957.553,-115.988C884.507,-107.763 734.848,-90.8343 608.174,-76 596.085,-74.5843 582.903,-73.0122 571.011,-71.5831"/>
<polygon fill="midnightblue" stroke="midnightblue" points="571.298,-68.0924 560.951,-70.3716 570.461,-75.0422 571.298,-68.0924"/>
</g>
<!-- Node17&#45;&gt;Node8 -->
<g id="edge22" class="edge"><title>Node17&#45;&gt;Node8</title>
<path fill="none" stroke="midnightblue" d="M1035.61,-112.444C1072.03,-103.122 1130.4,-88.1828 1170.2,-77.9972"/>
<polygon fill="midnightblue" stroke="midnightblue" points="1171.08,-81.3866 1179.9,-75.5164 1169.34,-74.6051 1171.08,-81.3866"/>
</g>
<!-- Node17&#45;&gt;Node10 -->
<g id="edge23" class="edge"><title>Node17&#45;&gt;Node10</title>
<path fill="none" stroke="midnightblue" d="M957.622,-113.435C902.003,-103.99 806.636,-87.7955 744.506,-77.2452"/>
<polygon fill="midnightblue" stroke="midnightblue" points="744.897,-73.7614 734.452,-75.5378 743.725,-80.6626 744.897,-73.7614"/>
</g>
<!-- Node17&#45;&gt;Node15 -->
<g id="edge31" class="edge"><title>Node17&#45;&gt;Node15</title>
<path fill="none" stroke="midnightblue" d="M1002.63,-112.205C1002.83,-97.9359 1000.91,-69.9389 984.174,-56 950.261,-27.7531 660.992,-16.2086 534.727,-12.4843"/>
<polygon fill="midnightblue" stroke="midnightblue" points="534.571,-8.97843 524.474,-12.1885 534.369,-15.9755 534.571,-8.97843"/>
</g>
<!-- Node17&#45;&gt;Node16 -->
<g id="edge32" class="edge"><title>Node17&#45;&gt;Node16</title>
<path fill="none" stroke="midnightblue" d="M957.616,-114.759C915.423,-108.029 850.736,-95.5688 797.174,-76 779.247,-69.4507 777.489,-61.3673 759.174,-56 715.176,-43.1062 417.658,-22.7442 291.52,-14.5699"/>
<polygon fill="midnightblue" stroke="midnightblue" points="291.502,-11.0616 281.297,-13.9099 291.051,-18.047 291.502,-11.0616"/>
</g>
<!-- Node18 -->
<g id="node19" class="node"><title>Node18</title>
<g id="a_node19"><a xlink:href="a00482_source.html" target="_top" xlink:title="replacements/readpassphrase.h">
<polygon fill="white" stroke="black" points="806.674,-56.5 806.674,-75.5 975.674,-75.5 975.674,-56.5 806.674,-56.5"/>
<text text-anchor="middle" x="891.174" y="-63.5" font-family="Helvetica,sans-Serif" font-size="10.00">replacements/readpassphrase.h</text>
</a>
</g>
</g>
<!-- Node17&#45;&gt;Node18 -->
<g id="edge24" class="edge"><title>Node17&#45;&gt;Node18</title>
<path fill="none" stroke="midnightblue" d="M984.34,-112.324C966.458,-103.625 938.699,-90.1202 918.128,-80.113"/>
<polygon fill="midnightblue" stroke="midnightblue" points="919.487,-76.8819 908.964,-75.6545 916.425,-83.1765 919.487,-76.8819"/>
</g>
<!-- Node19 -->
<g id="node20" class="node"><title>Node19</title>
<g id="a_node20"><a xlink:href="a00479.html" target="_top" xlink:title="Provide poll call where missing. ">
<polygon fill="white" stroke="black" points="1031.17,-56.5 1031.17,-75.5 1139.17,-75.5 1139.17,-56.5 1031.17,-56.5"/>
<text text-anchor="middle" x="1085.17" y="-63.5" font-family="Helvetica,sans-Serif" font-size="10.00">replacements/poll.h</text>
</a>
</g>
</g>
<!-- Node17&#45;&gt;Node19 -->
<g id="edge27" class="edge"><title>Node17&#45;&gt;Node19</title>
<path fill="none" stroke="midnightblue" d="M1015.51,-112.324C1028.34,-103.979 1047.96,-91.2122 1063.11,-81.3524"/>
<polygon fill="midnightblue" stroke="midnightblue" points="1065.4,-84.0417 1071.87,-75.6545 1061.58,-78.1742 1065.4,-84.0417"/>
</g>
<!-- Node18&#45;&gt;Node15 -->
<g id="edge25" class="edge"><title>Node18&#45;&gt;Node15</title>
<path fill="none" stroke="midnightblue" d="M825.416,-56.4435C745.251,-46.0124 611.019,-28.5461 534.421,-18.5791"/>
<polygon fill="midnightblue" stroke="midnightblue" points="534.83,-15.103 524.462,-17.2833 533.927,-22.0445 534.83,-15.103"/>
</g>
<!-- Node18&#45;&gt;Node16 -->
<g id="edge26" class="edge"><title>Node18&#45;&gt;Node16</title>
<path fill="none" stroke="midnightblue" d="M806.454,-57.1605C801.963,-56.7634 797.514,-56.3743 793.174,-56 609.874,-40.1925 392.546,-23.1571 291.743,-15.3532"/>
<polygon fill="midnightblue" stroke="midnightblue" points="291.725,-11.8415 281.485,-14.5599 291.186,-18.8207 291.725,-11.8415"/>
</g>
<!-- Node19&#45;&gt;Node1 -->
<g id="edge28" class="edge"><title>Node19&#45;&gt;Node1</title>
<path fill="none" stroke="midnightblue" d="M1117.34,-56.4435C1153.98,-46.6975 1213.7,-30.8101 1251.95,-20.6359"/>
<polygon fill="midnightblue" stroke="midnightblue" points="1252.89,-24.0069 1261.66,-18.0537 1251.09,-17.2421 1252.89,-24.0069"/>
</g>
<!-- Node19&#45;&gt;Node15 -->
<g id="edge29" class="edge"><title>Node19&#45;&gt;Node15</title>
<path fill="none" stroke="midnightblue" d="M1031.01,-57.5902C1026.33,-57.0236 1021.67,-56.4846 1017.17,-56 841.824,-37.1145 633.76,-21.7943 534.5,-14.9179"/>
<polygon fill="midnightblue" stroke="midnightblue" points="534.594,-11.4161 524.377,-14.2198 534.113,-18.3996 534.594,-11.4161"/>
</g>
<!-- Node19&#45;&gt;Node16 -->
<g id="edge30" class="edge"><title>Node19&#45;&gt;Node16</title>
<path fill="none" stroke="midnightblue" d="M1030.95,-59.8777C1015.81,-58.5272 999.359,-57.1325 984.174,-56 725.459,-36.7054 415.989,-20.1974 291.302,-13.8173"/>
<polygon fill="midnightblue" stroke="midnightblue" points="291.395,-10.3175 281.229,-13.3033 291.038,-17.3084 291.395,-10.3175"/>
</g>
<!-- Node21&#45;&gt;Node15 -->
<g id="edge37" class="edge"><title>Node21&#45;&gt;Node15</title>
<path fill="none" stroke="midnightblue" d="M120.212,-57.3341C123.243,-56.8729 126.25,-56.4244 129.174,-56 230.529,-41.2869 348.885,-26.4357 417.89,-18.0097"/>
<polygon fill="midnightblue" stroke="midnightblue" points="418.614,-21.4474 428.118,-16.7637 417.768,-14.4988 418.614,-21.4474"/>
</g>
<!-- Node21&#45;&gt;Node16 -->
<g id="edge38" class="edge"><title>Node21&#45;&gt;Node16</title>
<path fill="none" stroke="midnightblue" d="M98.8431,-56.4435C126.096,-47.3591 169.357,-32.9388 199.824,-22.7831"/>
<polygon fill="midnightblue" stroke="midnightblue" points="201.244,-25.9992 209.624,-19.5164 199.031,-19.3584 201.244,-25.9992"/>
</g>
<!-- Node23&#45;&gt;Node15 -->
<g id="edge41" class="edge"><title>Node23&#45;&gt;Node15</title>
<path fill="none" stroke="midnightblue" d="M224.385,-57.0901C276.018,-47.6387 362.557,-31.7976 419.509,-21.3725"/>
<polygon fill="midnightblue" stroke="midnightblue" points="420.228,-24.7992 429.434,-19.5558 418.967,-17.9136 420.228,-24.7992"/>
</g>
<!-- Node23&#45;&gt;Node16 -->
<g id="edge42" class="edge"><title>Node23&#45;&gt;Node16</title>
<path fill="none" stroke="midnightblue" d="M190.091,-56.083C197.954,-48.2195 209.605,-36.5688 219.092,-27.0813"/>
<polygon fill="midnightblue" stroke="midnightblue" points="221.826,-29.2971 226.423,-19.7511 216.877,-24.3473 221.826,-29.2971"/>
</g>
<!-- Node24&#45;&gt;Node15 -->
<g id="edge44" class="edge"><title>Node24&#45;&gt;Node15</title>
<path fill="none" stroke="midnightblue" d="M318.804,-56.4435C350.674,-47.2406 401.506,-32.5617 436.738,-22.3879"/>
<polygon fill="midnightblue" stroke="midnightblue" points="438.045,-25.6534 446.682,-19.5164 436.103,-18.9282 438.045,-25.6534"/>
</g>
<!-- Node24&#45;&gt;Node16 -->
<g id="edge45" class="edge"><title>Node24&#45;&gt;Node16</title>
<path fill="none" stroke="midnightblue" d="M280.257,-56.083C272.393,-48.2195 260.743,-36.5688 251.255,-27.0813"/>
<polygon fill="midnightblue" stroke="midnightblue" points="253.471,-24.3473 243.925,-19.7511 248.521,-29.2971 253.471,-24.3473"/>
</g>
</g>
</svg>
