<?xml version="1.0" encoding="UTF-8" standalone="no"?>
<!DOCTYPE svg PUBLIC "-//W3C//DTD SVG 1.1//EN"
 "http://www.w3.org/Graphics/SVG/1.1/DTD/svg11.dtd">
<!-- Generated by graphviz version 2.38.0 (20140413.2041)
 -->
<!-- Title: src/tds/data.c Pages: 1 -->
<svg width="1847pt" height="252pt"
 viewBox="0.00 0.00 1846.73 252.00" xmlns="http://www.w3.org/2000/svg" xmlns:xlink="http://www.w3.org/1999/xlink">
<g id="graph0" class="graph" transform="scale(1 1) rotate(0) translate(4 248)">
<title>src/tds/data.c</title>
<polygon fill="white" stroke="none" points="-4,4 -4,-248 1842.73,-248 1842.73,4 -4,4"/>
<!-- Node0 -->
<g id="node1" class="node"><title>Node0</title>
<polygon fill="#bfbfbf" stroke="black" points="1327.23,-224.5 1327.23,-243.5 1407.23,-243.5 1407.23,-224.5 1327.23,-224.5"/>
<text text-anchor="middle" x="1367.23" y="-231.5" font-family="Helvetica,sans-Serif" font-size="10.00">src/tds/data.c</text>
</g>
<!-- Node1 -->
<g id="node2" class="node"><title>Node1</title>
<g id="a_node2"><a xlink:href="a00362_source.html" target="_top" xlink:title="config.h">
<polygon fill="white" stroke="black" points="498.733,-0.5 498.733,-19.5 551.733,-19.5 551.733,-0.5 498.733,-0.5"/>
<text text-anchor="middle" x="525.233" y="-7.5" font-family="Helvetica,sans-Serif" font-size="10.00">config.h</text>
</a>
</g>
</g>
<!-- Node0&#45;&gt;Node1 -->
<g id="edge1" class="edge"><title>Node0&#45;&gt;Node1</title>
<path fill="none" stroke="midnightblue" d="M1327.21,-232.615C1129.31,-230.564 260.333,-219.805 144.233,-188 93.9787,-174.233 78.4658,-168.453 41.2334,-132 15.0453,-106.36 -15.5306,-83.0177 9.23339,-56 17.3535,-47.141 371.895,-21.6869 488.494,-13.5403"/>
<polygon fill="midnightblue" stroke="midnightblue" points="488.968,-17.0159 498.701,-12.829 488.481,-10.0328 488.968,-17.0159"/>
</g>
<!-- Node2 -->
<g id="node3" class="node"><title>Node2</title>
<polygon fill="white" stroke="#bfbfbf" points="1013.73,-56.5 1013.73,-75.5 1068.73,-75.5 1068.73,-56.5 1013.73,-56.5"/>
<text text-anchor="middle" x="1041.23" y="-63.5" font-family="Helvetica,sans-Serif" font-size="10.00">stdarg.h</text>
</g>
<!-- Node0&#45;&gt;Node2 -->
<g id="edge2" class="edge"><title>Node0&#45;&gt;Node2</title>
<path fill="none" stroke="midnightblue" d="M1327.07,-233.114C1197.68,-233.069 797.813,-229.541 759.233,-188 740.057,-167.352 760.319,-129.988 783.233,-112 859.788,-51.9049 903.626,-94.2009 999.233,-76 1000.7,-75.7211 1002.19,-75.4308 1003.7,-75.1327"/>
<polygon fill="midnightblue" stroke="midnightblue" points="1004.61,-78.5186 1013.71,-73.0876 1003.21,-71.6602 1004.61,-78.5186"/>
</g>
<!-- Node3 -->
<g id="node4" class="node"><title>Node3</title>
<polygon fill="white" stroke="#bfbfbf" points="1314.73,-112.5 1314.73,-131.5 1361.73,-131.5 1361.73,-112.5 1314.73,-112.5"/>
<text text-anchor="middle" x="1338.23" y="-119.5" font-family="Helvetica,sans-Serif" font-size="10.00">stdio.h</text>
</g>
<!-- Node0&#45;&gt;Node3 -->
<g id="edge3" class="edge"><title>Node0&#45;&gt;Node3</title>
<path fill="none" stroke="midnightblue" d="M1364.96,-224.368C1360.26,-206.537 1349.38,-165.295 1343.05,-141.272"/>
<polygon fill="midnightblue" stroke="midnightblue" points="1346.43,-140.369 1340.5,-131.591 1339.66,-142.153 1346.43,-140.369"/>
</g>
<!-- Node4 -->
<g id="node5" class="node"><title>Node4</title>
<polygon fill="white" stroke="#bfbfbf" points="1591.23,-168.5 1591.23,-187.5 1645.23,-187.5 1645.23,-168.5 1591.23,-168.5"/>
<text text-anchor="middle" x="1618.23" y="-175.5" font-family="Helvetica,sans-Serif" font-size="10.00">assert.h</text>
</g>
<!-- Node0&#45;&gt;Node4 -->
<g id="edge4" class="edge"><title>Node0&#45;&gt;Node4</title>
<path fill="none" stroke="midnightblue" d="M1407.5,-224.433C1449.79,-215.423 1518.2,-200.804 1577.23,-188 1578.48,-187.731 1579.74,-187.456 1581.01,-187.179"/>
<polygon fill="midnightblue" stroke="midnightblue" points="1581.87,-190.575 1590.89,-185.022 1580.37,-183.736 1581.87,-190.575"/>
</g>
<!-- Node5 -->
<g id="node6" class="node"><title>Node5</title>
<g id="a_node6"><a xlink:href="a00467_source.html" target="_top" xlink:title="freetds/utils.h">
<polygon fill="white" stroke="black" points="164.733,-112.5 164.733,-131.5 243.733,-131.5 243.733,-112.5 164.733,-112.5"/>
<text text-anchor="middle" x="204.233" y="-119.5" font-family="Helvetica,sans-Serif" font-size="10.00">freetds/utils.h</text>
</a>
</g>
</g>
<!-- Node0&#45;&gt;Node5 -->
<g id="edge5" class="edge"><title>Node0&#45;&gt;Node5</title>
<path fill="none" stroke="midnightblue" d="M1327.17,-230.974C1225.12,-225.652 947.136,-210.143 716.233,-188 512.977,-168.508 462.403,-160.65 260.233,-132 258.177,-131.709 256.079,-131.404 253.961,-131.091"/>
<polygon fill="midnightblue" stroke="midnightblue" points="254.388,-127.615 243.976,-129.574 253.337,-134.536 254.388,-127.615"/>
</g>
<!-- Node8 -->
<g id="node9" class="node"><title>Node8</title>
<g id="a_node9"><a xlink:href="a00419_source.html" target="_top" xlink:title="freetds/pushvis.h">
<polygon fill="white" stroke="black" points="668.233,-0.5 668.233,-19.5 764.233,-19.5 764.233,-0.5 668.233,-0.5"/>
<text text-anchor="middle" x="716.233" y="-7.5" font-family="Helvetica,sans-Serif" font-size="10.00">freetds/pushvis.h</text>
</a>
</g>
</g>
<!-- Node0&#45;&gt;Node8 -->
<g id="edge56" class="edge"><title>Node0&#45;&gt;Node8</title>
<path fill="none" stroke="midnightblue" d="M1327.22,-232.3C1139.75,-228.901 352.973,-213.236 246.233,-188 135.974,-161.933 75.525,-173.153 17.2334,-76 12.6601,-68.3778 11.1533,-62.4842 17.2334,-56 19.9688,-53.0828 490.673,-24.546 658.023,-14.4873"/>
<polygon fill="midnightblue" stroke="midnightblue" points="658.357,-17.9737 668.129,-13.8802 657.937,-10.9863 658.357,-17.9737"/>
</g>
<!-- Node9 -->
<g id="node10" class="node"><title>Node9</title>
<g id="a_node10"><a xlink:href="a00413_source.html" target="_top" xlink:title="freetds/popvis.h">
<polygon fill="white" stroke="black" points="1202.23,-0.5 1202.23,-19.5 1294.23,-19.5 1294.23,-0.5 1202.23,-0.5"/>
<text text-anchor="middle" x="1248.23" y="-7.5" font-family="Helvetica,sans-Serif" font-size="10.00">freetds/popvis.h</text>
</a>
</g>
</g>
<!-- Node0&#45;&gt;Node9 -->
<g id="edge57" class="edge"><title>Node0&#45;&gt;Node9</title>
<path fill="none" stroke="midnightblue" d="M1402.48,-224.459C1487.98,-202.195 1694.24,-138.345 1621.23,-56 1600.6,-32.7256 1403.63,-19.1516 1304.56,-13.744"/>
<polygon fill="midnightblue" stroke="midnightblue" points="1304.59,-10.2409 1294.42,-13.2005 1304.22,-17.2309 1304.59,-10.2409"/>
</g>
<!-- Node10 -->
<g id="node11" class="node"><title>Node10</title>
<g id="a_node11"><a xlink:href="a00431.html" target="_top" xlink:title="Main include file for libtds. ">
<polygon fill="white" stroke="black" points="768.733,-168.5 768.733,-187.5 843.733,-187.5 843.733,-168.5 768.733,-168.5"/>
<text text-anchor="middle" x="806.233" y="-175.5" font-family="Helvetica,sans-Serif" font-size="10.00">freetds/tds.h</text>
</a>
</g>
</g>
<!-- Node0&#45;&gt;Node10 -->
<g id="edge11" class="edge"><title>Node0&#45;&gt;Node10</title>
<path fill="none" stroke="midnightblue" d="M1326.89,-229.116C1225.88,-219.394 962.482,-194.04 853.993,-183.597"/>
<polygon fill="midnightblue" stroke="midnightblue" points="854.278,-180.109 843.989,-182.634 853.607,-187.076 854.278,-180.109"/>
</g>
<!-- Node22 -->
<g id="node23" class="node"><title>Node22</title>
<g id="a_node23"><a xlink:href="a00386_source.html" target="_top" xlink:title="freetds/bytes.h">
<polygon fill="white" stroke="black" points="1663.23,-168.5 1663.23,-187.5 1749.23,-187.5 1749.23,-168.5 1663.23,-168.5"/>
<text text-anchor="middle" x="1706.23" y="-175.5" font-family="Helvetica,sans-Serif" font-size="10.00">freetds/bytes.h</text>
</a>
</g>
</g>
<!-- Node0&#45;&gt;Node22 -->
<g id="edge43" class="edge"><title>Node0&#45;&gt;Node22</title>
<path fill="none" stroke="midnightblue" d="M1407.67,-226.867C1461.36,-218.677 1559.41,-203.564 1653.18,-188.154"/>
<polygon fill="midnightblue" stroke="midnightblue" points="1653.81,-191.596 1663.11,-186.517 1652.68,-184.689 1653.81,-191.596"/>
</g>
<!-- Node23 -->
<g id="node24" class="node"><title>Node23</title>
<g id="a_node24"><a xlink:href="a00404_source.html" target="_top" xlink:title="freetds/iconv.h">
<polygon fill="white" stroke="black" points="1526.23,-56.5 1526.23,-75.5 1612.23,-75.5 1612.23,-56.5 1526.23,-56.5"/>
<text text-anchor="middle" x="1569.23" y="-63.5" font-family="Helvetica,sans-Serif" font-size="10.00">freetds/iconv.h</text>
</a>
</g>
</g>
<!-- Node0&#45;&gt;Node23 -->
<g id="edge44" class="edge"><title>Node0&#45;&gt;Node23</title>
<path fill="none" stroke="midnightblue" d="M1377.81,-224.309C1410.4,-197.528 1509.56,-116.035 1550.87,-82.09"/>
<polygon fill="midnightblue" stroke="midnightblue" points="1553.26,-84.6583 1558.76,-75.6051 1548.81,-79.2501 1553.26,-84.6583"/>
</g>
<!-- Node24 -->
<g id="node25" class="node"><title>Node24</title>
<g id="a_node25"><a xlink:href="a00389_source.html" target="_top" xlink:title="freetds/checks.h">
<polygon fill="white" stroke="black" points="1314.23,-56.5 1314.23,-75.5 1408.23,-75.5 1408.23,-56.5 1314.23,-56.5"/>
<text text-anchor="middle" x="1361.23" y="-63.5" font-family="Helvetica,sans-Serif" font-size="10.00">freetds/checks.h</text>
</a>
</g>
</g>
<!-- Node0&#45;&gt;Node24 -->
<g id="edge47" class="edge"><title>Node0&#45;&gt;Node24</title>
<path fill="none" stroke="midnightblue" d="M1368.17,-224.465C1370.17,-204.653 1374.4,-154.031 1370.23,-112 1369.36,-103.17 1367.54,-93.5054 1365.77,-85.4041"/>
<polygon fill="midnightblue" stroke="midnightblue" points="1369.15,-84.4935 1363.47,-75.5508 1362.33,-86.0846 1369.15,-84.4935"/>
</g>
<!-- Node25 -->
<g id="node26" class="node"><title>Node25</title>
<g id="a_node26"><a xlink:href="a00425_source.html" target="_top" xlink:title="freetds/stream.h">
<polygon fill="white" stroke="black" points="38.7334,-56.5 38.7334,-75.5 131.733,-75.5 131.733,-56.5 38.7334,-56.5"/>
<text text-anchor="middle" x="85.2334" y="-63.5" font-family="Helvetica,sans-Serif" font-size="10.00">freetds/stream.h</text>
</a>
</g>
</g>
<!-- Node0&#45;&gt;Node25 -->
<g id="edge50" class="edge"><title>Node0&#45;&gt;Node25</title>
<path fill="none" stroke="midnightblue" d="M1327.1,-232.261C1205.57,-229.724 830.956,-219.697 522.233,-188 358.097,-171.148 303.814,-203.754 155.233,-132 132.014,-120.786 111.177,-99.2165 98.3946,-84.0069"/>
<polygon fill="midnightblue" stroke="midnightblue" points="100.855,-81.483 91.842,-75.9131 95.414,-85.8876 100.855,-81.483"/>
</g>
<!-- Node26 -->
<g id="node27" class="node"><title>Node26</title>
<g id="a_node27"><a xlink:href="a00398_source.html" target="_top" xlink:title="freetds/data.h">
<polygon fill="white" stroke="black" points="1426.23,-56.5 1426.23,-75.5 1508.23,-75.5 1508.23,-56.5 1426.23,-56.5"/>
<text text-anchor="middle" x="1467.23" y="-63.5" font-family="Helvetica,sans-Serif" font-size="10.00">freetds/data.h</text>
</a>
</g>
</g>
<!-- Node0&#45;&gt;Node26 -->
<g id="edge53" class="edge"><title>Node0&#45;&gt;Node26</title>
<path fill="none" stroke="midnightblue" d="M1372.61,-224.075C1388.56,-197.606 1435.78,-119.209 1456.87,-84.2097"/>
<polygon fill="midnightblue" stroke="midnightblue" points="1459.91,-85.94 1462.07,-75.5681 1453.91,-82.3279 1459.91,-85.94"/>
</g>
<!-- Node27 -->
<g id="node28" class="node"><title>Node27</title>
<g id="a_node28"><a xlink:href="a00302_source.html" target="_top" xlink:title="tds_types.h">
<polygon fill="white" stroke="black" points="1767.73,-168.5 1767.73,-187.5 1838.73,-187.5 1838.73,-168.5 1767.73,-168.5"/>
<text text-anchor="middle" x="1803.23" y="-175.5" font-family="Helvetica,sans-Serif" font-size="10.00">tds_types.h</text>
</a>
</g>
</g>
<!-- Node0&#45;&gt;Node27 -->
<g id="edge58" class="edge"><title>Node0&#45;&gt;Node27</title>
<path fill="none" stroke="midnightblue" d="M1407.35,-229.489C1476.6,-223.187 1623.27,-208.789 1757.38,-188.012"/>
<polygon fill="midnightblue" stroke="midnightblue" points="1758.08,-191.445 1767.42,-186.441 1757,-184.529 1758.08,-191.445"/>
</g>
<!-- Node6 -->
<g id="node7" class="node"><title>Node6</title>
<g id="a_node7"><a xlink:href="a00437_source.html" target="_top" xlink:title="freetds/time.h">
<polygon fill="white" stroke="black" points="188.233,-56.5 188.233,-75.5 268.233,-75.5 268.233,-56.5 188.233,-56.5"/>
<text text-anchor="middle" x="228.233" y="-63.5" font-family="Helvetica,sans-Serif" font-size="10.00">freetds/time.h</text>
</a>
</g>
</g>
<!-- Node5&#45;&gt;Node6 -->
<g id="edge6" class="edge"><title>Node5&#45;&gt;Node6</title>
<path fill="none" stroke="midnightblue" d="M208.197,-112.083C211.447,-104.77 216.153,-94.1814 220.187,-85.1034"/>
<polygon fill="midnightblue" stroke="midnightblue" points="223.481,-86.3107 224.344,-75.7511 217.084,-83.4677 223.481,-86.3107"/>
</g>
<!-- Node7 -->
<g id="node8" class="node"><title>Node7</title>
<g id="a_node8"><a xlink:href="a00428_source.html" target="_top" xlink:title="freetds/sysdep_private.h">
<polygon fill="white" stroke="black" points="472.733,-56.5 472.733,-75.5 605.733,-75.5 605.733,-56.5 472.733,-56.5"/>
<text text-anchor="middle" x="539.233" y="-63.5" font-family="Helvetica,sans-Serif" font-size="10.00">freetds/sysdep_private.h</text>
</a>
</g>
</g>
<!-- Node5&#45;&gt;Node7 -->
<g id="edge8" class="edge"><title>Node5&#45;&gt;Node7</title>
<path fill="none" stroke="midnightblue" d="M243.978,-114.593C301.347,-105.346 407.943,-88.1632 476.138,-77.1706"/>
<polygon fill="midnightblue" stroke="midnightblue" points="477.009,-80.5754 486.325,-75.5285 475.895,-73.6646 477.009,-80.5754"/>
</g>
<!-- Node5&#45;&gt;Node8 -->
<g id="edge9" class="edge"><title>Node5&#45;&gt;Node8</title>
<path fill="none" stroke="midnightblue" d="M164.681,-119.073C101.181,-114.642 -12.3639,-100.411 29.2334,-56 31.9158,-53.1362 492.931,-24.6629 658.159,-14.5448"/>
<polygon fill="midnightblue" stroke="midnightblue" points="658.373,-18.0383 668.141,-13.9338 657.946,-11.0514 658.373,-18.0383"/>
</g>
<!-- Node5&#45;&gt;Node9 -->
<g id="edge10" class="edge"><title>Node5&#45;&gt;Node9</title>
<path fill="none" stroke="midnightblue" d="M195.759,-112.278C183.488,-98.6118 163.837,-72.0582 179.233,-56 196.912,-37.5619 973.842,-17.5772 1191.87,-12.3241"/>
<polygon fill="midnightblue" stroke="midnightblue" points="1192.22,-15.8169 1202.13,-12.0779 1192.05,-8.81896 1192.22,-15.8169"/>
</g>
<!-- Node6&#45;&gt;Node6 -->
<g id="edge7" class="edge"><title>Node6&#45;&gt;Node6</title>
<path fill="none" stroke="midnightblue" d="M252.97,-75.5252C269.779,-78.3079 286.233,-75.1328 286.233,-66 286.233,-58.7223 275.785,-55.2278 263.034,-55.5165"/>
<polygon fill="midnightblue" stroke="midnightblue" points="262.594,-52.0426 252.97,-56.4748 263.257,-59.011 262.594,-52.0426"/>
</g>
<!-- Node10&#45;&gt;Node2 -->
<g id="edge12" class="edge"><title>Node10&#45;&gt;Node2</title>
<path fill="none" stroke="midnightblue" d="M800.29,-168.325C791.775,-154.722 778.562,-128.255 792.233,-112 822.287,-76.2682 953.398,-84.8932 999.233,-76 1000.7,-75.7159 1002.19,-75.4213 1003.7,-75.1195"/>
<polygon fill="midnightblue" stroke="midnightblue" points="1004.61,-78.504 1013.7,-73.0597 1003.2,-71.6478 1004.61,-78.504"/>
</g>
<!-- Node10&#45;&gt;Node3 -->
<g id="edge13" class="edge"><title>Node10&#45;&gt;Node3</title>
<path fill="none" stroke="midnightblue" d="M843.955,-175.389C926.921,-171.449 1131.3,-159.556 1300.23,-132 1301.7,-131.761 1303.19,-131.498 1304.69,-131.215"/>
<polygon fill="midnightblue" stroke="midnightblue" points="1305.55,-134.611 1314.62,-129.139 1304.12,-127.76 1305.55,-134.611"/>
</g>
<!-- Node10&#45;&gt;Node6 -->
<g id="edge14" class="edge"><title>Node10&#45;&gt;Node6</title>
<path fill="none" stroke="midnightblue" d="M768.722,-177.08C664.896,-176.778 375.824,-172.247 291.233,-132 269.14,-121.488 250.618,-99.7216 239.495,-84.2773"/>
<polygon fill="midnightblue" stroke="midnightblue" points="242.106,-81.897 233.56,-75.6353 236.336,-85.8599 242.106,-81.897"/>
</g>
<!-- Node10&#45;&gt;Node7 -->
<g id="edge18" class="edge"><title>Node10&#45;&gt;Node7</title>
<path fill="none" stroke="midnightblue" d="M768.427,-175.02C725.871,-171.392 655.816,-161.113 603.233,-132 581.892,-120.184 563.063,-99.0557 551.449,-84.0986"/>
<polygon fill="midnightblue" stroke="midnightblue" points="553.98,-81.6389 545.192,-75.7217 548.372,-85.8279 553.98,-81.6389"/>
</g>
<!-- Node10&#45;&gt;Node8 -->
<g id="edge40" class="edge"><title>Node10&#45;&gt;Node8</title>
<path fill="none" stroke="midnightblue" d="M768.538,-172.161C686.343,-160.694 495.733,-128.798 463.233,-76 458.574,-68.4303 457.525,-62.8135 463.233,-56 487.59,-26.9289 591.19,-16.6236 658.032,-12.9807"/>
<polygon fill="midnightblue" stroke="midnightblue" points="658.211,-16.4762 668.019,-12.4707 657.854,-9.48532 658.211,-16.4762"/>
</g>
<!-- Node10&#45;&gt;Node9 -->
<g id="edge42" class="edge"><title>Node10&#45;&gt;Node9</title>
<path fill="none" stroke="midnightblue" d="M843.912,-176.163C948.91,-173.445 1238.97,-163.157 1267.23,-132 1293.2,-103.371 1272.71,-54.3912 1258.65,-28.3962"/>
<polygon fill="midnightblue" stroke="midnightblue" points="1261.66,-26.6176 1253.68,-19.6492 1255.58,-30.0735 1261.66,-26.6176"/>
</g>
<!-- Node11 -->
<g id="node12" class="node"><title>Node11</title>
<g id="a_node12"><a xlink:href="a00470_source.html" target="_top" xlink:title="freetds/version.h">
<polygon fill="white" stroke="black" points="834.733,-112.5 834.733,-131.5 929.733,-131.5 929.733,-112.5 834.733,-112.5"/>
<text text-anchor="middle" x="882.233" y="-119.5" font-family="Helvetica,sans-Serif" font-size="10.00">freetds/version.h</text>
</a>
</g>
</g>
<!-- Node10&#45;&gt;Node11 -->
<g id="edge15" class="edge"><title>Node10&#45;&gt;Node11</title>
<path fill="none" stroke="midnightblue" d="M818.444,-168.324C830.009,-160.107 847.609,-147.602 861.394,-137.807"/>
<polygon fill="midnightblue" stroke="midnightblue" points="863.676,-140.479 869.801,-131.834 859.621,-134.773 863.676,-140.479"/>
</g>
<!-- Node12 -->
<g id="node13" class="node"><title>Node12</title>
<g id="a_node13"><a xlink:href="a00506_source.html" target="_top" xlink:title="tds_sysdep_public.h">
<polygon fill="white" stroke="black" points="304.733,-56.5 304.733,-75.5 415.733,-75.5 415.733,-56.5 304.733,-56.5"/>
<text text-anchor="middle" x="360.233" y="-63.5" font-family="Helvetica,sans-Serif" font-size="10.00">tds_sysdep_public.h</text>
</a>
</g>
</g>
<!-- Node10&#45;&gt;Node12 -->
<g id="edge16" class="edge"><title>Node10&#45;&gt;Node12</title>
<path fill="none" stroke="midnightblue" d="M768.444,-174.836C687.983,-169.82 502.343,-155.962 444.233,-132 416.942,-120.746 390.934,-98.1474 375.277,-82.7944"/>
<polygon fill="midnightblue" stroke="midnightblue" points="377.604,-80.1696 368.081,-75.5248 372.629,-85.0941 377.604,-80.1696"/>
</g>
<!-- Node14 -->
<g id="node15" class="node"><title>Node14</title>
<g id="a_node15"><a xlink:href="a00434_source.html" target="_top" xlink:title="freetds/thread.h">
<polygon fill="white" stroke="black" points="300.233,-112.5 300.233,-131.5 392.233,-131.5 392.233,-112.5 300.233,-112.5"/>
<text text-anchor="middle" x="346.233" y="-119.5" font-family="Helvetica,sans-Serif" font-size="10.00">freetds/thread.h</text>
</a>
</g>
</g>
<!-- Node10&#45;&gt;Node14 -->
<g id="edge19" class="edge"><title>Node10&#45;&gt;Node14</title>
<path fill="none" stroke="midnightblue" d="M768.677,-173.242C697.751,-166.04 539.268,-149.455 406.233,-132 404.97,-131.834 403.693,-131.664 402.405,-131.49"/>
<polygon fill="midnightblue" stroke="midnightblue" points="402.784,-128.009 392.397,-130.1 401.82,-134.943 402.784,-128.009"/>
</g>
<!-- Node15 -->
<g id="node16" class="node"><title>Node15</title>
<g id="a_node16"><a xlink:href="a00383_source.html" target="_top" xlink:title="freetds/bool.h">
<polygon fill="white" stroke="black" points="948.233,-112.5 948.233,-131.5 1028.23,-131.5 1028.23,-112.5 948.233,-112.5"/>
<text text-anchor="middle" x="988.233" y="-119.5" font-family="Helvetica,sans-Serif" font-size="10.00">freetds/bool.h</text>
</a>
</g>
</g>
<!-- Node10&#45;&gt;Node15 -->
<g id="edge21" class="edge"><title>Node10&#45;&gt;Node15</title>
<path fill="none" stroke="midnightblue" d="M835.072,-168.444C866.089,-159.241 915.563,-144.562 949.852,-134.388"/>
<polygon fill="midnightblue" stroke="midnightblue" points="950.939,-137.716 959.53,-131.516 948.947,-131.006 950.939,-137.716"/>
</g>
<!-- Node16 -->
<g id="node17" class="node"><title>Node16</title>
<g id="a_node17"><a xlink:href="a00407_source.html" target="_top" xlink:title="freetds/macros.h">
<polygon fill="white" stroke="black" points="1086.73,-56.5 1086.73,-75.5 1181.73,-75.5 1181.73,-56.5 1086.73,-56.5"/>
<text text-anchor="middle" x="1134.23" y="-63.5" font-family="Helvetica,sans-Serif" font-size="10.00">freetds/macros.h</text>
</a>
</g>
</g>
<!-- Node10&#45;&gt;Node16 -->
<g id="edge22" class="edge"><title>Node10&#45;&gt;Node16</title>
<path fill="none" stroke="midnightblue" d="M806.012,-168.291C806.167,-154.146 808.709,-126.323 825.233,-112 865.892,-76.758 1006.59,-83.5983 1076.48,-75.8776"/>
<polygon fill="midnightblue" stroke="midnightblue" points="1077.19,-79.3152 1086.66,-74.5658 1076.29,-72.3726 1077.19,-79.3152"/>
</g>
<!-- Node17 -->
<g id="node18" class="node"><title>Node17</title>
<g id="a_node18"><a xlink:href="a00464_source.html" target="_top" xlink:title="freetds/utils/string.h">
<polygon fill="white" stroke="black" points="1150.23,-112.5 1150.23,-131.5 1258.23,-131.5 1258.23,-112.5 1150.23,-112.5"/>
<text text-anchor="middle" x="1204.23" y="-119.5" font-family="Helvetica,sans-Serif" font-size="10.00">freetds/utils/string.h</text>
</a>
</g>
</g>
<!-- Node10&#45;&gt;Node17 -->
<g id="edge23" class="edge"><title>Node10&#45;&gt;Node17</title>
<path fill="none" stroke="midnightblue" d="M843.927,-172.041C904.194,-164.09 1026.24,-147.895 1140.02,-132.16"/>
<polygon fill="midnightblue" stroke="midnightblue" points="1140.52,-135.624 1149.94,-130.785 1139.56,-128.69 1140.52,-135.624"/>
</g>
<!-- Node18 -->
<g id="node19" class="node"><title>Node18</title>
<g id="a_node19"><a xlink:href="a00485_source.html" target="_top" xlink:title="replacements.h">
<polygon fill="white" stroke="black" points="612.733,-112.5 612.733,-131.5 701.733,-131.5 701.733,-112.5 612.733,-112.5"/>
<text text-anchor="middle" x="657.233" y="-119.5" font-family="Helvetica,sans-Serif" font-size="10.00">replacements.h</text>
</a>
</g>
</g>
<!-- Node10&#45;&gt;Node18 -->
<g id="edge27" class="edge"><title>Node10&#45;&gt;Node18</title>
<path fill="none" stroke="midnightblue" d="M782.624,-168.444C757.776,-159.438 718.459,-145.189 690.48,-135.049"/>
<polygon fill="midnightblue" stroke="midnightblue" points="691.327,-131.633 680.732,-131.516 688.941,-138.214 691.327,-131.633"/>
</g>
<!-- Node21 -->
<g id="node22" class="node"><title>Node21</title>
<g id="a_node22"><a xlink:href="a00416_source.html" target="_top" xlink:title="freetds/proto.h">
<polygon fill="white" stroke="black" points="1046.23,-112.5 1046.23,-131.5 1132.23,-131.5 1132.23,-112.5 1046.23,-112.5"/>
<text text-anchor="middle" x="1089.23" y="-119.5" font-family="Helvetica,sans-Serif" font-size="10.00">freetds/proto.h</text>
</a>
</g>
</g>
<!-- Node10&#45;&gt;Node21 -->
<g id="edge41" class="edge"><title>Node10&#45;&gt;Node21</title>
<path fill="none" stroke="midnightblue" d="M843.814,-169.829C893.071,-160.43 979.773,-143.886 1035.83,-133.189"/>
<polygon fill="midnightblue" stroke="midnightblue" points="1036.76,-136.575 1045.93,-131.263 1035.45,-129.699 1036.76,-136.575"/>
</g>
<!-- Node13 -->
<g id="node14" class="node"><title>Node13</title>
<polygon fill="white" stroke="#bfbfbf" points="337.733,-0.5 337.733,-19.5 382.733,-19.5 382.733,-0.5 337.733,-0.5"/>
<text text-anchor="middle" x="360.233" y="-7.5" font-family="Helvetica,sans-Serif" font-size="10.00">float.h</text>
</g>
<!-- Node12&#45;&gt;Node13 -->
<g id="edge17" class="edge"><title>Node12&#45;&gt;Node13</title>
<path fill="none" stroke="midnightblue" d="M360.233,-56.083C360.233,-49.0059 360.233,-38.8611 360.233,-29.9865"/>
<polygon fill="midnightblue" stroke="midnightblue" points="363.733,-29.751 360.233,-19.7511 356.733,-29.7511 363.733,-29.751"/>
</g>
<!-- Node14&#45;&gt;Node12 -->
<g id="edge20" class="edge"><title>Node14&#45;&gt;Node12</title>
<path fill="none" stroke="midnightblue" d="M348.545,-112.083C350.4,-104.927 353.069,-94.6353 355.388,-85.6911"/>
<polygon fill="midnightblue" stroke="midnightblue" points="358.843,-86.3094 357.965,-75.7511 352.067,-84.5527 358.843,-86.3094"/>
</g>
<!-- Node17&#45;&gt;Node8 -->
<g id="edge25" class="edge"><title>Node17&#45;&gt;Node8</title>
<path fill="none" stroke="midnightblue" d="M1205.27,-112.278C1206.4,-98.114 1206.28,-70.2647 1190.23,-56 1159.73,-28.885 894.189,-16.8245 774.409,-12.7281"/>
<polygon fill="midnightblue" stroke="midnightblue" points="774.429,-9.2269 764.317,-12.3901 774.194,-16.223 774.429,-9.2269"/>
</g>
<!-- Node17&#45;&gt;Node9 -->
<g id="edge26" class="edge"><title>Node17&#45;&gt;Node9</title>
<path fill="none" stroke="midnightblue" d="M1208.23,-112.444C1212.4,-103.443 1219.02,-88.8311 1224.23,-76 1230.53,-60.5022 1237.07,-42.6614 1241.73,-29.5962"/>
<polygon fill="midnightblue" stroke="midnightblue" points="1245.12,-30.4957 1245.15,-19.9009 1238.52,-28.1641 1245.12,-30.4957"/>
</g>
<!-- Node17&#45;&gt;Node16 -->
<g id="edge24" class="edge"><title>Node17&#45;&gt;Node16</title>
<path fill="none" stroke="midnightblue" d="M1192.99,-112.324C1182.44,-104.185 1166.43,-91.8395 1153.79,-82.0874"/>
<polygon fill="midnightblue" stroke="midnightblue" points="1155.74,-79.1707 1145.68,-75.8339 1151.46,-84.7132 1155.74,-79.1707"/>
</g>
<!-- Node18&#45;&gt;Node2 -->
<g id="edge28" class="edge"><title>Node18&#45;&gt;Node2</title>
<path fill="none" stroke="midnightblue" d="M701.994,-114.053C706.798,-113.343 711.616,-112.646 716.233,-112 841.803,-94.4387 874.244,-97.3023 999.233,-76 1000.52,-75.7815 1001.82,-75.5511 1003.13,-75.3112"/>
<polygon fill="midnightblue" stroke="midnightblue" points="1004.14,-78.6812 1013.28,-73.3337 1002.8,-71.8104 1004.14,-78.6812"/>
</g>
<!-- Node18&#45;&gt;Node7 -->
<g id="edge30" class="edge"><title>Node18&#45;&gt;Node7</title>
<path fill="none" stroke="midnightblue" d="M638.536,-112.444C619.289,-103.636 589.081,-89.8116 567.033,-79.722"/>
<polygon fill="midnightblue" stroke="midnightblue" points="568.393,-76.4951 557.843,-75.5164 565.48,-82.8603 568.393,-76.4951"/>
</g>
<!-- Node18&#45;&gt;Node8 -->
<g id="edge38" class="edge"><title>Node18&#45;&gt;Node8</title>
<path fill="none" stroke="midnightblue" d="M654.064,-112.433C649.812,-99.4307 643.818,-74.2964 653.233,-56 660.311,-42.2475 673.754,-31.7663 686.411,-24.3942"/>
<polygon fill="midnightblue" stroke="midnightblue" points="688.233,-27.3888 695.386,-19.5733 684.92,-21.2221 688.233,-27.3888"/>
</g>
<!-- Node18&#45;&gt;Node9 -->
<g id="edge39" class="edge"><title>Node18&#45;&gt;Node9</title>
<path fill="none" stroke="midnightblue" d="M702.005,-114.13C706.807,-113.405 711.621,-112.684 716.233,-112 827.277,-95.5358 859.456,-110.645 966.233,-76 984.387,-70.1098 986.199,-62.2463 1004.23,-56 1066.68,-34.3696 1141.92,-22.5028 1192.19,-16.466"/>
<polygon fill="midnightblue" stroke="midnightblue" points="1192.68,-19.9324 1202.21,-15.3 1191.87,-12.9793 1192.68,-19.9324"/>
</g>
<!-- Node18&#45;&gt;Node12 -->
<g id="edge29" class="edge"><title>Node18&#45;&gt;Node12</title>
<path fill="none" stroke="midnightblue" d="M612.448,-112.857C560.319,-103.379 474.132,-87.7089 417.263,-77.3689"/>
<polygon fill="midnightblue" stroke="midnightblue" points="417.814,-73.912 407.35,-75.5666 416.562,-80.7991 417.814,-73.912"/>
</g>
<!-- Node19 -->
<g id="node20" class="node"><title>Node19</title>
<g id="a_node20"><a xlink:href="a00482_source.html" target="_top" xlink:title="replacements/readpassphrase.h">
<polygon fill="white" stroke="black" points="788.733,-56.5 788.733,-75.5 957.733,-75.5 957.733,-56.5 788.733,-56.5"/>
<text text-anchor="middle" x="873.233" y="-63.5" font-family="Helvetica,sans-Serif" font-size="10.00">replacements/readpassphrase.h</text>
</a>
</g>
</g>
<!-- Node18&#45;&gt;Node19 -->
<g id="edge31" class="edge"><title>Node18&#45;&gt;Node19</title>
<path fill="none" stroke="midnightblue" d="M691.459,-112.444C728.745,-103.122 788.502,-88.1828 829.244,-77.9972"/>
<polygon fill="midnightblue" stroke="midnightblue" points="830.315,-81.3374 839.168,-75.5164 828.617,-74.5464 830.315,-81.3374"/>
</g>
<!-- Node20 -->
<g id="node21" class="node"><title>Node20</title>
<g id="a_node21"><a xlink:href="a00479.html" target="_top" xlink:title="Provide poll call where missing. ">
<polygon fill="white" stroke="black" points="662.233,-56.5 662.233,-75.5 770.233,-75.5 770.233,-56.5 662.233,-56.5"/>
<text text-anchor="middle" x="716.233" y="-63.5" font-family="Helvetica,sans-Serif" font-size="10.00">replacements/poll.h</text>
</a>
</g>
</g>
<!-- Node18&#45;&gt;Node20 -->
<g id="edge34" class="edge"><title>Node18&#45;&gt;Node20</title>
<path fill="none" stroke="midnightblue" d="M666.713,-112.324C675.434,-104.341 688.577,-92.3128 699.131,-82.6529"/>
<polygon fill="midnightblue" stroke="midnightblue" points="701.568,-85.1674 706.582,-75.8339 696.842,-80.0036 701.568,-85.1674"/>
</g>
<!-- Node19&#45;&gt;Node8 -->
<g id="edge32" class="edge"><title>Node19&#45;&gt;Node8</title>
<path fill="none" stroke="midnightblue" d="M848.356,-56.4435C821.944,-47.3591 780.018,-32.9388 750.492,-22.7831"/>
<polygon fill="midnightblue" stroke="midnightblue" points="751.589,-19.4593 740.994,-19.5164 749.312,-26.0787 751.589,-19.4593"/>
</g>
<!-- Node19&#45;&gt;Node9 -->
<g id="edge33" class="edge"><title>Node19&#45;&gt;Node9</title>
<path fill="none" stroke="midnightblue" d="M932.653,-56.4435C1003.91,-46.1825 1122.44,-29.114 1192.17,-19.0727"/>
<polygon fill="midnightblue" stroke="midnightblue" points="1192.7,-22.5335 1202.1,-17.6439 1191.7,-15.605 1192.7,-22.5335"/>
</g>
<!-- Node20&#45;&gt;Node1 -->
<g id="edge35" class="edge"><title>Node20&#45;&gt;Node1</title>
<path fill="none" stroke="midnightblue" d="M685.969,-56.4435C652.22,-46.9021 597.652,-31.4744 561.608,-21.2841"/>
<polygon fill="midnightblue" stroke="midnightblue" points="562.541,-17.9107 551.966,-18.558 560.637,-24.6466 562.541,-17.9107"/>
</g>
<!-- Node20&#45;&gt;Node8 -->
<g id="edge36" class="edge"><title>Node20&#45;&gt;Node8</title>
<path fill="none" stroke="midnightblue" d="M716.233,-56.083C716.233,-49.0059 716.233,-38.8611 716.233,-29.9865"/>
<polygon fill="midnightblue" stroke="midnightblue" points="719.733,-29.751 716.233,-19.7511 712.733,-29.7511 719.733,-29.751"/>
</g>
<!-- Node20&#45;&gt;Node9 -->
<g id="edge37" class="edge"><title>Node20&#45;&gt;Node9</title>
<path fill="none" stroke="midnightblue" d="M770.509,-57.0839C773.458,-56.7045 776.381,-56.3404 779.233,-56 928.067,-38.2385 1104.13,-22.8477 1192.19,-15.5342"/>
<polygon fill="midnightblue" stroke="midnightblue" points="1192.55,-19.0164 1202.22,-14.7038 1191.97,-12.0402 1192.55,-19.0164"/>
</g>
<!-- Node23&#45;&gt;Node8 -->
<g id="edge45" class="edge"><title>Node23&#45;&gt;Node8</title>
<path fill="none" stroke="midnightblue" d="M1526.16,-57.1511C1523.14,-56.723 1520.15,-56.3328 1517.23,-56 1240.36,-24.3688 906.986,-14.6933 774.559,-11.9756"/>
<polygon fill="midnightblue" stroke="midnightblue" points="774.315,-8.47013 764.247,-11.7698 774.176,-15.4687 774.315,-8.47013"/>
</g>
<!-- Node23&#45;&gt;Node9 -->
<g id="edge46" class="edge"><title>Node23&#45;&gt;Node9</title>
<path fill="none" stroke="midnightblue" d="M1526.11,-57.5165C1523.1,-57.0014 1520.12,-56.4919 1517.23,-56 1443.78,-43.4996 1358.99,-29.3643 1304.55,-20.327"/>
<polygon fill="midnightblue" stroke="midnightblue" points="1304.86,-16.8293 1294.42,-18.6449 1303.71,-23.7349 1304.86,-16.8293"/>
</g>
<!-- Node24&#45;&gt;Node8 -->
<g id="edge48" class="edge"><title>Node24&#45;&gt;Node8</title>
<path fill="none" stroke="midnightblue" d="M1314.07,-61.0511C1198.54,-51.3788 901.621,-26.5208 774.934,-15.9145"/>
<polygon fill="midnightblue" stroke="midnightblue" points="774.918,-12.401 764.661,-15.0544 774.334,-19.3766 774.918,-12.401"/>
</g>
<!-- Node24&#45;&gt;Node9 -->
<g id="edge49" class="edge"><title>Node24&#45;&gt;Node9</title>
<path fill="none" stroke="midnightblue" d="M1343.33,-56.4435C1324.98,-47.6751 1296.23,-33.9355 1275.14,-23.8579"/>
<polygon fill="midnightblue" stroke="midnightblue" points="1276.59,-20.6703 1266.05,-19.5164 1273.57,-26.9862 1276.59,-20.6703"/>
</g>
<!-- Node25&#45;&gt;Node8 -->
<g id="edge51" class="edge"><title>Node25&#45;&gt;Node8</title>
<path fill="none" stroke="midnightblue" d="M131.818,-57.7954C136.68,-57.1427 141.553,-56.5294 146.233,-56 332.666,-34.912 554.519,-20.4333 657.863,-14.2996"/>
<polygon fill="midnightblue" stroke="midnightblue" points="658.309,-17.7795 668.085,-13.6973 657.897,-10.7917 658.309,-17.7795"/>
</g>
<!-- Node25&#45;&gt;Node9 -->
<g id="edge52" class="edge"><title>Node25&#45;&gt;Node9</title>
<path fill="none" stroke="midnightblue" d="M131.799,-57.6124C136.664,-56.9954 141.544,-56.4405 146.233,-56 352.485,-36.6282 997.358,-17.8551 1192.03,-12.508"/>
<polygon fill="midnightblue" stroke="midnightblue" points="1192.15,-16.0064 1202.05,-12.234 1191.95,-9.00902 1192.15,-16.0064"/>
</g>
<!-- Node26&#45;&gt;Node8 -->
<g id="edge54" class="edge"><title>Node26&#45;&gt;Node8</title>
<path fill="none" stroke="midnightblue" d="M1426.09,-57.2105C1423.1,-56.7621 1420.12,-56.3516 1417.23,-56 1179.91,-27.1194 894.992,-16.0825 774.536,-12.4966"/>
<polygon fill="midnightblue" stroke="midnightblue" points="774.525,-8.99489 764.428,-12.2018 774.321,-15.9919 774.525,-8.99489"/>
</g>
<!-- Node26&#45;&gt;Node9 -->
<g id="edge55" class="edge"><title>Node26&#45;&gt;Node9</title>
<path fill="none" stroke="midnightblue" d="M1432.53,-56.4435C1394.65,-47.1024 1333.88,-32.1194 1292.57,-21.9326"/>
<polygon fill="midnightblue" stroke="midnightblue" points="1293.32,-18.5123 1282.77,-19.5164 1291.64,-25.3088 1293.32,-18.5123"/>
</g>
</g>
</svg>
