<?xml version="1.0" encoding="UTF-8" standalone="no"?>
<!DOCTYPE svg PUBLIC "-//W3C//DTD SVG 1.1//EN"
 "http://www.w3.org/Graphics/SVG/1.1/DTD/svg11.dtd">
<!-- Generated by graphviz version 2.38.0 (20140413.2041)
 -->
<!-- Title: src/tds/token.c Pages: 1 -->
<svg width="1428pt" height="252pt"
 viewBox="0.00 0.00 1427.68 252.00" xmlns="http://www.w3.org/2000/svg" xmlns:xlink="http://www.w3.org/1999/xlink">
<g id="graph0" class="graph" transform="scale(1 1) rotate(0) translate(4 248)">
<title>src/tds/token.c</title>
<polygon fill="white" stroke="none" points="-4,4 -4,-248 1423.68,-248 1423.68,4 -4,4"/>
<!-- Node0 -->
<g id="node1" class="node"><title>Node0</title>
<polygon fill="#bfbfbf" stroke="black" points="762.68,-224.5 762.68,-243.5 847.68,-243.5 847.68,-224.5 762.68,-224.5"/>
<text text-anchor="middle" x="805.18" y="-231.5" font-family="Helvetica,sans-Serif" font-size="10.00">src/tds/token.c</text>
</g>
<!-- Node1 -->
<g id="node2" class="node"><title>Node1</title>
<g id="a_node2"><a xlink:href="a00362_source.html" target="_top" xlink:title="config.h">
<polygon fill="white" stroke="black" points="1263.68,-0.5 1263.68,-19.5 1316.68,-19.5 1316.68,-0.5 1263.68,-0.5"/>
<text text-anchor="middle" x="1290.18" y="-7.5" font-family="Helvetica,sans-Serif" font-size="10.00">config.h</text>
</a>
</g>
</g>
<!-- Node0&#45;&gt;Node1 -->
<g id="edge1" class="edge"><title>Node0&#45;&gt;Node1</title>
<path fill="none" stroke="midnightblue" d="M847.767,-225.66C953.635,-207.102 1222.5,-157.941 1254.18,-132 1284.75,-106.973 1290.12,-57.2021 1290.62,-29.9393"/>
<polygon fill="midnightblue" stroke="midnightblue" points="1294.12,-29.7628 1290.59,-19.771 1287.12,-29.7792 1294.12,-29.7628"/>
</g>
<!-- Node2 -->
<g id="node3" class="node"><title>Node2</title>
<polygon fill="white" stroke="#bfbfbf" points="1154.18,-168.5 1154.18,-187.5 1208.18,-187.5 1208.18,-168.5 1154.18,-168.5"/>
<text text-anchor="middle" x="1181.18" y="-175.5" font-family="Helvetica,sans-Serif" font-size="10.00">assert.h</text>
</g>
<!-- Node0&#45;&gt;Node2 -->
<g id="edge2" class="edge"><title>Node0&#45;&gt;Node2</title>
<path fill="none" stroke="midnightblue" d="M847.924,-228.403C911.772,-221.278 1035.73,-206.447 1140.18,-188 1141.43,-187.779 1142.7,-187.546 1143.98,-187.305"/>
<polygon fill="midnightblue" stroke="midnightblue" points="1144.78,-190.715 1153.9,-185.318 1143.4,-183.852 1144.78,-190.715"/>
</g>
<!-- Node3 -->
<g id="node4" class="node"><title>Node3</title>
<g id="a_node4"><a xlink:href="a00431.html" target="_top" xlink:title="Main include file for libtds. ">
<polygon fill="white" stroke="black" points="684.68,-168.5 684.68,-187.5 759.68,-187.5 759.68,-168.5 684.68,-168.5"/>
<text text-anchor="middle" x="722.18" y="-175.5" font-family="Helvetica,sans-Serif" font-size="10.00">freetds/tds.h</text>
</a>
</g>
</g>
<!-- Node0&#45;&gt;Node3 -->
<g id="edge3" class="edge"><title>Node0&#45;&gt;Node3</title>
<path fill="none" stroke="midnightblue" d="M791.844,-224.324C779.018,-215.979 759.395,-203.212 744.24,-193.352"/>
<polygon fill="midnightblue" stroke="midnightblue" points="745.773,-190.174 735.482,-187.655 741.955,-196.042 745.773,-190.174"/>
</g>
<!-- Node14 -->
<g id="node15" class="node"><title>Node14</title>
<g id="a_node15"><a xlink:href="a00464_source.html" target="_top" xlink:title="freetds/utils/string.h">
<polygon fill="white" stroke="black" points="220.18,-112.5 220.18,-131.5 328.18,-131.5 328.18,-112.5 220.18,-112.5"/>
<text text-anchor="middle" x="274.18" y="-119.5" font-family="Helvetica,sans-Serif" font-size="10.00">freetds/utils/string.h</text>
</a>
</g>
</g>
<!-- Node0&#45;&gt;Node14 -->
<g id="edge36" class="edge"><title>Node0&#45;&gt;Node14</title>
<path fill="none" stroke="midnightblue" d="M763.955,-224.46C668.094,-204.602 430.393,-155.361 325.414,-133.613"/>
<polygon fill="midnightblue" stroke="midnightblue" points="325.88,-130.136 315.378,-131.535 324.46,-136.99 325.88,-130.136"/>
</g>
<!-- Node17 -->
<g id="node18" class="node"><title>Node17</title>
<g id="a_node18"><a xlink:href="a00485_source.html" target="_top" xlink:title="replacements.h">
<polygon fill="white" stroke="black" points="960.68,-112.5 960.68,-131.5 1049.68,-131.5 1049.68,-112.5 960.68,-112.5"/>
<text text-anchor="middle" x="1005.18" y="-119.5" font-family="Helvetica,sans-Serif" font-size="10.00">replacements.h</text>
</a>
</g>
</g>
<!-- Node0&#45;&gt;Node17 -->
<g id="edge48" class="edge"><title>Node0&#45;&gt;Node17</title>
<path fill="none" stroke="midnightblue" d="M820.873,-224.368C855.559,-205.292 938.957,-159.422 980.624,-136.505"/>
<polygon fill="midnightblue" stroke="midnightblue" points="982.484,-139.477 989.559,-131.591 979.11,-133.344 982.484,-139.477"/>
</g>
<!-- Node21 -->
<g id="node22" class="node"><title>Node21</title>
<g id="a_node22"><a xlink:href="a00395_source.html" target="_top" xlink:title="freetds/convert.h">
<polygon fill="white" stroke="black" points="26.1798,-56.5 26.1798,-75.5 122.18,-75.5 122.18,-56.5 26.1798,-56.5"/>
<text text-anchor="middle" x="74.1798" y="-63.5" font-family="Helvetica,sans-Serif" font-size="10.00">freetds/convert.h</text>
</a>
</g>
</g>
<!-- Node0&#45;&gt;Node21 -->
<g id="edge37" class="edge"><title>Node0&#45;&gt;Node21</title>
<path fill="none" stroke="midnightblue" d="M762.28,-232.83C645.896,-231.867 326.422,-225.761 229.18,-188 169.481,-164.818 114.044,-110.637 88.6794,-83.336"/>
<polygon fill="midnightblue" stroke="midnightblue" points="91.1248,-80.8233 81.8017,-75.7905 85.9514,-85.5388 91.1248,-80.8233"/>
</g>
<!-- Node22 -->
<g id="node23" class="node"><title>Node22</title>
<g id="a_node23"><a xlink:href="a00404_source.html" target="_top" xlink:title="freetds/iconv.h">
<polygon fill="white" stroke="black" points="140.18,-56.5 140.18,-75.5 226.18,-75.5 226.18,-56.5 140.18,-56.5"/>
<text text-anchor="middle" x="183.18" y="-63.5" font-family="Helvetica,sans-Serif" font-size="10.00">freetds/iconv.h</text>
</a>
</g>
</g>
<!-- Node0&#45;&gt;Node22 -->
<g id="edge40" class="edge"><title>Node0&#45;&gt;Node22</title>
<path fill="none" stroke="midnightblue" d="M762.607,-232.842C651.694,-231.893 356.273,-225.788 267.18,-188 232.384,-173.242 223.742,-163.713 203.18,-132 194.047,-117.914 188.889,-99.4233 186.108,-85.7663"/>
<polygon fill="midnightblue" stroke="midnightblue" points="189.502,-84.8618 184.297,-75.6341 182.612,-86.094 189.502,-84.8618"/>
</g>
<!-- Node23 -->
<g id="node24" class="node"><title>Node23</title>
<g id="a_node24"><a xlink:href="a00389_source.html" target="_top" xlink:title="freetds/checks.h">
<polygon fill="white" stroke="black" points="244.18,-56.5 244.18,-75.5 338.18,-75.5 338.18,-56.5 244.18,-56.5"/>
<text text-anchor="middle" x="291.18" y="-63.5" font-family="Helvetica,sans-Serif" font-size="10.00">freetds/checks.h</text>
</a>
</g>
</g>
<!-- Node0&#45;&gt;Node23 -->
<g id="edge43" class="edge"><title>Node0&#45;&gt;Node23</title>
<path fill="none" stroke="midnightblue" d="M762.607,-232.646C638.423,-230.611 280.974,-217.316 211.18,-132 193.568,-110.471 226.832,-91.124 255.686,-79.2453"/>
<polygon fill="midnightblue" stroke="midnightblue" points="257.187,-82.4163 265.223,-75.5108 254.635,-75.8983 257.187,-82.4163"/>
</g>
<!-- Node24 -->
<g id="node25" class="node"><title>Node24</title>
<g id="a_node25"><a xlink:href="a00386_source.html" target="_top" xlink:title="freetds/bytes.h">
<polygon fill="white" stroke="black" points="1226.18,-168.5 1226.18,-187.5 1312.18,-187.5 1312.18,-168.5 1226.18,-168.5"/>
<text text-anchor="middle" x="1269.18" y="-175.5" font-family="Helvetica,sans-Serif" font-size="10.00">freetds/bytes.h</text>
</a>
</g>
</g>
<!-- Node0&#45;&gt;Node24 -->
<g id="edge46" class="edge"><title>Node0&#45;&gt;Node24</title>
<path fill="none" stroke="midnightblue" d="M847.696,-229.241C920.799,-222.586 1075.24,-207.683 1215.97,-188.092"/>
<polygon fill="midnightblue" stroke="midnightblue" points="1216.67,-191.529 1226.08,-186.673 1215.69,-184.597 1216.67,-191.529"/>
</g>
<!-- Node25 -->
<g id="node26" class="node"><title>Node25</title>
<g id="a_node26"><a xlink:href="a00380_source.html" target="_top" xlink:title="freetds/alloca.h">
<polygon fill="white" stroke="black" points="1330.68,-168.5 1330.68,-187.5 1419.68,-187.5 1419.68,-168.5 1330.68,-168.5"/>
<text text-anchor="middle" x="1375.18" y="-175.5" font-family="Helvetica,sans-Serif" font-size="10.00">freetds/alloca.h</text>
</a>
</g>
</g>
<!-- Node0&#45;&gt;Node25 -->
<g id="edge47" class="edge"><title>Node0&#45;&gt;Node25</title>
<path fill="none" stroke="midnightblue" d="M847.774,-230.416C934.616,-224.905 1138.56,-210.714 1320.42,-187.997"/>
<polygon fill="midnightblue" stroke="midnightblue" points="1320.95,-191.458 1330.43,-186.735 1320.07,-184.513 1320.95,-191.458"/>
</g>
<!-- Node4 -->
<g id="node5" class="node"><title>Node4</title>
<polygon fill="white" stroke="#bfbfbf" points="507.68,-56.5 507.68,-75.5 562.68,-75.5 562.68,-56.5 507.68,-56.5"/>
<text text-anchor="middle" x="535.18" y="-63.5" font-family="Helvetica,sans-Serif" font-size="10.00">stdarg.h</text>
</g>
<!-- Node3&#45;&gt;Node4 -->
<g id="edge4" class="edge"><title>Node3&#45;&gt;Node4</title>
<path fill="none" stroke="midnightblue" d="M684.657,-177.364C610.186,-177.201 447.89,-172.131 413.18,-132 407.365,-125.277 408.097,-119.292 413.18,-112 418.305,-104.646 464.028,-89.0968 498.003,-78.3512"/>
<polygon fill="midnightblue" stroke="midnightblue" points="499.174,-81.652 507.67,-75.322 497.081,-74.9723 499.174,-81.652"/>
</g>
<!-- Node5 -->
<g id="node6" class="node"><title>Node5</title>
<polygon fill="white" stroke="#bfbfbf" points="422.68,-112.5 422.68,-131.5 469.68,-131.5 469.68,-112.5 422.68,-112.5"/>
<text text-anchor="middle" x="446.18" y="-119.5" font-family="Helvetica,sans-Serif" font-size="10.00">stdio.h</text>
</g>
<!-- Node3&#45;&gt;Node5 -->
<g id="edge5" class="edge"><title>Node3&#45;&gt;Node5</title>
<path fill="none" stroke="midnightblue" d="M684.515,-171.023C638.546,-163.51 558.261,-149.684 479.948,-132.014"/>
<polygon fill="midnightblue" stroke="midnightblue" points="480.441,-128.537 469.913,-129.726 478.885,-135.362 480.441,-128.537"/>
</g>
<!-- Node6 -->
<g id="node7" class="node"><title>Node6</title>
<g id="a_node7"><a xlink:href="a00437_source.html" target="_top" xlink:title="time.h">
<polygon fill="white" stroke="black" points="488.18,-112.5 488.18,-131.5 532.18,-131.5 532.18,-112.5 488.18,-112.5"/>
<text text-anchor="middle" x="510.18" y="-119.5" font-family="Helvetica,sans-Serif" font-size="10.00">time.h</text>
</a>
</g>
</g>
<!-- Node3&#45;&gt;Node6 -->
<g id="edge6" class="edge"><title>Node3&#45;&gt;Node6</title>
<path fill="none" stroke="midnightblue" d="M688.588,-168.444C648.396,-158.206 581.602,-141.192 542.145,-131.142"/>
<polygon fill="midnightblue" stroke="midnightblue" points="542.815,-127.701 532.261,-128.624 541.087,-134.484 542.815,-127.701"/>
</g>
<!-- Node7 -->
<g id="node8" class="node"><title>Node7</title>
<g id="a_node8"><a xlink:href="a00470_source.html" target="_top" xlink:title="freetds/version.h">
<polygon fill="white" stroke="black" points="568.68,-112.5 568.68,-131.5 663.68,-131.5 663.68,-112.5 568.68,-112.5"/>
<text text-anchor="middle" x="616.18" y="-119.5" font-family="Helvetica,sans-Serif" font-size="10.00">freetds/version.h</text>
</a>
</g>
</g>
<!-- Node3&#45;&gt;Node7 -->
<g id="edge8" class="edge"><title>Node3&#45;&gt;Node7</title>
<path fill="none" stroke="midnightblue" d="M705.149,-168.324C688.15,-159.664 661.804,-146.242 642.187,-136.249"/>
<polygon fill="midnightblue" stroke="midnightblue" points="643.667,-133.075 633.168,-131.655 640.49,-139.312 643.667,-133.075"/>
</g>
<!-- Node8 -->
<g id="node9" class="node"><title>Node8</title>
<g id="a_node9"><a xlink:href="a00506_source.html" target="_top" xlink:title="tds_sysdep_public.h">
<polygon fill="white" stroke="black" points="1159.68,-56.5 1159.68,-75.5 1270.68,-75.5 1270.68,-56.5 1159.68,-56.5"/>
<text text-anchor="middle" x="1215.18" y="-63.5" font-family="Helvetica,sans-Serif" font-size="10.00">tds_sysdep_public.h</text>
</a>
</g>
</g>
<!-- Node3&#45;&gt;Node8 -->
<g id="edge9" class="edge"><title>Node3&#45;&gt;Node8</title>
<path fill="none" stroke="midnightblue" d="M759.843,-175.141C822.65,-171.338 952.328,-160.48 1058.18,-132 1105.99,-119.136 1158.59,-95.2009 1189.15,-80.2407"/>
<polygon fill="midnightblue" stroke="midnightblue" points="1190.86,-83.3006 1198.27,-75.7242 1187.75,-77.0285 1190.86,-83.3006"/>
</g>
<!-- Node10 -->
<g id="node11" class="node"><title>Node10</title>
<g id="a_node11"><a xlink:href="a00428_source.html" target="_top" xlink:title="freetds/sysdep_private.h">
<polygon fill="white" stroke="black" points="619.68,-56.5 619.68,-75.5 752.68,-75.5 752.68,-56.5 619.68,-56.5"/>
<text text-anchor="middle" x="686.18" y="-63.5" font-family="Helvetica,sans-Serif" font-size="10.00">freetds/sysdep_private.h</text>
</a>
</g>
</g>
<!-- Node3&#45;&gt;Node10 -->
<g id="edge11" class="edge"><title>Node3&#45;&gt;Node10</title>
<path fill="none" stroke="midnightblue" d="M759.805,-176.349C825.318,-173.897 949.59,-162.646 908.18,-112 898.542,-100.212 819.31,-86.2167 758.22,-76.9994"/>
<polygon fill="midnightblue" stroke="midnightblue" points="758.608,-73.5186 748.201,-75.5056 757.575,-80.4421 758.608,-73.5186"/>
</g>
<!-- Node11 -->
<g id="node12" class="node"><title>Node11</title>
<g id="a_node12"><a xlink:href="a00434_source.html" target="_top" xlink:title="freetds/thread.h">
<polygon fill="white" stroke="black" points="1153.18,-112.5 1153.18,-131.5 1245.18,-131.5 1245.18,-112.5 1153.18,-112.5"/>
<text text-anchor="middle" x="1199.18" y="-119.5" font-family="Helvetica,sans-Serif" font-size="10.00">freetds/thread.h</text>
</a>
</g>
</g>
<!-- Node3&#45;&gt;Node11 -->
<g id="edge12" class="edge"><title>Node3&#45;&gt;Node11</title>
<path fill="none" stroke="midnightblue" d="M759.782,-172.858C830.807,-165.017 989.56,-147.409 1123.18,-132 1129.5,-131.271 1136.12,-130.499 1142.7,-129.727"/>
<polygon fill="midnightblue" stroke="midnightblue" points="1143.44,-133.164 1152.97,-128.518 1142.63,-126.212 1143.44,-133.164"/>
</g>
<!-- Node12 -->
<g id="node13" class="node"><title>Node12</title>
<g id="a_node13"><a xlink:href="a00383_source.html" target="_top" xlink:title="freetds/bool.h">
<polygon fill="white" stroke="black" points="682.18,-112.5 682.18,-131.5 762.18,-131.5 762.18,-112.5 682.18,-112.5"/>
<text text-anchor="middle" x="722.18" y="-119.5" font-family="Helvetica,sans-Serif" font-size="10.00">freetds/bool.h</text>
</a>
</g>
</g>
<!-- Node3&#45;&gt;Node12 -->
<g id="edge14" class="edge"><title>Node3&#45;&gt;Node12</title>
<path fill="none" stroke="midnightblue" d="M722.18,-168.083C722.18,-161.006 722.18,-150.861 722.18,-141.986"/>
<polygon fill="midnightblue" stroke="midnightblue" points="725.68,-141.751 722.18,-131.751 718.68,-141.751 725.68,-141.751"/>
</g>
<!-- Node13 -->
<g id="node14" class="node"><title>Node13</title>
<g id="a_node14"><a xlink:href="a00407_source.html" target="_top" xlink:title="freetds/macros.h">
<polygon fill="white" stroke="black" points="394.68,-56.5 394.68,-75.5 489.68,-75.5 489.68,-56.5 394.68,-56.5"/>
<text text-anchor="middle" x="442.18" y="-63.5" font-family="Helvetica,sans-Serif" font-size="10.00">freetds/macros.h</text>
</a>
</g>
</g>
<!-- Node3&#45;&gt;Node13 -->
<g id="edge15" class="edge"><title>Node3&#45;&gt;Node13</title>
<path fill="none" stroke="midnightblue" d="M684.569,-177.521C608.591,-177.684 440.981,-173.242 405.18,-132 391.987,-116.803 408.33,-96.1828 423.281,-82.2762"/>
<polygon fill="midnightblue" stroke="midnightblue" points="425.594,-84.9028 430.809,-75.6801 420.981,-79.6379 425.594,-84.9028"/>
</g>
<!-- Node3&#45;&gt;Node14 -->
<g id="edge16" class="edge"><title>Node3&#45;&gt;Node14</title>
<path fill="none" stroke="midnightblue" d="M684.673,-172.731C616.469,-164.93 467.587,-147.724 342.18,-132 340.917,-131.842 339.641,-131.681 338.355,-131.518"/>
<polygon fill="midnightblue" stroke="midnightblue" points="338.725,-128.037 328.362,-130.239 337.836,-134.98 338.725,-128.037"/>
</g>
<!-- Node15 -->
<g id="node16" class="node"><title>Node15</title>
<g id="a_node16"><a xlink:href="a00419_source.html" target="_top" xlink:title="freetds/pushvis.h">
<polygon fill="white" stroke="black" points="430.18,-0.5 430.18,-19.5 526.18,-19.5 526.18,-0.5 430.18,-0.5"/>
<text text-anchor="middle" x="478.18" y="-7.5" font-family="Helvetica,sans-Serif" font-size="10.00">freetds/pushvis.h</text>
</a>
</g>
</g>
<!-- Node3&#45;&gt;Node15 -->
<g id="edge33" class="edge"><title>Node3&#45;&gt;Node15</title>
<path fill="none" stroke="midnightblue" d="M759.969,-173.959C815.788,-168.077 910.11,-151.997 875.18,-112 836.087,-67.2376 666.877,-93.8144 610.18,-76 591.596,-70.1609 588.615,-64.6873 571.18,-56 549.033,-44.9649 523.748,-32.7554 505.139,-23.8417"/>
<polygon fill="midnightblue" stroke="midnightblue" points="506.6,-20.6606 496.069,-19.5045 503.58,-26.9759 506.6,-20.6606"/>
</g>
<!-- Node16 -->
<g id="node17" class="node"><title>Node16</title>
<g id="a_node17"><a xlink:href="a00413_source.html" target="_top" xlink:title="freetds/popvis.h">
<polygon fill="white" stroke="black" points="191.18,-0.5 191.18,-19.5 283.18,-19.5 283.18,-0.5 191.18,-0.5"/>
<text text-anchor="middle" x="237.18" y="-7.5" font-family="Helvetica,sans-Serif" font-size="10.00">freetds/popvis.h</text>
</a>
</g>
</g>
<!-- Node3&#45;&gt;Node16 -->
<g id="edge35" class="edge"><title>Node3&#45;&gt;Node16</title>
<path fill="none" stroke="midnightblue" d="M684.377,-175.949C599.259,-173.087 386.326,-163.152 211.18,-132 117.345,-115.31 62.108,-151.682 4.17975,-76 -1.22296,-68.9415 -1.4784,-62.8555 4.17975,-56 26.1648,-29.3626 119.298,-18.3144 180.952,-13.8614"/>
<polygon fill="midnightblue" stroke="midnightblue" points="181.202,-17.3527 190.939,-13.1775 180.723,-10.369 181.202,-17.3527"/>
</g>
<!-- Node3&#45;&gt;Node17 -->
<g id="edge20" class="edge"><title>Node3&#45;&gt;Node17</title>
<path fill="none" stroke="midnightblue" d="M759.76,-169.829C808.593,-160.511 894.228,-144.171 950.324,-133.467"/>
<polygon fill="midnightblue" stroke="midnightblue" points="951.272,-136.849 960.439,-131.537 949.96,-129.974 951.272,-136.849"/>
</g>
<!-- Node20 -->
<g id="node21" class="node"><title>Node20</title>
<g id="a_node21"><a xlink:href="a00416_source.html" target="_top" xlink:title="freetds/proto.h">
<polygon fill="white" stroke="black" points="780.18,-112.5 780.18,-131.5 866.18,-131.5 866.18,-112.5 780.18,-112.5"/>
<text text-anchor="middle" x="823.18" y="-119.5" font-family="Helvetica,sans-Serif" font-size="10.00">freetds/proto.h</text>
</a>
</g>
</g>
<!-- Node3&#45;&gt;Node20 -->
<g id="edge34" class="edge"><title>Node3&#45;&gt;Node20</title>
<path fill="none" stroke="midnightblue" d="M738.407,-168.324C754.531,-159.703 779.48,-146.364 798.144,-136.386"/>
<polygon fill="midnightblue" stroke="midnightblue" points="799.824,-139.456 806.993,-131.655 796.524,-133.283 799.824,-139.456"/>
</g>
<!-- Node6&#45;&gt;Node6 -->
<g id="edge7" class="edge"><title>Node6&#45;&gt;Node6</title>
<path fill="none" stroke="midnightblue" d="M527.448,-131.575C538.967,-134.27 550.18,-131.078 550.18,-122 550.18,-115.759 544.88,-112.3 537.825,-111.623"/>
<polygon fill="midnightblue" stroke="midnightblue" points="537.149,-108.165 527.448,-112.425 537.688,-115.144 537.149,-108.165"/>
</g>
<!-- Node9 -->
<g id="node10" class="node"><title>Node9</title>
<polygon fill="white" stroke="#bfbfbf" points="1192.68,-0.5 1192.68,-19.5 1237.68,-19.5 1237.68,-0.5 1192.68,-0.5"/>
<text text-anchor="middle" x="1215.18" y="-7.5" font-family="Helvetica,sans-Serif" font-size="10.00">float.h</text>
</g>
<!-- Node8&#45;&gt;Node9 -->
<g id="edge10" class="edge"><title>Node8&#45;&gt;Node9</title>
<path fill="none" stroke="midnightblue" d="M1215.18,-56.083C1215.18,-49.0059 1215.18,-38.8611 1215.18,-29.9865"/>
<polygon fill="midnightblue" stroke="midnightblue" points="1218.68,-29.751 1215.18,-19.7511 1211.68,-29.7511 1218.68,-29.751"/>
</g>
<!-- Node11&#45;&gt;Node8 -->
<g id="edge13" class="edge"><title>Node11&#45;&gt;Node8</title>
<path fill="none" stroke="midnightblue" d="M1201.82,-112.083C1203.97,-104.849 1207.06,-94.4087 1209.73,-85.3968"/>
<polygon fill="midnightblue" stroke="midnightblue" points="1213.1,-86.3334 1212.59,-75.7511 1206.39,-84.3447 1213.1,-86.3334"/>
</g>
<!-- Node14&#45;&gt;Node13 -->
<g id="edge17" class="edge"><title>Node14&#45;&gt;Node13</title>
<path fill="none" stroke="midnightblue" d="M300.8,-112.444C329.185,-103.32 374.316,-88.8133 405.932,-78.6509"/>
<polygon fill="midnightblue" stroke="midnightblue" points="407.235,-81.9087 415.684,-75.5164 405.093,-75.2445 407.235,-81.9087"/>
</g>
<!-- Node14&#45;&gt;Node15 -->
<g id="edge18" class="edge"><title>Node14&#45;&gt;Node15</title>
<path fill="none" stroke="midnightblue" d="M287.997,-112.432C308.797,-99.6437 349.519,-75.0304 385.18,-56 406.74,-44.4941 431.694,-32.4887 450.322,-23.7748"/>
<polygon fill="midnightblue" stroke="midnightblue" points="451.843,-26.9277 459.435,-19.5381 448.892,-20.5801 451.843,-26.9277"/>
</g>
<!-- Node14&#45;&gt;Node16 -->
<g id="edge19" class="edge"><title>Node14&#45;&gt;Node16</title>
<path fill="none" stroke="midnightblue" d="M220.151,-115.242C148.661,-107.072 30.1093,-91.3902 17.1798,-76 -29.4034,-20.5515 101.184,-11.0789 180.757,-10.2441"/>
<polygon fill="midnightblue" stroke="midnightblue" points="181.167,-13.7417 191.145,-10.1805 181.124,-6.74185 181.167,-13.7417"/>
</g>
<!-- Node17&#45;&gt;Node4 -->
<g id="edge21" class="edge"><title>Node17&#45;&gt;Node4</title>
<path fill="none" stroke="midnightblue" d="M960.446,-115.992C887.213,-107.774 737.174,-90.8533 610.18,-76 598.091,-74.586 584.909,-73.0144 573.016,-71.5852"/>
<polygon fill="midnightblue" stroke="midnightblue" points="573.304,-68.0946 562.957,-70.3735 572.466,-75.0443 573.304,-68.0946"/>
</g>
<!-- Node17&#45;&gt;Node8 -->
<g id="edge22" class="edge"><title>Node17&#45;&gt;Node8</title>
<path fill="none" stroke="midnightblue" d="M1038.45,-112.444C1074.63,-103.142 1132.56,-88.246 1172.16,-78.062"/>
<polygon fill="midnightblue" stroke="midnightblue" points="1173.25,-81.3966 1182.06,-75.5164 1171.5,-74.6172 1173.25,-81.3966"/>
</g>
<!-- Node17&#45;&gt;Node10 -->
<g id="edge23" class="edge"><title>Node17&#45;&gt;Node10</title>
<path fill="none" stroke="midnightblue" d="M960.488,-113.435C904.694,-103.99 809.027,-87.7955 746.702,-77.2452"/>
<polygon fill="midnightblue" stroke="midnightblue" points="747.06,-73.756 736.616,-75.5378 745.891,-80.6578 747.06,-73.756"/>
</g>
<!-- Node17&#45;&gt;Node15 -->
<g id="edge31" class="edge"><title>Node17&#45;&gt;Node15</title>
<path fill="none" stroke="midnightblue" d="M1005.49,-112.19C1005.45,-97.9012 1003.08,-69.8755 986.18,-56 952.067,-27.9951 662.91,-16.3156 536.704,-12.5198"/>
<polygon fill="midnightblue" stroke="midnightblue" points="536.554,-9.01398 526.455,-12.2182 536.348,-16.0109 536.554,-9.01398"/>
</g>
<!-- Node17&#45;&gt;Node16 -->
<g id="edge32" class="edge"><title>Node17&#45;&gt;Node16</title>
<path fill="none" stroke="midnightblue" d="M960.403,-114.788C918.004,-108.079 853.001,-95.6325 799.18,-76 781.25,-69.4598 779.495,-61.3673 761.18,-56 717.182,-43.1062 419.664,-22.7442 293.526,-14.5699"/>
<polygon fill="midnightblue" stroke="midnightblue" points="293.508,-11.0616 283.303,-13.9099 293.057,-18.047 293.508,-11.0616"/>
</g>
<!-- Node18 -->
<g id="node19" class="node"><title>Node18</title>
<g id="a_node19"><a xlink:href="a00482_source.html" target="_top" xlink:title="replacements/readpassphrase.h">
<polygon fill="white" stroke="black" points="808.68,-56.5 808.68,-75.5 977.68,-75.5 977.68,-56.5 808.68,-56.5"/>
<text text-anchor="middle" x="893.18" y="-63.5" font-family="Helvetica,sans-Serif" font-size="10.00">replacements/readpassphrase.h</text>
</a>
</g>
</g>
<!-- Node17&#45;&gt;Node18 -->
<g id="edge24" class="edge"><title>Node17&#45;&gt;Node18</title>
<path fill="none" stroke="midnightblue" d="M987.185,-112.324C969.142,-103.625 941.133,-90.1202 920.377,-80.113"/>
<polygon fill="midnightblue" stroke="midnightblue" points="921.658,-76.8449 911.13,-75.6545 918.617,-83.1502 921.658,-76.8449"/>
</g>
<!-- Node19 -->
<g id="node20" class="node"><title>Node19</title>
<g id="a_node20"><a xlink:href="a00479.html" target="_top" xlink:title="Provide poll call where missing. ">
<polygon fill="white" stroke="black" points="1033.18,-56.5 1033.18,-75.5 1141.18,-75.5 1141.18,-56.5 1033.18,-56.5"/>
<text text-anchor="middle" x="1087.18" y="-63.5" font-family="Helvetica,sans-Serif" font-size="10.00">replacements/poll.h</text>
</a>
</g>
</g>
<!-- Node17&#45;&gt;Node19 -->
<g id="edge27" class="edge"><title>Node17&#45;&gt;Node19</title>
<path fill="none" stroke="midnightblue" d="M1018.35,-112.324C1031.03,-103.979 1050.41,-91.2122 1065.39,-81.3524"/>
<polygon fill="midnightblue" stroke="midnightblue" points="1067.61,-84.0776 1074.04,-75.6545 1063.76,-78.2313 1067.61,-84.0776"/>
</g>
<!-- Node18&#45;&gt;Node15 -->
<g id="edge25" class="edge"><title>Node18&#45;&gt;Node15</title>
<path fill="none" stroke="midnightblue" d="M827.422,-56.4435C747.257,-46.0124 613.025,-28.5461 536.427,-18.5791"/>
<polygon fill="midnightblue" stroke="midnightblue" points="536.836,-15.103 526.468,-17.2833 535.933,-22.0445 536.836,-15.103"/>
</g>
<!-- Node18&#45;&gt;Node16 -->
<g id="edge26" class="edge"><title>Node18&#45;&gt;Node16</title>
<path fill="none" stroke="midnightblue" d="M808.46,-57.1605C803.969,-56.7634 799.52,-56.3743 795.18,-56 611.88,-40.1925 394.552,-23.1571 293.749,-15.3532"/>
<polygon fill="midnightblue" stroke="midnightblue" points="293.731,-11.8415 283.491,-14.5599 293.192,-18.8207 293.731,-11.8415"/>
</g>
<!-- Node19&#45;&gt;Node1 -->
<g id="edge28" class="edge"><title>Node19&#45;&gt;Node1</title>
<path fill="none" stroke="midnightblue" d="M1119.35,-56.4435C1155.98,-46.6975 1215.71,-30.8101 1253.96,-20.6359"/>
<polygon fill="midnightblue" stroke="midnightblue" points="1254.9,-24.0069 1263.66,-18.0537 1253.1,-17.2421 1254.9,-24.0069"/>
</g>
<!-- Node19&#45;&gt;Node15 -->
<g id="edge29" class="edge"><title>Node19&#45;&gt;Node15</title>
<path fill="none" stroke="midnightblue" d="M1033.02,-57.5902C1028.34,-57.0236 1023.68,-56.4846 1019.18,-56 843.83,-37.1145 635.766,-21.7943 536.506,-14.9179"/>
<polygon fill="midnightblue" stroke="midnightblue" points="536.6,-11.4161 526.383,-14.2198 536.119,-18.3996 536.6,-11.4161"/>
</g>
<!-- Node19&#45;&gt;Node16 -->
<g id="edge30" class="edge"><title>Node19&#45;&gt;Node16</title>
<path fill="none" stroke="midnightblue" d="M1032.95,-59.8777C1017.82,-58.5272 1001.37,-57.1325 986.18,-56 727.465,-36.7054 417.995,-20.1974 293.308,-13.8173"/>
<polygon fill="midnightblue" stroke="midnightblue" points="293.401,-10.3175 283.235,-13.3033 293.044,-17.3084 293.401,-10.3175"/>
</g>
<!-- Node21&#45;&gt;Node15 -->
<g id="edge38" class="edge"><title>Node21&#45;&gt;Node15</title>
<path fill="none" stroke="midnightblue" d="M122.368,-57.2955C125.348,-56.8487 128.304,-56.4134 131.18,-56 232.555,-41.4262 350.905,-26.5308 419.903,-18.0584"/>
<polygon fill="midnightblue" stroke="midnightblue" points="420.63,-21.4956 430.13,-16.8053 419.778,-14.5476 420.63,-21.4956"/>
</g>
<!-- Node21&#45;&gt;Node16 -->
<g id="edge39" class="edge"><title>Node21&#45;&gt;Node16</title>
<path fill="none" stroke="midnightblue" d="M100.008,-56.4435C127.429,-47.3591 170.957,-32.9388 201.612,-22.7831"/>
<polygon fill="midnightblue" stroke="midnightblue" points="203.081,-25.9837 211.473,-19.5164 200.879,-19.3389 203.081,-25.9837"/>
</g>
<!-- Node22&#45;&gt;Node15 -->
<g id="edge41" class="edge"><title>Node22&#45;&gt;Node15</title>
<path fill="none" stroke="midnightblue" d="M226.391,-57.0901C278.024,-47.6387 364.563,-31.7976 421.515,-21.3725"/>
<polygon fill="midnightblue" stroke="midnightblue" points="422.234,-24.7992 431.44,-19.5558 420.973,-17.9136 422.234,-24.7992"/>
</g>
<!-- Node22&#45;&gt;Node16 -->
<g id="edge42" class="edge"><title>Node22&#45;&gt;Node16</title>
<path fill="none" stroke="midnightblue" d="M192.097,-56.083C199.96,-48.2195 211.611,-36.5688 221.099,-27.0813"/>
<polygon fill="midnightblue" stroke="midnightblue" points="223.832,-29.2971 228.429,-19.7511 218.883,-24.3473 223.832,-29.2971"/>
</g>
<!-- Node23&#45;&gt;Node15 -->
<g id="edge44" class="edge"><title>Node23&#45;&gt;Node15</title>
<path fill="none" stroke="midnightblue" d="M320.81,-56.4435C352.68,-47.2406 403.513,-32.5617 438.744,-22.3879"/>
<polygon fill="midnightblue" stroke="midnightblue" points="440.051,-25.6534 448.688,-19.5164 438.109,-18.9282 440.051,-25.6534"/>
</g>
<!-- Node23&#45;&gt;Node16 -->
<g id="edge45" class="edge"><title>Node23&#45;&gt;Node16</title>
<path fill="none" stroke="midnightblue" d="M282.263,-56.083C274.399,-48.2195 262.749,-36.5688 253.261,-27.0813"/>
<polygon fill="midnightblue" stroke="midnightblue" points="255.477,-24.3473 245.931,-19.7511 250.527,-29.2971 255.477,-24.3473"/>
</g>
</g>
</svg>
