<?xml version="1.0" encoding="UTF-8" standalone="no"?>
<!DOCTYPE svg PUBLIC "-//W3C//DTD SVG 1.1//EN"
 "http://www.w3.org/Graphics/SVG/1.1/DTD/svg11.dtd">
<!-- Generated by graphviz version 2.38.0 (20140413.2041)
 -->
<!-- Title: tdsdump_open Pages: 1 -->
<svg width="284pt" height="28pt"
 viewBox="0.00 0.00 284.00 28.00" xmlns="http://www.w3.org/2000/svg" xmlns:xlink="http://www.w3.org/1999/xlink">
<g id="graph0" class="graph" transform="scale(1 1) rotate(0) translate(4 24)">
<title>tdsdump_open</title>
<polygon fill="white" stroke="none" points="-4,4 -4,-24 280,-24 280,4 -4,4"/>
<!-- Node253 -->
<g id="node1" class="node"><title>Node253</title>
<polygon fill="#bfbfbf" stroke="black" points="0,-0.5 0,-19.5 86,-19.5 86,-0.5 0,-0.5"/>
<text text-anchor="middle" x="43" y="-7.5" font-family="Helvetica,sans-Serif" font-size="10.00">tdsdump_open</text>
</g>
<!-- Node254 -->
<g id="node2" class="node"><title>Node254</title>
<g id="a_node2"><a xlink:href="a00545.html#ga2c99ec565452279e9a382451d89642eb" target="_top" xlink:title="Form a connection with the server. ">
<polygon fill="white" stroke="black" points="122,-0.5 122,-19.5 188,-19.5 188,-0.5 122,-0.5"/>
<text text-anchor="middle" x="155" y="-7.5" font-family="Helvetica,sans-Serif" font-size="10.00">tdsdbopen</text>
</a>
</g>
</g>
<!-- Node253&#45;&gt;Node254 -->
<g id="edge1" class="edge"><title>Node253&#45;&gt;Node254</title>
<path fill="none" stroke="midnightblue" d="M96.3806,-10C105.121,-10 113.949,-10 121.98,-10"/>
<polygon fill="midnightblue" stroke="midnightblue" points="96.2143,-6.5001 86.2143,-10 96.2142,-13.5001 96.2143,-6.5001"/>
</g>
<!-- Node255 -->
<g id="node3" class="node"><title>Node255</title>
<g id="a_node3"><a xlink:href="a00497.html#ae408d8e1c2ab0767d8bfd26d00d1ff6a" target="_top" xlink:title="Normally not used. ">
<polygon fill="white" stroke="black" points="224,-0.5 224,-19.5 276,-19.5 276,-0.5 224,-0.5"/>
<text text-anchor="middle" x="250" y="-7.5" font-family="Helvetica,sans-Serif" font-size="10.00">dbopen</text>
</a>
</g>
</g>
<!-- Node254&#45;&gt;Node255 -->
<g id="edge2" class="edge"><title>Node254&#45;&gt;Node255</title>
<path fill="none" stroke="midnightblue" d="M198.186,-10C207.005,-10 216.033,-10 223.986,-10"/>
<polygon fill="midnightblue" stroke="midnightblue" points="198.005,-6.5001 188.005,-10 198.005,-13.5001 198.005,-6.5001"/>
</g>
</g>
</svg>
