<?xml version="1.0" encoding="UTF-8" standalone="no"?>
<!DOCTYPE svg PUBLIC "-//W3C//DTD SVG 1.1//EN"
 "http://www.w3.org/Graphics/SVG/1.1/DTD/svg11.dtd">
<!-- Generated by graphviz version 2.38.0 (20140413.2041)
 -->
<!-- Title: include/freetds/tds.h Pages: 1 -->
<svg width="1409pt" height="196pt"
 viewBox="0.00 0.00 1408.50 196.00" xmlns="http://www.w3.org/2000/svg" xmlns:xlink="http://www.w3.org/1999/xlink">
<g id="graph0" class="graph" transform="scale(1 1) rotate(0) translate(4 192)">
<title>include/freetds/tds.h</title>
<polygon fill="white" stroke="none" points="-4,4 -4,-192 1404.5,-192 1404.5,4 -4,4"/>
<!-- Node0 -->
<g id="node1" class="node"><title>Node0</title>
<polygon fill="#bfbfbf" stroke="black" points="794,-168.5 794,-187.5 905,-187.5 905,-168.5 794,-168.5"/>
<text text-anchor="middle" x="849.5" y="-175.5" font-family="Helvetica,sans-Serif" font-size="10.00">include/freetds/tds.h</text>
</g>
<!-- Node1 -->
<g id="node2" class="node"><title>Node1</title>
<polygon fill="white" stroke="#bfbfbf" points="168,-56.5 168,-75.5 223,-75.5 223,-56.5 168,-56.5"/>
<text text-anchor="middle" x="195.5" y="-63.5" font-family="Helvetica,sans-Serif" font-size="10.00">stdarg.h</text>
</g>
<!-- Node0&#45;&gt;Node1 -->
<g id="edge1" class="edge"><title>Node0&#45;&gt;Node1</title>
<path fill="none" stroke="midnightblue" d="M793.717,-175.953C705.305,-173.331 527.999,-164.15 381.5,-132 324.237,-119.434 260.281,-94.5599 224.259,-79.4902"/>
<polygon fill="midnightblue" stroke="midnightblue" points="225.442,-76.1904 214.869,-75.5181 222.715,-82.6374 225.442,-76.1904"/>
</g>
<!-- Node2 -->
<g id="node3" class="node"><title>Node2</title>
<polygon fill="white" stroke="#bfbfbf" points="957,-112.5 957,-131.5 1004,-131.5 1004,-112.5 957,-112.5"/>
<text text-anchor="middle" x="980.5" y="-119.5" font-family="Helvetica,sans-Serif" font-size="10.00">stdio.h</text>
</g>
<!-- Node0&#45;&gt;Node2 -->
<g id="edge2" class="edge"><title>Node0&#45;&gt;Node2</title>
<path fill="none" stroke="midnightblue" d="M870.257,-168.444C891.816,-159.557 925.763,-145.563 950.294,-135.451"/>
<polygon fill="midnightblue" stroke="midnightblue" points="951.928,-138.563 959.84,-131.516 949.261,-132.092 951.928,-138.563"/>
</g>
<!-- Node3 -->
<g id="node4" class="node"><title>Node3</title>
<g id="a_node4"><a xlink:href="a00437_source.html" target="_top" xlink:title="time.h">
<polygon fill="white" stroke="black" points="1022.5,-112.5 1022.5,-131.5 1066.5,-131.5 1066.5,-112.5 1022.5,-112.5"/>
<text text-anchor="middle" x="1044.5" y="-119.5" font-family="Helvetica,sans-Serif" font-size="10.00">time.h</text>
</a>
</g>
</g>
<!-- Node0&#45;&gt;Node3 -->
<g id="edge3" class="edge"><title>Node0&#45;&gt;Node3</title>
<path fill="none" stroke="midnightblue" d="M881.285,-168.428C912.415,-159.999 961.44,-146.638 1012.87,-132.149"/>
<polygon fill="midnightblue" stroke="midnightblue" points="1013.82,-135.517 1022.5,-129.432 1011.92,-128.78 1013.82,-135.517"/>
</g>
<!-- Node4 -->
<g id="node5" class="node"><title>Node4</title>
<g id="a_node5"><a xlink:href="a00470_source.html" target="_top" xlink:title="freetds/version.h">
<polygon fill="white" stroke="black" points="1103,-112.5 1103,-131.5 1198,-131.5 1198,-112.5 1103,-112.5"/>
<text text-anchor="middle" x="1150.5" y="-119.5" font-family="Helvetica,sans-Serif" font-size="10.00">freetds/version.h</text>
</a>
</g>
</g>
<!-- Node0&#45;&gt;Node4 -->
<g id="edge5" class="edge"><title>Node0&#45;&gt;Node4</title>
<path fill="none" stroke="midnightblue" d="M897.194,-168.444C950.364,-158.905 1036.32,-143.483 1093.13,-133.293"/>
<polygon fill="midnightblue" stroke="midnightblue" points="1093.8,-136.727 1103.03,-131.516 1092.57,-129.837 1093.8,-136.727"/>
</g>
<!-- Node5 -->
<g id="node6" class="node"><title>Node5</title>
<g id="a_node6"><a xlink:href="a00506_source.html" target="_top" xlink:title="tds_sysdep_public.h">
<polygon fill="white" stroke="black" points="0,-56.5 0,-75.5 111,-75.5 111,-56.5 0,-56.5"/>
<text text-anchor="middle" x="55.5" y="-63.5" font-family="Helvetica,sans-Serif" font-size="10.00">tds_sysdep_public.h</text>
</a>
</g>
</g>
<!-- Node0&#45;&gt;Node5 -->
<g id="edge6" class="edge"><title>Node0&#45;&gt;Node5</title>
<path fill="none" stroke="midnightblue" d="M793.907,-176.096C610.916,-172.854 37.4677,-160.453 10.5,-132 -4.26738,-116.419 15.8072,-95.6142 33.6618,-81.7844"/>
<polygon fill="midnightblue" stroke="midnightblue" points="36.0902,-84.344 42.0861,-75.609 31.9516,-78.6984 36.0902,-84.344"/>
</g>
<!-- Node7 -->
<g id="node8" class="node"><title>Node7</title>
<g id="a_node8"><a xlink:href="a00428_source.html" target="_top" xlink:title="freetds/sysdep_private.h">
<polygon fill="white" stroke="black" points="631,-56.5 631,-75.5 764,-75.5 764,-56.5 631,-56.5"/>
<text text-anchor="middle" x="697.5" y="-63.5" font-family="Helvetica,sans-Serif" font-size="10.00">freetds/sysdep_private.h</text>
</a>
</g>
</g>
<!-- Node0&#45;&gt;Node7 -->
<g id="edge8" class="edge"><title>Node0&#45;&gt;Node7</title>
<path fill="none" stroke="midnightblue" d="M818.541,-168.365C796.56,-161.158 767.216,-149.259 745.5,-132 729.082,-118.951 715.47,-98.9756 706.986,-84.6135"/>
<polygon fill="midnightblue" stroke="midnightblue" points="709.927,-82.705 701.96,-75.7215 703.833,-86.1494 709.927,-82.705"/>
</g>
<!-- Node8 -->
<g id="node9" class="node"><title>Node8</title>
<g id="a_node9"><a xlink:href="a00434_source.html" target="_top" xlink:title="freetds/thread.h">
<polygon fill="white" stroke="black" points="19.5,-112.5 19.5,-131.5 111.5,-131.5 111.5,-112.5 19.5,-112.5"/>
<text text-anchor="middle" x="65.5" y="-119.5" font-family="Helvetica,sans-Serif" font-size="10.00">freetds/thread.h</text>
</a>
</g>
</g>
<!-- Node0&#45;&gt;Node8 -->
<g id="edge9" class="edge"><title>Node0&#45;&gt;Node8</title>
<path fill="none" stroke="midnightblue" d="M793.956,-175.193C672.465,-170.879 374.096,-158.32 125.5,-132 124.233,-131.866 122.952,-131.724 121.661,-131.576"/>
<polygon fill="midnightblue" stroke="midnightblue" points="121.991,-128.091 111.636,-130.333 121.129,-135.037 121.991,-128.091"/>
</g>
<!-- Node9 -->
<g id="node10" class="node"><title>Node9</title>
<g id="a_node10"><a xlink:href="a00383_source.html" target="_top" xlink:title="freetds/bool.h">
<polygon fill="white" stroke="black" points="1216.5,-112.5 1216.5,-131.5 1296.5,-131.5 1296.5,-112.5 1216.5,-112.5"/>
<text text-anchor="middle" x="1256.5" y="-119.5" font-family="Helvetica,sans-Serif" font-size="10.00">freetds/bool.h</text>
</a>
</g>
</g>
<!-- Node0&#45;&gt;Node9 -->
<g id="edge11" class="edge"><title>Node0&#45;&gt;Node9</title>
<path fill="none" stroke="midnightblue" d="M905.138,-170.994C973.587,-163.386 1093.58,-149.335 1206.24,-132.12"/>
<polygon fill="midnightblue" stroke="midnightblue" points="1207.07,-135.534 1216.42,-130.553 1206,-128.615 1207.07,-135.534"/>
</g>
<!-- Node10 -->
<g id="node11" class="node"><title>Node10</title>
<g id="a_node11"><a xlink:href="a00407_source.html" target="_top" xlink:title="freetds/macros.h">
<polygon fill="white" stroke="black" points="859,-56.5 859,-75.5 954,-75.5 954,-56.5 859,-56.5"/>
<text text-anchor="middle" x="906.5" y="-63.5" font-family="Helvetica,sans-Serif" font-size="10.00">freetds/macros.h</text>
</a>
</g>
</g>
<!-- Node0&#45;&gt;Node10 -->
<g id="edge12" class="edge"><title>Node0&#45;&gt;Node10</title>
<path fill="none" stroke="midnightblue" d="M853.973,-168.368C863.296,-150.376 884.969,-108.55 897.366,-84.6267"/>
<polygon fill="midnightblue" stroke="midnightblue" points="900.555,-86.0805 902.048,-75.5914 894.34,-82.8599 900.555,-86.0805"/>
</g>
<!-- Node11 -->
<g id="node12" class="node"><title>Node11</title>
<g id="a_node12"><a xlink:href="a00464_source.html" target="_top" xlink:title="freetds/utils/string.h">
<polygon fill="white" stroke="black" points="754.5,-112.5 754.5,-131.5 862.5,-131.5 862.5,-112.5 754.5,-112.5"/>
<text text-anchor="middle" x="808.5" y="-119.5" font-family="Helvetica,sans-Serif" font-size="10.00">freetds/utils/string.h</text>
</a>
</g>
</g>
<!-- Node0&#45;&gt;Node11 -->
<g id="edge13" class="edge"><title>Node0&#45;&gt;Node11</title>
<path fill="none" stroke="midnightblue" d="M842.73,-168.083C836.938,-160.455 828.442,-149.264 821.362,-139.941"/>
<polygon fill="midnightblue" stroke="midnightblue" points="823.979,-137.599 815.144,-131.751 818.404,-141.832 823.979,-137.599"/>
</g>
<!-- Node12 -->
<g id="node13" class="node"><title>Node12</title>
<g id="a_node13"><a xlink:href="a00419_source.html" target="_top" xlink:title="freetds/pushvis.h">
<polygon fill="white" stroke="black" points="331.5,-0.5 331.5,-19.5 427.5,-19.5 427.5,-0.5 331.5,-0.5"/>
<text text-anchor="middle" x="379.5" y="-7.5" font-family="Helvetica,sans-Serif" font-size="10.00">freetds/pushvis.h</text>
</a>
</g>
</g>
<!-- Node0&#45;&gt;Node12 -->
<g id="edge30" class="edge"><title>Node0&#45;&gt;Node12</title>
<path fill="none" stroke="midnightblue" d="M793.671,-177.259C694.982,-176.632 483.769,-170.408 310.5,-132 240.212,-116.419 199.679,-135.055 158.5,-76 153.416,-68.7087 152.877,-62.8839 158.5,-56 163.717,-49.6136 257.795,-32.1414 321.507,-20.9419"/>
<polygon fill="midnightblue" stroke="midnightblue" points="322.207,-24.3728 331.454,-19.201 321,-17.4776 322.207,-24.3728"/>
</g>
<!-- Node13 -->
<g id="node14" class="node"><title>Node13</title>
<g id="a_node14"><a xlink:href="a00413_source.html" target="_top" xlink:title="freetds/popvis.h">
<polygon fill="white" stroke="black" points="556.5,-0.5 556.5,-19.5 648.5,-19.5 648.5,-0.5 556.5,-0.5"/>
<text text-anchor="middle" x="602.5" y="-7.5" font-family="Helvetica,sans-Serif" font-size="10.00">freetds/popvis.h</text>
</a>
</g>
</g>
<!-- Node0&#45;&gt;Node13 -->
<g id="edge32" class="edge"><title>Node0&#45;&gt;Node13</title>
<path fill="none" stroke="midnightblue" d="M866.31,-168.296C892.83,-153.489 943.424,-120.608 963.5,-76 967.148,-67.8942 969.384,-62.6628 963.5,-56 943.685,-33.5611 755.219,-19.6769 658.774,-13.9835"/>
<polygon fill="midnightblue" stroke="midnightblue" points="658.796,-10.479 648.61,-13.3938 658.391,-17.4673 658.796,-10.479"/>
</g>
<!-- Node14 -->
<g id="node15" class="node"><title>Node14</title>
<g id="a_node15"><a xlink:href="a00485_source.html" target="_top" xlink:title="replacements.h">
<polygon fill="white" stroke="black" points="391,-112.5 391,-131.5 480,-131.5 480,-112.5 391,-112.5"/>
<text text-anchor="middle" x="435.5" y="-119.5" font-family="Helvetica,sans-Serif" font-size="10.00">replacements.h</text>
</a>
</g>
</g>
<!-- Node0&#45;&gt;Node14 -->
<g id="edge17" class="edge"><title>Node0&#45;&gt;Node14</title>
<path fill="none" stroke="midnightblue" d="M793.666,-169.717C714.139,-159.344 569.158,-140.434 490.237,-130.14"/>
<polygon fill="midnightblue" stroke="midnightblue" points="490.387,-126.63 480.019,-128.807 489.482,-133.571 490.387,-126.63"/>
</g>
<!-- Node18 -->
<g id="node19" class="node"><title>Node18</title>
<g id="a_node19"><a xlink:href="a00416_source.html" target="_top" xlink:title="freetds/proto.h">
<polygon fill="white" stroke="black" points="1314.5,-112.5 1314.5,-131.5 1400.5,-131.5 1400.5,-112.5 1314.5,-112.5"/>
<text text-anchor="middle" x="1357.5" y="-119.5" font-family="Helvetica,sans-Serif" font-size="10.00">freetds/proto.h</text>
</a>
</g>
</g>
<!-- Node0&#45;&gt;Node18 -->
<g id="edge31" class="edge"><title>Node0&#45;&gt;Node18</title>
<path fill="none" stroke="midnightblue" d="M905.106,-172.829C989.214,-166.231 1154.02,-152.172 1304.09,-132.101"/>
<polygon fill="midnightblue" stroke="midnightblue" points="1304.97,-135.514 1314.41,-130.708 1304.03,-128.577 1304.97,-135.514"/>
</g>
<!-- Node3&#45;&gt;Node3 -->
<g id="edge4" class="edge"><title>Node3&#45;&gt;Node3</title>
<path fill="none" stroke="midnightblue" d="M1061.77,-131.575C1073.29,-134.27 1084.5,-131.078 1084.5,-122 1084.5,-115.759 1079.2,-112.3 1072.14,-111.623"/>
<polygon fill="midnightblue" stroke="midnightblue" points="1071.47,-108.165 1061.77,-112.425 1072.01,-115.144 1071.47,-108.165"/>
</g>
<!-- Node6 -->
<g id="node7" class="node"><title>Node6</title>
<polygon fill="white" stroke="#bfbfbf" points="33,-0.5 33,-19.5 78,-19.5 78,-0.5 33,-0.5"/>
<text text-anchor="middle" x="55.5" y="-7.5" font-family="Helvetica,sans-Serif" font-size="10.00">float.h</text>
</g>
<!-- Node5&#45;&gt;Node6 -->
<g id="edge7" class="edge"><title>Node5&#45;&gt;Node6</title>
<path fill="none" stroke="midnightblue" d="M55.5,-56.083C55.5,-49.0059 55.5,-38.8611 55.5,-29.9865"/>
<polygon fill="midnightblue" stroke="midnightblue" points="59.0001,-29.751 55.5,-19.7511 52.0001,-29.7511 59.0001,-29.751"/>
</g>
<!-- Node8&#45;&gt;Node5 -->
<g id="edge10" class="edge"><title>Node8&#45;&gt;Node5</title>
<path fill="none" stroke="midnightblue" d="M63.8487,-112.083C62.5236,-104.927 60.6176,-94.6353 58.9613,-85.6911"/>
<polygon fill="midnightblue" stroke="midnightblue" points="62.383,-84.9466 57.1206,-75.7511 55.5001,-86.2212 62.383,-84.9466"/>
</g>
<!-- Node11&#45;&gt;Node10 -->
<g id="edge14" class="edge"><title>Node11&#45;&gt;Node10</title>
<path fill="none" stroke="midnightblue" d="M824.245,-112.324C839.819,-103.743 863.877,-90.486 881.959,-80.5224"/>
<polygon fill="midnightblue" stroke="midnightblue" points="883.724,-83.546 890.794,-75.6545 880.346,-77.4152 883.724,-83.546"/>
</g>
<!-- Node11&#45;&gt;Node12 -->
<g id="edge15" class="edge"><title>Node11&#45;&gt;Node12</title>
<path fill="none" stroke="midnightblue" d="M806.508,-112.076C802.771,-97.6235 793.238,-69.3677 773.5,-56 746.323,-37.5945 541,-21.6394 438.023,-14.6973"/>
<polygon fill="midnightblue" stroke="midnightblue" points="437.997,-11.188 427.786,-14.0143 437.531,-18.1724 437.997,-11.188"/>
</g>
<!-- Node11&#45;&gt;Node13 -->
<g id="edge16" class="edge"><title>Node11&#45;&gt;Node13</title>
<path fill="none" stroke="midnightblue" d="M811.261,-112.262C814.991,-98.5747 819.759,-71.9922 806.5,-56 787.961,-33.6391 712.758,-21.6432 659.057,-15.7958"/>
<polygon fill="midnightblue" stroke="midnightblue" points="659.272,-12.2994 648.962,-14.7407 658.544,-19.2614 659.272,-12.2994"/>
</g>
<!-- Node14&#45;&gt;Node1 -->
<g id="edge18" class="edge"><title>Node14&#45;&gt;Node1</title>
<path fill="none" stroke="midnightblue" d="M397.471,-112.444C352.469,-102.318 278.003,-85.5632 233.162,-75.4738"/>
<polygon fill="midnightblue" stroke="midnightblue" points="233.774,-72.0243 223.25,-73.2437 232.238,-78.8536 233.774,-72.0243"/>
</g>
<!-- Node14&#45;&gt;Node5 -->
<g id="edge19" class="edge"><title>Node14&#45;&gt;Node5</title>
<path fill="none" stroke="midnightblue" d="M390.792,-114.647C324.137,-105.175 198.306,-87.2935 121.183,-76.3339"/>
<polygon fill="midnightblue" stroke="midnightblue" points="121.492,-72.8428 111.099,-74.901 120.507,-79.7732 121.492,-72.8428"/>
</g>
<!-- Node14&#45;&gt;Node7 -->
<g id="edge20" class="edge"><title>Node14&#45;&gt;Node7</title>
<path fill="none" stroke="midnightblue" d="M477.015,-112.444C522.912,-102.984 596.88,-87.7384 646.326,-77.5472"/>
<polygon fill="midnightblue" stroke="midnightblue" points="647.092,-80.9631 656.18,-75.5164 645.679,-74.1072 647.092,-80.9631"/>
</g>
<!-- Node14&#45;&gt;Node12 -->
<g id="edge28" class="edge"><title>Node14&#45;&gt;Node12</title>
<path fill="none" stroke="midnightblue" d="M390.598,-114.921C346.912,-107.977 285.053,-95.0542 270.5,-76 250.734,-50.1219 290.12,-32.4594 326.946,-22.1515"/>
<polygon fill="midnightblue" stroke="midnightblue" points="327.944,-25.5081 336.714,-19.5637 326.151,-18.7416 327.944,-25.5081"/>
</g>
<!-- Node14&#45;&gt;Node13 -->
<g id="edge29" class="edge"><title>Node14&#45;&gt;Node13</title>
<path fill="none" stroke="midnightblue" d="M480.08,-118.484C512.874,-114.294 556.302,-103.493 583.5,-76 595.505,-63.865 600.004,-44.5875 601.65,-30.1722"/>
<polygon fill="midnightblue" stroke="midnightblue" points="605.164,-30.1236 602.447,-19.8832 598.185,-29.5829 605.164,-30.1236"/>
</g>
<!-- Node15 -->
<g id="node16" class="node"><title>Node15</title>
<g id="a_node16"><a xlink:href="a00482_source.html" target="_top" xlink:title="replacements/readpassphrase.h">
<polygon fill="white" stroke="black" points="406,-56.5 406,-75.5 575,-75.5 575,-56.5 406,-56.5"/>
<text text-anchor="middle" x="490.5" y="-63.5" font-family="Helvetica,sans-Serif" font-size="10.00">replacements/readpassphrase.h</text>
</a>
</g>
</g>
<!-- Node14&#45;&gt;Node15 -->
<g id="edge21" class="edge"><title>Node14&#45;&gt;Node15</title>
<path fill="none" stroke="midnightblue" d="M444.582,-112.083C452.671,-104.141 464.695,-92.3354 474.41,-82.7973"/>
<polygon fill="midnightblue" stroke="midnightblue" points="476.903,-85.2545 481.587,-75.7511 471.999,-80.2595 476.903,-85.2545"/>
</g>
<!-- Node16 -->
<g id="node17" class="node"><title>Node16</title>
<g id="a_node17"><a xlink:href="a00479.html" target="_top" xlink:title="Provide poll call where missing. ">
<polygon fill="white" stroke="black" points="279.5,-56.5 279.5,-75.5 387.5,-75.5 387.5,-56.5 279.5,-56.5"/>
<text text-anchor="middle" x="333.5" y="-63.5" font-family="Helvetica,sans-Serif" font-size="10.00">replacements/poll.h</text>
</a>
</g>
</g>
<!-- Node14&#45;&gt;Node16 -->
<g id="edge24" class="edge"><title>Node14&#45;&gt;Node16</title>
<path fill="none" stroke="midnightblue" d="M419.112,-112.324C402.829,-103.703 377.633,-90.3643 358.784,-80.3855"/>
<polygon fill="midnightblue" stroke="midnightblue" points="360.323,-77.2402 349.847,-75.6545 357.048,-83.4267 360.323,-77.2402"/>
</g>
<!-- Node15&#45;&gt;Node12 -->
<g id="edge22" class="edge"><title>Node15&#45;&gt;Node12</title>
<path fill="none" stroke="midnightblue" d="M472.666,-56.324C454.784,-47.6247 427.025,-34.1202 406.454,-24.113"/>
<polygon fill="midnightblue" stroke="midnightblue" points="407.813,-20.8819 397.29,-19.6545 404.751,-27.1765 407.813,-20.8819"/>
</g>
<!-- Node15&#45;&gt;Node13 -->
<g id="edge23" class="edge"><title>Node15&#45;&gt;Node13</title>
<path fill="none" stroke="midnightblue" d="M508.495,-56.324C526.538,-47.6247 554.547,-34.1202 575.303,-24.113"/>
<polygon fill="midnightblue" stroke="midnightblue" points="577.062,-27.1502 584.55,-19.6545 574.022,-20.8449 577.062,-27.1502"/>
</g>
<!-- Node16&#45;&gt;Node12 -->
<g id="edge26" class="edge"><title>Node16&#45;&gt;Node12</title>
<path fill="none" stroke="midnightblue" d="M341.096,-56.083C347.727,-48.2982 357.521,-36.8015 365.558,-27.3665"/>
<polygon fill="midnightblue" stroke="midnightblue" points="368.225,-29.6332 372.045,-19.7511 362.896,-25.0939 368.225,-29.6332"/>
</g>
<!-- Node16&#45;&gt;Node13 -->
<g id="edge27" class="edge"><title>Node16&#45;&gt;Node13</title>
<path fill="none" stroke="midnightblue" d="M376.124,-56.4435C423.247,-46.9839 499.192,-31.7384 549.959,-21.5472"/>
<polygon fill="midnightblue" stroke="midnightblue" points="550.96,-24.9162 560.076,-19.5164 549.582,-18.0531 550.96,-24.9162"/>
</g>
<!-- Node17 -->
<g id="node18" class="node"><title>Node17</title>
<g id="a_node18"><a xlink:href="a00362_source.html" target="_top" xlink:title="config.h">
<polygon fill="white" stroke="black" points="260,-0.5 260,-19.5 313,-19.5 313,-0.5 260,-0.5"/>
<text text-anchor="middle" x="286.5" y="-7.5" font-family="Helvetica,sans-Serif" font-size="10.00">config.h</text>
</a>
</g>
</g>
<!-- Node16&#45;&gt;Node17 -->
<g id="edge25" class="edge"><title>Node16&#45;&gt;Node17</title>
<path fill="none" stroke="midnightblue" d="M325.739,-56.083C318.963,-48.2982 308.957,-36.8015 300.745,-27.3665"/>
<polygon fill="midnightblue" stroke="midnightblue" points="303.322,-24.9963 294.117,-19.7511 298.042,-29.592 303.322,-24.9963"/>
</g>
</g>
</svg>
