<?xml version="1.0" encoding="UTF-8" standalone="no"?>
<!DOCTYPE svg PUBLIC "-//W3C//DTD SVG 1.1//EN"
 "http://www.w3.org/Graphics/SVG/1.1/DTD/svg11.dtd">
<!-- Generated by graphviz version 2.38.0 (20140413.2041)
 -->
<!-- Title: dbresults Pages: 1 -->
<svg width="281pt" height="47pt"
 viewBox="0.00 0.00 281.00 47.00" xmlns="http://www.w3.org/2000/svg" xmlns:xlink="http://www.w3.org/1999/xlink">
<g id="graph0" class="graph" transform="scale(1 1) rotate(0) translate(4 43)">
<title>dbresults</title>
<polygon fill="white" stroke="none" points="-4,4 -4,-43 277,-43 277,4 -4,4"/>
<!-- Node181 -->
<g id="node1" class="node"><title>Node181</title>
<polygon fill="#bfbfbf" stroke="black" points="0,-0.5 0,-19.5 59,-19.5 59,-0.5 0,-0.5"/>
<text text-anchor="middle" x="29.5" y="-7.5" font-family="Helvetica,sans-Serif" font-size="10.00">dbresults</text>
</g>
<!-- Node182 -->
<g id="node2" class="node"><title>Node182</title>
<g id="a_node2"><a xlink:href="a00539.html#gaf1879b85e8238c015b9648d077665285" target="_top" xlink:title="_dbresults">
<polygon fill="white" stroke="black" points="95,-19.5 95,-38.5 160,-38.5 160,-19.5 95,-19.5"/>
<text text-anchor="middle" x="127.5" y="-26.5" font-family="Helvetica,sans-Serif" font-size="10.00">_dbresults</text>
</a>
</g>
</g>
<!-- Node181&#45;&gt;Node182 -->
<g id="edge1" class="edge"><title>Node181&#45;&gt;Node182</title>
<path fill="none" stroke="midnightblue" d="M59.0432,-15.6492C67.1472,-17.2531 76.1418,-19.0333 84.8524,-20.7572"/>
<polygon fill="midnightblue" stroke="midnightblue" points="84.3876,-24.2331 94.8769,-22.7413 85.7467,-17.3663 84.3876,-24.2331"/>
</g>
<!-- Node183 -->
<g id="node3" class="node"><title>Node183</title>
<g id="a_node3"><a xlink:href="a00431.html#ab45c291105027e69836002e1dd586141" target="_top" xlink:title="Write a message to the debug log. ">
<polygon fill="white" stroke="black" points="196,-0.5 196,-19.5 273,-19.5 273,-0.5 196,-0.5"/>
<text text-anchor="middle" x="234.5" y="-7.5" font-family="Helvetica,sans-Serif" font-size="10.00">tdsdump_log</text>
</a>
</g>
</g>
<!-- Node181&#45;&gt;Node183 -->
<g id="edge3" class="edge"><title>Node181&#45;&gt;Node183</title>
<path fill="none" stroke="midnightblue" d="M59.1544,-10C91.961,-10 146.227,-10 185.513,-10"/>
<polygon fill="midnightblue" stroke="midnightblue" points="185.66,-13.5001 195.66,-10 185.66,-6.5001 185.66,-13.5001"/>
</g>
<!-- Node182&#45;&gt;Node183 -->
<g id="edge2" class="edge"><title>Node182&#45;&gt;Node183</title>
<path fill="none" stroke="midnightblue" d="M160.003,-23.2994C168.079,-21.8381 176.948,-20.2332 185.646,-18.6593"/>
<polygon fill="midnightblue" stroke="midnightblue" points="186.503,-22.0611 195.72,-16.8364 185.257,-15.173 186.503,-22.0611"/>
</g>
</g>
</svg>
