<?xml version="1.0" encoding="UTF-8" standalone="no"?>
<!DOCTYPE svg PUBLIC "-//W3C//DTD SVG 1.1//EN"
 "http://www.w3.org/Graphics/SVG/1.1/DTD/svg11.dtd">
<!-- Generated by graphviz version 2.38.0 (20140413.2041)
 -->
<!-- Title: tds_read_packet Pages: 1 -->
<svg width="572pt" height="431pt"
 viewBox="0.00 0.00 572.00 431.00" xmlns="http://www.w3.org/2000/svg" xmlns:xlink="http://www.w3.org/1999/xlink">
<g id="graph0" class="graph" transform="scale(1 1) rotate(0) translate(4 427)">
<title>tds_read_packet</title>
<polygon fill="white" stroke="none" points="-4,4 -4,-427 568,-427 568,4 -4,4"/>
<!-- Node78 -->
<g id="node1" class="node"><title>Node78</title>
<polygon fill="#bfbfbf" stroke="black" points="0,-273.5 0,-292.5 96,-292.5 96,-273.5 0,-273.5"/>
<text text-anchor="middle" x="48" y="-280.5" font-family="Helvetica,sans-Serif" font-size="10.00">tds_read_packet</text>
</g>
<!-- Node79 -->
<g id="node2" class="node"><title>Node79</title>
<g id="a_node2"><a xlink:href="a00555.html#ga0cb72d3f6943795c39db1fa692be0a58" target="_top" xlink:title="Return a single byte from the input buffer. ">
<polygon fill="white" stroke="black" points="132,-333.5 132,-352.5 209,-352.5 209,-333.5 132,-333.5"/>
<text text-anchor="middle" x="170.5" y="-340.5" font-family="Helvetica,sans-Serif" font-size="10.00">tds_get_byte</text>
</a>
</g>
</g>
<!-- Node78&#45;&gt;Node79 -->
<g id="edge1" class="edge"><title>Node78&#45;&gt;Node79</title>
<path fill="none" stroke="midnightblue" d="M77.1317,-297.007C99.5507,-308.17 130.353,-323.508 150.097,-333.339"/>
<polygon fill="midnightblue" stroke="midnightblue" points="78.6053,-293.831 68.0936,-292.507 75.4852,-300.098 78.6053,-293.831"/>
</g>
<!-- Node82 -->
<g id="node5" class="node"><title>Node82</title>
<g id="a_node5"><a xlink:href="a00555.html#gae777dd57e8d1bb40349d7d7d8434fddf" target="_top" xlink:title="Get N bytes from the buffer and return them in the already allocated space given to us...">
<polygon fill="white" stroke="black" points="138.5,-213.5 138.5,-232.5 202.5,-232.5 202.5,-213.5 138.5,-213.5"/>
<text text-anchor="middle" x="170.5" y="-220.5" font-family="Helvetica,sans-Serif" font-size="10.00">tds_get_n</text>
</a>
</g>
</g>
<!-- Node78&#45;&gt;Node82 -->
<g id="edge4" class="edge"><title>Node78&#45;&gt;Node82</title>
<path fill="none" stroke="midnightblue" d="M77.1317,-268.993C99.5507,-257.83 130.353,-242.492 150.097,-232.661"/>
<polygon fill="midnightblue" stroke="midnightblue" points="75.4852,-265.902 68.0936,-273.493 78.6053,-272.169 75.4852,-265.902"/>
</g>
<!-- Node80 -->
<g id="node3" class="node"><title>Node80</title>
<g id="a_node3"><a xlink:href="a00555.html#ga221e98a9c8be96ec6c8547891e1b53af" target="_top" xlink:title="Reads a byte from the TDS stream without removing it. ">
<polygon fill="white" stroke="black" points="286,-377.5 286,-396.5 346,-396.5 346,-377.5 286,-377.5"/>
<text text-anchor="middle" x="316" y="-384.5" font-family="Helvetica,sans-Serif" font-size="10.00">tds_peek</text>
</a>
</g>
</g>
<!-- Node79&#45;&gt;Node80 -->
<g id="edge2" class="edge"><title>Node79&#45;&gt;Node80</title>
<path fill="none" stroke="midnightblue" d="M207.792,-355.849C219.606,-359.896 232.815,-364.278 245,-368 258.368,-372.083 273.304,-376.198 285.934,-379.548"/>
<polygon fill="midnightblue" stroke="midnightblue" points="208.844,-352.509 198.249,-352.55 206.557,-359.125 208.844,-352.509"/>
</g>
<!-- Node81 -->
<g id="node4" class="node"><title>Node81</title>
<g id="a_node4"><a xlink:href="a00556.html#ga9fdef8228d29cab7fa9098f07fa73fba" target="_top" xlink:title="Process parameters from networks. ">
<polygon fill="white" stroke="black" points="245,-328 245,-358 387,-358 387,-328 245,-328"/>
<text text-anchor="start" x="253" y="-346" font-family="Helvetica,sans-Serif" font-size="10.00">tds_process_param_result</text>
<text text-anchor="middle" x="316" y="-335" font-family="Helvetica,sans-Serif" font-size="10.00">_tokens</text>
</a>
</g>
</g>
<!-- Node79&#45;&gt;Node81 -->
<g id="edge3" class="edge"><title>Node79&#45;&gt;Node81</title>
<path fill="none" stroke="midnightblue" d="M219.293,-343C227.487,-343 236.152,-343 244.787,-343"/>
<polygon fill="midnightblue" stroke="midnightblue" points="219.203,-339.5 209.203,-343 219.203,-346.5 219.203,-339.5"/>
</g>
<!-- Node83 -->
<g id="node6" class="node"><title>Node83</title>
<g id="a_node6"><a xlink:href="a01355.html#a04b537d889f7d4c9b9701eb81baf7efd" target="_top" xlink:title="Reads data from network for input stream. ">
<polygon fill="white" stroke="black" points="250,-289.5 250,-308.5 382,-308.5 382,-289.5 250,-289.5"/>
<text text-anchor="middle" x="316" y="-296.5" font-family="Helvetica,sans-Serif" font-size="10.00">tds_datain_stream_read</text>
</a>
</g>
</g>
<!-- Node82&#45;&gt;Node83 -->
<g id="edge5" class="edge"><title>Node82&#45;&gt;Node83</title>
<path fill="none" stroke="midnightblue" d="M190.859,-239.026C205.139,-250.25 225.411,-264.975 245,-275 256.208,-280.736 269.093,-285.597 280.729,-289.413"/>
<polygon fill="midnightblue" stroke="midnightblue" points="192.793,-236.091 182.803,-232.564 188.413,-241.551 192.793,-236.091"/>
</g>
<!-- Node86 -->
<g id="node8" class="node"><title>Node86</title>
<g id="a_node8"><a xlink:href="a00555.html#gad38aa5b9547817854ccba1fcc7855861" target="_top" xlink:title="Get an int16 from the server. ">
<polygon fill="white" stroke="black" points="267,-213.5 267,-232.5 365,-232.5 365,-213.5 267,-213.5"/>
<text text-anchor="middle" x="316" y="-220.5" font-family="Helvetica,sans-Serif" font-size="10.00">tds_get_usmallint</text>
</a>
</g>
</g>
<!-- Node82&#45;&gt;Node86 -->
<g id="edge7" class="edge"><title>Node82&#45;&gt;Node86</title>
<path fill="none" stroke="midnightblue" d="M212.775,-223C229.705,-223 249.416,-223 266.986,-223"/>
<polygon fill="midnightblue" stroke="midnightblue" points="212.637,-219.5 202.637,-223 212.637,-226.5 212.637,-219.5"/>
</g>
<!-- Node90 -->
<g id="node12" class="node"><title>Node90</title>
<g id="a_node12"><a xlink:href="a00556.html#ga22c7f413d43fc0d511e122a3de389166" target="_top" xlink:title="Reads column information. ">
<polygon fill="white" stroke="black" points="438,-365.5 438,-384.5 549,-384.5 549,-365.5 438,-365.5"/>
<text text-anchor="middle" x="493.5" y="-372.5" font-family="Helvetica,sans-Serif" font-size="10.00">tds_process_colinfo</text>
</a>
</g>
</g>
<!-- Node82&#45;&gt;Node90 -->
<g id="edge22" class="edge"><title>Node82&#45;&gt;Node90</title>
<path fill="none" stroke="midnightblue" d="M212.399,-233.589C274.417,-249.677 385.287,-278.576 387,-280 415.742,-303.892 394.357,-331.989 423,-356 427.601,-359.857 432.921,-362.936 438.527,-365.392"/>
<polygon fill="midnightblue" stroke="midnightblue" points="213.081,-230.15 202.522,-231.028 211.324,-236.926 213.081,-230.15"/>
</g>
<!-- Node97 -->
<g id="node19" class="node"><title>Node97</title>
<g id="a_node19"><a xlink:href="a00555.html#ga9ac121c269e203337a48c5bf8afc48c3" target="_top" xlink:title="Get an int32 from the server. ">
<polygon fill="white" stroke="black" points="279,-175.5 279,-194.5 353,-194.5 353,-175.5 279,-175.5"/>
<text text-anchor="middle" x="316" y="-182.5" font-family="Helvetica,sans-Serif" font-size="10.00">tds_get_uint</text>
</a>
</g>
</g>
<!-- Node82&#45;&gt;Node97 -->
<g id="edge18" class="edge"><title>Node82&#45;&gt;Node97</title>
<path fill="none" stroke="midnightblue" d="M212.561,-212.127C233.568,-206.564 258.9,-199.856 279.117,-194.502"/>
<polygon fill="midnightblue" stroke="midnightblue" points="211.408,-208.811 202.637,-214.755 213.2,-215.578 211.408,-208.811"/>
</g>
<!-- Node98 -->
<g id="node20" class="node"><title>Node98</title>
<g id="a_node20"><a xlink:href="a00555.html#ga8ab6c87318eaf15ea17a9575763f7809" target="_top" xlink:title="Get an uint64 from the server. ">
<polygon fill="white" stroke="black" points="276,-137.5 276,-156.5 356,-156.5 356,-137.5 276,-137.5"/>
<text text-anchor="middle" x="316" y="-144.5" font-family="Helvetica,sans-Serif" font-size="10.00">tds_get_uint8</text>
</a>
</g>
</g>
<!-- Node82&#45;&gt;Node98 -->
<g id="edge20" class="edge"><title>Node82&#45;&gt;Node98</title>
<path fill="none" stroke="midnightblue" d="M188.537,-206.59C202.637,-193.84 223.737,-176.597 245,-166 254.58,-161.226 265.515,-157.527 275.85,-154.716"/>
<polygon fill="midnightblue" stroke="midnightblue" points="186.046,-204.127 181.095,-213.494 190.807,-209.259 186.046,-204.127"/>
</g>
<!-- Node99 -->
<g id="node21" class="node"><title>Node99</title>
<g id="a_node21"><a xlink:href="a00555.html#gafae08056186b143f3ef1399307dc9be7" target="_top" xlink:title="Reads a string from wire and put in a DSTR. ">
<polygon fill="white" stroke="black" points="278,-99.5 278,-118.5 354,-118.5 354,-99.5 278,-99.5"/>
<text text-anchor="middle" x="316" y="-106.5" font-family="Helvetica,sans-Serif" font-size="10.00">tds_dstr_get</text>
</a>
</g>
</g>
<!-- Node82&#45;&gt;Node99 -->
<g id="edge21" class="edge"><title>Node82&#45;&gt;Node99</title>
<path fill="none" stroke="midnightblue" d="M181.02,-204.361C193.02,-182.744 215.673,-147.58 245,-128 254.74,-121.497 266.641,-117.212 277.848,-114.391"/>
<polygon fill="midnightblue" stroke="midnightblue" points="177.903,-202.767 176.27,-213.235 184.075,-206.07 177.903,-202.767"/>
</g>
<!-- Node84 -->
<g id="node7" class="node"><title>Node84</title>
<g id="a_node7"><a xlink:href="a01355.html#abc3a77c8aa28842e7f28583cbabc1415" target="_top" xlink:title="Initialize a data input stream. ">
<polygon fill="white" stroke="red" points="431.5,-403.5 431.5,-422.5 555.5,-422.5 555.5,-403.5 431.5,-403.5"/>
<text text-anchor="middle" x="493.5" y="-410.5" font-family="Helvetica,sans-Serif" font-size="10.00">tds_datain_stream_init</text>
</a>
</g>
</g>
<!-- Node83&#45;&gt;Node84 -->
<g id="edge6" class="edge"><title>Node83&#45;&gt;Node84</title>
<path fill="none" stroke="midnightblue" d="M378.733,-313.194C381.66,-314.913 384.44,-316.84 387,-319 415.261,-342.842 394.603,-370.32 423,-394 427.611,-397.845 432.937,-400.917 438.546,-403.369"/>
<polygon fill="midnightblue" stroke="midnightblue" points="380.094,-309.962 369.583,-308.635 376.972,-316.228 380.094,-309.962"/>
</g>
<!-- Node87 -->
<g id="node9" class="node"><title>Node87</title>
<g id="a_node9"><a xlink:href="a00556.html#ga905d2fa5e1b602817bd16bb0fcf9eadb" target="_top" xlink:title="tds_process_col_name() is one half of the result set under TDS 4.2 it contains all the column names...">
<polygon fill="white" stroke="black" points="430.5,-327.5 430.5,-346.5 556.5,-346.5 556.5,-327.5 430.5,-327.5"/>
<text text-anchor="middle" x="493.5" y="-334.5" font-family="Helvetica,sans-Serif" font-size="10.00">tds_process_col_name</text>
</a>
</g>
</g>
<!-- Node86&#45;&gt;Node87 -->
<g id="edge8" class="edge"><title>Node86&#45;&gt;Node87</title>
<path fill="none" stroke="midnightblue" d="M370.894,-236.557C376.705,-239.409 382.229,-242.85 387,-247 413.694,-270.22 395.583,-295.638 423,-318 427.75,-321.874 433.227,-324.961 438.98,-327.421"/>
<polygon fill="midnightblue" stroke="midnightblue" points="372.162,-233.292 361.593,-232.544 369.389,-239.719 372.162,-233.292"/>
</g>
<!-- Node88 -->
<g id="node10" class="node"><title>Node88</title>
<g id="a_node10"><a xlink:href="a00556.html#ga4e3dd9d3614f5f0433b78b761dd68741" target="_top" xlink:title="tds_process_col_fmt() is the other half of result set processing under TDS 4.2. ">
<polygon fill="white" stroke="black" points="436.5,-289.5 436.5,-308.5 550.5,-308.5 550.5,-289.5 436.5,-289.5"/>
<text text-anchor="middle" x="493.5" y="-296.5" font-family="Helvetica,sans-Serif" font-size="10.00">tds_process_col_fmt</text>
</a>
</g>
</g>
<!-- Node86&#45;&gt;Node88 -->
<g id="edge9" class="edge"><title>Node86&#45;&gt;Node88</title>
<path fill="none" stroke="midnightblue" d="M363.877,-236.064C371.85,-239.122 379.855,-242.754 387,-247 405.66,-258.087 403.998,-269.51 423,-280 430.009,-283.869 437.857,-286.991 445.686,-289.498"/>
<polygon fill="midnightblue" stroke="midnightblue" points="364.822,-232.685 354.227,-232.616 362.467,-239.277 364.822,-232.685"/>
</g>
<!-- Node89 -->
<g id="node11" class="node"><title>Node89</title>
<g id="a_node11"><a xlink:href="a00556.html#gaeec59bca9bd0c5388e245f0d19d9c81a" target="_top" xlink:title="Process list of table from network. ">
<polygon fill="white" stroke="black" points="433,-251.5 433,-270.5 554,-270.5 554,-251.5 433,-251.5"/>
<text text-anchor="middle" x="493.5" y="-258.5" font-family="Helvetica,sans-Serif" font-size="10.00">tds_process_tabname</text>
</a>
</g>
</g>
<!-- Node86&#45;&gt;Node89 -->
<g id="edge10" class="edge"><title>Node86&#45;&gt;Node89</title>
<path fill="none" stroke="midnightblue" d="M371.278,-234.753C396.094,-240.126 425.111,-246.409 448.532,-251.48"/>
<polygon fill="midnightblue" stroke="midnightblue" points="371.8,-231.285 361.286,-232.589 370.319,-238.126 371.8,-231.285"/>
</g>
<!-- Node86&#45;&gt;Node90 -->
<g id="edge11" class="edge"><title>Node86&#45;&gt;Node90</title>
<path fill="none" stroke="midnightblue" d="M373.629,-237.014C378.535,-239.767 383.105,-243.06 387,-247 422.871,-283.279 385.997,-320.877 423,-356 427.264,-360.047 432.305,-363.249 437.694,-365.779"/>
<polygon fill="midnightblue" stroke="midnightblue" points="375.036,-233.807 364.508,-232.619 371.998,-240.113 375.036,-233.807"/>
</g>
<!-- Node91 -->
<g id="node13" class="node"><title>Node91</title>
<g id="a_node13"><a xlink:href="a00556.html#ga7a081cf9bb8f04ead12f0299fb7c4cd9" target="_top" xlink:title="tds_process_end() processes any of the DONE, DONEPROC, or DONEINPROC tokens. ">
<polygon fill="white" stroke="black" points="444.5,-213.5 444.5,-232.5 542.5,-232.5 542.5,-213.5 444.5,-213.5"/>
<text text-anchor="middle" x="493.5" y="-220.5" font-family="Helvetica,sans-Serif" font-size="10.00">tds_process_end</text>
</a>
</g>
</g>
<!-- Node86&#45;&gt;Node91 -->
<g id="edge12" class="edge"><title>Node86&#45;&gt;Node91</title>
<path fill="none" stroke="midnightblue" d="M375.453,-223C397.78,-223 422.965,-223 444.237,-223"/>
<polygon fill="midnightblue" stroke="midnightblue" points="375.421,-219.5 365.421,-223 375.421,-226.5 375.421,-219.5"/>
</g>
<!-- Node92 -->
<g id="node14" class="node"><title>Node92</title>
<g id="a_node14"><a xlink:href="a00556.html#ga3e1b4df4410a86a563a8c155e7799720" target="_top" xlink:title="tds_process_env_chg() when ever certain things change on the server, such as database, character set, language, or block size. ">
<polygon fill="white" stroke="black" points="433,-175.5 433,-194.5 554,-194.5 554,-175.5 433,-175.5"/>
<text text-anchor="middle" x="493.5" y="-182.5" font-family="Helvetica,sans-Serif" font-size="10.00">tds_process_env_chg</text>
</a>
</g>
</g>
<!-- Node86&#45;&gt;Node92 -->
<g id="edge13" class="edge"><title>Node86&#45;&gt;Node92</title>
<path fill="none" stroke="midnightblue" d="M371.278,-211.247C396.094,-205.874 425.111,-199.591 448.532,-194.52"/>
<polygon fill="midnightblue" stroke="midnightblue" points="370.319,-207.874 361.286,-213.411 371.8,-214.715 370.319,-207.874"/>
</g>
<!-- Node93 -->
<g id="node15" class="node"><title>Node93</title>
<g id="a_node15"><a xlink:href="a00556.html#ga416cf119c1d4a0fca27dc5b50c261358" target="_top" xlink:title="Process results from dynamic. ">
<polygon fill="white" stroke="black" points="429,-137.5 429,-156.5 558,-156.5 558,-137.5 429,-137.5"/>
<text text-anchor="middle" x="493.5" y="-144.5" font-family="Helvetica,sans-Serif" font-size="10.00">tds_process_dyn_result</text>
</a>
</g>
</g>
<!-- Node86&#45;&gt;Node93 -->
<g id="edge14" class="edge"><title>Node86&#45;&gt;Node93</title>
<path fill="none" stroke="midnightblue" d="M374.671,-210.151C378.964,-208.355 383.126,-206.316 387,-204 406.969,-192.064 403.042,-177.954 423,-166 429.439,-162.144 436.677,-159.051 443.986,-156.576"/>
<polygon fill="midnightblue" stroke="midnightblue" points="373.276,-206.936 365.126,-213.704 375.718,-213.496 373.276,-206.936"/>
</g>
<!-- Node94 -->
<g id="node16" class="node"><title>Node94</title>
<g id="a_node16"><a xlink:href="a00556.html#gae688b515631141acfbc41bbb91c8b921" target="_top" xlink:title="Process new TDS 5.0 token for describing output parameters. ">
<polygon fill="white" stroke="black" points="423,-0.5 423,-19.5 564,-19.5 564,-0.5 423,-0.5"/>
<text text-anchor="middle" x="493.5" y="-7.5" font-family="Helvetica,sans-Serif" font-size="10.00">tds5_process_dyn_result2</text>
</a>
</g>
</g>
<!-- Node86&#45;&gt;Node94 -->
<g id="edge15" class="edge"><title>Node86&#45;&gt;Node94</title>
<path fill="none" stroke="midnightblue" d="M374.561,-213.346C379.176,-210.872 383.427,-207.803 387,-204 441.377,-146.133 368.676,-86.9159 423,-29 426.594,-25.1682 430.88,-22.0823 435.533,-19.6006"/>
<polygon fill="midnightblue" stroke="midnightblue" points="373.068,-210.179 365.32,-217.406 375.883,-216.588 373.068,-210.179"/>
</g>
<!-- Node95 -->
<g id="node17" class="node"><title>Node95</title>
<g id="a_node17"><a xlink:href="a00556.html#gae5b3e01f3d665f9e377de091f46f1ab9" target="_top" xlink:title="tds_process_compute_names() processes compute result sets. ">
<polygon fill="white" stroke="black" points="433.5,-88 433.5,-118 553.5,-118 553.5,-88 433.5,-88"/>
<text text-anchor="start" x="441.5" y="-106" font-family="Helvetica,sans-Serif" font-size="10.00">tds_process_compute</text>
<text text-anchor="middle" x="493.5" y="-95" font-family="Helvetica,sans-Serif" font-size="10.00">_names</text>
</a>
</g>
</g>
<!-- Node86&#45;&gt;Node95 -->
<g id="edge16" class="edge"><title>Node86&#45;&gt;Node95</title>
<path fill="none" stroke="midnightblue" d="M374.642,-211.913C379.078,-209.729 383.273,-207.119 387,-204 415.665,-180.015 395.32,-153.115 423,-128 427.273,-124.123 432.192,-120.836 437.397,-118.052"/>
<polygon fill="midnightblue" stroke="midnightblue" points="373.151,-208.743 365.27,-215.824 375.847,-215.203 373.151,-208.743"/>
</g>
<!-- Node96 -->
<g id="node18" class="node"><title>Node96</title>
<g id="a_node18"><a xlink:href="a00556.html#ga315d875d90c64d12d61fc9e33b4dee96" target="_top" xlink:title="Reads cursor command results. ">
<polygon fill="white" stroke="black" points="438.5,-39 438.5,-69 548.5,-69 548.5,-39 438.5,-39"/>
<text text-anchor="start" x="446.5" y="-57" font-family="Helvetica,sans-Serif" font-size="10.00">tds_process_cursor</text>
<text text-anchor="middle" x="493.5" y="-46" font-family="Helvetica,sans-Serif" font-size="10.00">_tokens</text>
</a>
</g>
</g>
<!-- Node86&#45;&gt;Node96 -->
<g id="edge17" class="edge"><title>Node86&#45;&gt;Node96</title>
<path fill="none" stroke="midnightblue" d="M374.824,-212.764C379.287,-210.403 383.434,-207.519 387,-204 428.455,-163.091 382.949,-120.283 423,-78 427.389,-73.3662 432.715,-69.627 438.444,-66.6096"/>
<polygon fill="midnightblue" stroke="midnightblue" points="373.074,-209.709 365.306,-216.913 375.871,-216.125 373.074,-209.709"/>
</g>
<!-- Node97&#45;&gt;Node94 -->
<g id="edge19" class="edge"><title>Node97&#45;&gt;Node94</title>
<path fill="none" stroke="midnightblue" d="M362.822,-179.896C371.78,-177.015 380.422,-172.631 387,-166 431.336,-121.304 378.704,-73.7363 423,-29 426.784,-25.1779 431.258,-22.1037 436.084,-19.634"/>
<polygon fill="midnightblue" stroke="midnightblue" points="361.837,-176.536 353.059,-182.469 363.621,-183.305 361.837,-176.536"/>
</g>
</g>
</svg>
