<?xml version="1.0" encoding="UTF-8" standalone="no"?>
<!DOCTYPE svg PUBLIC "-//W3C//DTD SVG 1.1//EN"
 "http://www.w3.org/Graphics/SVG/1.1/DTD/svg11.dtd">
<!-- Generated by graphviz version 2.38.0 (20140413.2041)
 -->
<!-- Title: tds_process_env_chg Pages: 1 -->
<svg width="495pt" height="66pt"
 viewBox="0.00 0.00 495.00 66.00" xmlns="http://www.w3.org/2000/svg" xmlns:xlink="http://www.w3.org/1999/xlink">
<g id="graph0" class="graph" transform="scale(1 1) rotate(0) translate(4 62)">
<title>tds_process_env_chg</title>
<polygon fill="white" stroke="none" points="-4,4 -4,-62 491,-62 491,4 -4,4"/>
<!-- Node93 -->
<g id="node1" class="node"><title>Node93</title>
<polygon fill="#bfbfbf" stroke="black" points="0,-19.5 0,-38.5 121,-38.5 121,-19.5 0,-19.5"/>
<text text-anchor="middle" x="60.5" y="-26.5" font-family="Helvetica,sans-Serif" font-size="10.00">tds_process_env_chg</text>
</g>
<!-- Node94 -->
<g id="node2" class="node"><title>Node94</title>
<g id="a_node2"><a xlink:href="a00555.html#gad38aa5b9547817854ccba1fcc7855861" target="_top" xlink:title="Get an int16 from the server. ">
<polygon fill="white" stroke="black" points="157,-38.5 157,-57.5 255,-57.5 255,-38.5 157,-38.5"/>
<text text-anchor="middle" x="206" y="-45.5" font-family="Helvetica,sans-Serif" font-size="10.00">tds_get_usmallint</text>
</a>
</g>
</g>
<!-- Node93&#45;&gt;Node94 -->
<g id="edge1" class="edge"><title>Node93&#45;&gt;Node94</title>
<path fill="none" stroke="midnightblue" d="M121.11,-36.8926C129.541,-38.0089 138.202,-39.1557 146.61,-40.2689"/>
<polygon fill="midnightblue" stroke="midnightblue" points="146.334,-43.7628 156.707,-41.6057 147.252,-36.8234 146.334,-43.7628"/>
</g>
<!-- Node97 -->
<g id="node5" class="node"><title>Node97</title>
<g id="a_node5"><a xlink:href="a00431.html#ab45c291105027e69836002e1dd586141" target="_top" xlink:title="Write a message to the debug log. ">
<polygon fill="white" stroke="black" points="167.5,-0.5 167.5,-19.5 244.5,-19.5 244.5,-0.5 167.5,-0.5"/>
<text text-anchor="middle" x="206" y="-7.5" font-family="Helvetica,sans-Serif" font-size="10.00">tdsdump_log</text>
</a>
</g>
</g>
<!-- Node93&#45;&gt;Node97 -->
<g id="edge4" class="edge"><title>Node93&#45;&gt;Node97</title>
<path fill="none" stroke="midnightblue" d="M121.11,-21.1074C133.02,-19.5305 145.388,-17.8928 156.853,-16.3749"/>
<polygon fill="midnightblue" stroke="midnightblue" points="157.633,-19.8022 167.087,-15.0198 156.714,-12.8627 157.633,-19.8022"/>
</g>
<!-- Node95 -->
<g id="node3" class="node"><title>Node95</title>
<g id="a_node3"><a xlink:href="a00555.html#gae777dd57e8d1bb40349d7d7d8434fddf" target="_top" xlink:title="Get N bytes from the buffer and return them in the already allocated space given to us...">
<polygon fill="white" stroke="black" points="291,-38.5 291,-57.5 355,-57.5 355,-38.5 291,-38.5"/>
<text text-anchor="middle" x="323" y="-45.5" font-family="Helvetica,sans-Serif" font-size="10.00">tds_get_n</text>
</a>
</g>
</g>
<!-- Node94&#45;&gt;Node95 -->
<g id="edge2" class="edge"><title>Node94&#45;&gt;Node95</title>
<path fill="none" stroke="midnightblue" d="M255.104,-48C263.586,-48 272.349,-48 280.626,-48"/>
<polygon fill="midnightblue" stroke="midnightblue" points="280.794,-51.5001 290.794,-48 280.794,-44.5001 280.794,-51.5001"/>
</g>
<!-- Node96 -->
<g id="node4" class="node"><title>Node96</title>
<g id="a_node4"><a xlink:href="a00555.html#ga410619783bdf2bb60b0f27a5578e0e07" target="_top" xlink:title="Read in one &#39;packet&#39; from the server. ">
<polygon fill="white" stroke="black" points="391,-38.5 391,-57.5 487,-57.5 487,-38.5 391,-38.5"/>
<text text-anchor="middle" x="439" y="-45.5" font-family="Helvetica,sans-Serif" font-size="10.00">tds_read_packet</text>
</a>
</g>
</g>
<!-- Node95&#45;&gt;Node96 -->
<g id="edge3" class="edge"><title>Node95&#45;&gt;Node96</title>
<path fill="none" stroke="midnightblue" d="M355.151,-48C363.017,-48 371.715,-48 380.432,-48"/>
<polygon fill="midnightblue" stroke="midnightblue" points="380.624,-51.5001 390.624,-48 380.623,-44.5001 380.624,-51.5001"/>
</g>
</g>
</svg>
