<?xml version="1.0" encoding="UTF-8" standalone="no"?>
<!DOCTYPE svg PUBLIC "-//W3C//DTD SVG 1.1//EN"
 "http://www.w3.org/Graphics/SVG/1.1/DTD/svg11.dtd">
<!-- Generated by graphviz version 2.38.0 (20140413.2041)
 -->
<!-- Title: tds_dstr_get Pages: 1 -->
<svg width="341pt" height="180pt"
 viewBox="0.00 0.00 341.00 180.00" xmlns="http://www.w3.org/2000/svg" xmlns:xlink="http://www.w3.org/1999/xlink">
<g id="graph0" class="graph" transform="scale(1 1) rotate(0) translate(4 176)">
<title>tds_dstr_get</title>
<polygon fill="white" stroke="none" points="-4,4 -4,-176 337,-176 337,4 -4,4"/>
<!-- Node15 -->
<g id="node1" class="node"><title>Node15</title>
<polygon fill="#bfbfbf" stroke="black" points="0,-76.5 0,-95.5 76,-95.5 76,-76.5 0,-76.5"/>
<text text-anchor="middle" x="38" y="-83.5" font-family="Helvetica,sans-Serif" font-size="10.00">tds_dstr_get</text>
</g>
<!-- Node16 -->
<g id="node2" class="node"><title>Node16</title>
<g id="a_node2"><a xlink:href="a00557.html#ga6aa14b8b717b51afcfb65bd55143689d" target="_top" xlink:title="allocate space for length char ">
<polygon fill="white" stroke="black" points="115,-152.5 115,-171.5 198,-171.5 198,-152.5 115,-152.5"/>
<text text-anchor="middle" x="156.5" y="-159.5" font-family="Helvetica,sans-Serif" font-size="10.00">tds_dstr_alloc</text>
</a>
</g>
</g>
<!-- Node15&#45;&gt;Node16 -->
<g id="edge1" class="edge"><title>Node15&#45;&gt;Node16</title>
<path fill="none" stroke="midnightblue" d="M49.747,-95.8109C63.455,-107.979 88.2414,-128.843 112,-143 114.993,-144.784 118.184,-146.496 121.426,-148.113"/>
<polygon fill="midnightblue" stroke="midnightblue" points="120.035,-151.326 130.576,-152.393 123.001,-144.986 120.035,-151.326"/>
</g>
<!-- Node17 -->
<g id="node3" class="node"><title>Node17</title>
<g id="a_node3"><a xlink:href="a00555.html#gae777dd57e8d1bb40349d7d7d8434fddf" target="_top" xlink:title="Get N bytes from the buffer and return them in the already allocated space given to us...">
<polygon fill="white" stroke="black" points="124.5,-114.5 124.5,-133.5 188.5,-133.5 188.5,-114.5 124.5,-114.5"/>
<text text-anchor="middle" x="156.5" y="-121.5" font-family="Helvetica,sans-Serif" font-size="10.00">tds_get_n</text>
</a>
</g>
</g>
<!-- Node15&#45;&gt;Node17 -->
<g id="edge2" class="edge"><title>Node15&#45;&gt;Node17</title>
<path fill="none" stroke="midnightblue" d="M68.3979,-95.589C82.885,-100.314 100.558,-106.079 116.189,-111.177"/>
<polygon fill="midnightblue" stroke="midnightblue" points="115.519,-114.64 126.112,-114.414 117.69,-107.986 115.519,-114.64"/>
</g>
<!-- Node19 -->
<g id="node5" class="node"><title>Node19</title>
<g id="a_node5"><a xlink:href="a00555.html#ga90f080e6e9448feac15dee1370d66802" target="_top" xlink:title="Fetch a string from the wire. ">
<polygon fill="white" stroke="black" points="114.5,-76.5 114.5,-95.5 198.5,-95.5 198.5,-76.5 114.5,-76.5"/>
<text text-anchor="middle" x="156.5" y="-83.5" font-family="Helvetica,sans-Serif" font-size="10.00">tds_get_string</text>
</a>
</g>
</g>
<!-- Node15&#45;&gt;Node19 -->
<g id="edge4" class="edge"><title>Node15&#45;&gt;Node19</title>
<path fill="none" stroke="midnightblue" d="M76.1816,-86C85.0819,-86 94.7406,-86 104.155,-86"/>
<polygon fill="midnightblue" stroke="midnightblue" points="104.228,-89.5001 114.228,-86 104.228,-82.5001 104.228,-89.5001"/>
</g>
<!-- Node20 -->
<g id="node6" class="node"><title>Node20</title>
<g id="a_node6"><a xlink:href="a00557.html#ga8fa35e3ff06ef0b7d0d642cf50282ab8" target="_top" xlink:title="Returns a buffer to edit the string. ">
<polygon fill="white" stroke="black" points="119.5,-38.5 119.5,-57.5 193.5,-57.5 193.5,-38.5 119.5,-38.5"/>
<text text-anchor="middle" x="156.5" y="-45.5" font-family="Helvetica,sans-Serif" font-size="10.00">tds_dstr_buf</text>
</a>
</g>
</g>
<!-- Node15&#45;&gt;Node20 -->
<g id="edge5" class="edge"><title>Node15&#45;&gt;Node20</title>
<path fill="none" stroke="midnightblue" d="M68.3979,-76.411C82.885,-71.6856 100.558,-65.9211 116.189,-60.8226"/>
<polygon fill="midnightblue" stroke="midnightblue" points="117.69,-64.0145 126.112,-57.5859 115.519,-57.3595 117.69,-64.0145"/>
</g>
<!-- Node21 -->
<g id="node7" class="node"><title>Node21</title>
<g id="a_node7"><a xlink:href="a00557.html#ga0cd7863ba7c2d2da4a193234472a3d14" target="_top" xlink:title="limit length of string, MUST be &lt;= current length ">
<polygon fill="white" stroke="black" points="112,-0.5 112,-19.5 201,-19.5 201,-0.5 112,-0.5"/>
<text text-anchor="middle" x="156.5" y="-7.5" font-family="Helvetica,sans-Serif" font-size="10.00">tds_dstr_setlen</text>
</a>
</g>
</g>
<!-- Node15&#45;&gt;Node21 -->
<g id="edge6" class="edge"><title>Node15&#45;&gt;Node21</title>
<path fill="none" stroke="midnightblue" d="M49.747,-76.1891C63.455,-64.0212 88.2414,-43.1569 112,-29 114.993,-27.2164 118.184,-25.5037 121.426,-23.8871"/>
<polygon fill="midnightblue" stroke="midnightblue" points="123.001,-27.0145 130.576,-19.6066 120.035,-20.6741 123.001,-27.0145"/>
</g>
<!-- Node18 -->
<g id="node4" class="node"><title>Node18</title>
<g id="a_node4"><a xlink:href="a00555.html#ga410619783bdf2bb60b0f27a5578e0e07" target="_top" xlink:title="Read in one &#39;packet&#39; from the server. ">
<polygon fill="white" stroke="black" points="237,-114.5 237,-133.5 333,-133.5 333,-114.5 237,-114.5"/>
<text text-anchor="middle" x="285" y="-121.5" font-family="Helvetica,sans-Serif" font-size="10.00">tds_read_packet</text>
</a>
</g>
</g>
<!-- Node17&#45;&gt;Node18 -->
<g id="edge3" class="edge"><title>Node17&#45;&gt;Node18</title>
<path fill="none" stroke="midnightblue" d="M188.77,-124C200.2,-124 213.522,-124 226.517,-124"/>
<polygon fill="midnightblue" stroke="midnightblue" points="226.826,-127.5 236.826,-124 226.826,-120.5 226.826,-127.5"/>
</g>
</g>
</svg>
