<?xml version="1.0" encoding="UTF-8" standalone="no"?>
<!DOCTYPE svg PUBLIC "-//W3C//DTD SVG 1.1//EN"
 "http://www.w3.org/Graphics/SVG/1.1/DTD/svg11.dtd">
<!-- Generated by graphviz version 2.38.0 (20140413.2041)
 -->
<!-- Title: tds_get_n Pages: 1 -->
<svg width="557pt" height="431pt"
 viewBox="0.00 0.00 557.00 431.00" xmlns="http://www.w3.org/2000/svg" xmlns:xlink="http://www.w3.org/1999/xlink">
<g id="graph0" class="graph" transform="scale(1 1) rotate(0) translate(4 427)">
<title>tds_get_n</title>
<polygon fill="white" stroke="none" points="-4,4 -4,-427 553,-427 553,4 -4,4"/>
<!-- Node36 -->
<g id="node1" class="node"><title>Node36</title>
<polygon fill="#bfbfbf" stroke="black" points="0,-194.5 0,-213.5 64,-213.5 64,-194.5 0,-194.5"/>
<text text-anchor="middle" x="32" y="-201.5" font-family="Helvetica,sans-Serif" font-size="10.00">tds_get_n</text>
</g>
<!-- Node37 -->
<g id="node2" class="node"><title>Node37</title>
<g id="a_node2"><a xlink:href="a01355.html#a04b537d889f7d4c9b9701eb81baf7efd" target="_top" xlink:title="Reads data from network for input stream. ">
<polygon fill="white" stroke="black" points="100,-374.5 100,-393.5 232,-393.5 232,-374.5 100,-374.5"/>
<text text-anchor="middle" x="166" y="-381.5" font-family="Helvetica,sans-Serif" font-size="10.00">tds_datain_stream_read</text>
</a>
</g>
</g>
<!-- Node36&#45;&gt;Node37 -->
<g id="edge1" class="edge"><title>Node36&#45;&gt;Node37</title>
<path fill="none" stroke="midnightblue" d="M40.1983,-223.408C50.6294,-249.847 71.8241,-297.801 100,-332 114.335,-349.4 135.336,-364.903 149.556,-374.36"/>
<polygon fill="midnightblue" stroke="midnightblue" points="43.3606,-221.88 36.5097,-213.798 36.8254,-224.388 43.3606,-221.88"/>
</g>
<!-- Node40 -->
<g id="node5" class="node"><title>Node40</title>
<g id="a_node5"><a xlink:href="a00555.html#gad38aa5b9547817854ccba1fcc7855861" target="_top" xlink:title="Get an int16 from the server. ">
<polygon fill="white" stroke="black" points="117,-213.5 117,-232.5 215,-232.5 215,-213.5 117,-213.5"/>
<text text-anchor="middle" x="166" y="-220.5" font-family="Helvetica,sans-Serif" font-size="10.00">tds_get_usmallint</text>
</a>
</g>
</g>
<!-- Node36&#45;&gt;Node40 -->
<g id="edge4" class="edge"><title>Node36&#45;&gt;Node40</title>
<path fill="none" stroke="midnightblue" d="M74.2603,-209.939C87.7817,-211.885 102.923,-214.065 116.904,-216.077"/>
<polygon fill="midnightblue" stroke="midnightblue" points="74.6788,-206.463 64.2822,-208.503 73.6815,-213.392 74.6788,-206.463"/>
</g>
<!-- Node44 -->
<g id="node9" class="node"><title>Node44</title>
<g id="a_node9"><a xlink:href="a00556.html#ga22c7f413d43fc0d511e122a3de389166" target="_top" xlink:title="Reads column information. ">
<polygon fill="white" stroke="black" points="283,-365.5 283,-384.5 394,-384.5 394,-365.5 283,-365.5"/>
<text text-anchor="middle" x="338.5" y="-372.5" font-family="Helvetica,sans-Serif" font-size="10.00">tds_process_colinfo</text>
</a>
</g>
</g>
<!-- Node36&#45;&gt;Node44 -->
<g id="edge19" class="edge"><title>Node36&#45;&gt;Node44</title>
<path fill="none" stroke="midnightblue" d="M52.91,-219.952C91.9468,-250.505 182.226,-317.645 268,-356 276.336,-359.728 285.569,-362.874 294.51,-365.468"/>
<polygon fill="midnightblue" stroke="midnightblue" points="54.9748,-217.123 44.9563,-213.676 50.6385,-222.618 54.9748,-217.123"/>
</g>
<!-- Node51 -->
<g id="node16" class="node"><title>Node51</title>
<g id="a_node16"><a xlink:href="a00555.html#ga9ac121c269e203337a48c5bf8afc48c3" target="_top" xlink:title="Get an int32 from the server. ">
<polygon fill="white" stroke="black" points="129,-175.5 129,-194.5 203,-194.5 203,-175.5 129,-175.5"/>
<text text-anchor="middle" x="166" y="-182.5" font-family="Helvetica,sans-Serif" font-size="10.00">tds_get_uint</text>
</a>
</g>
</g>
<!-- Node36&#45;&gt;Node51 -->
<g id="edge15" class="edge"><title>Node36&#45;&gt;Node51</title>
<path fill="none" stroke="midnightblue" d="M74.2178,-198.067C91.7027,-195.55 111.902,-192.643 128.802,-190.21"/>
<polygon fill="midnightblue" stroke="midnightblue" points="73.6815,-194.608 64.2822,-199.497 74.6788,-201.537 73.6815,-194.608"/>
</g>
<!-- Node52 -->
<g id="node17" class="node"><title>Node52</title>
<g id="a_node17"><a xlink:href="a00555.html#ga8ab6c87318eaf15ea17a9575763f7809" target="_top" xlink:title="Get an uint64 from the server. ">
<polygon fill="white" stroke="black" points="126,-137.5 126,-156.5 206,-156.5 206,-137.5 126,-137.5"/>
<text text-anchor="middle" x="166" y="-144.5" font-family="Helvetica,sans-Serif" font-size="10.00">tds_get_uint8</text>
</a>
</g>
</g>
<!-- Node36&#45;&gt;Node52 -->
<g id="edge17" class="edge"><title>Node36&#45;&gt;Node52</title>
<path fill="none" stroke="midnightblue" d="M56.1593,-189.098C68.7618,-181.447 84.8367,-172.414 100,-166 108.446,-162.428 117.779,-159.268 126.675,-156.602"/>
<polygon fill="midnightblue" stroke="midnightblue" points="54.3148,-186.123 47.6591,-194.366 58.0027,-192.073 54.3148,-186.123"/>
</g>
<!-- Node53 -->
<g id="node18" class="node"><title>Node53</title>
<g id="a_node18"><a xlink:href="a00555.html#gafae08056186b143f3ef1399307dc9be7" target="_top" xlink:title="Reads a string from wire and put in a DSTR. ">
<polygon fill="white" stroke="black" points="128,-99.5 128,-118.5 204,-118.5 204,-99.5 128,-99.5"/>
<text text-anchor="middle" x="166" y="-106.5" font-family="Helvetica,sans-Serif" font-size="10.00">tds_dstr_get</text>
</a>
</g>
</g>
<!-- Node36&#45;&gt;Node53 -->
<g id="edge18" class="edge"><title>Node36&#45;&gt;Node53</title>
<path fill="none" stroke="midnightblue" d="M44.677,-185.598C56.5777,-168.296 76.5796,-142.89 100,-128 108.334,-122.701 118.197,-118.834 127.689,-116.03"/>
<polygon fill="midnightblue" stroke="midnightblue" points="41.5427,-183.992 38.9288,-194.259 47.3749,-187.863 41.5427,-183.992"/>
</g>
<!-- Node38 -->
<g id="node3" class="node"><title>Node38</title>
<g id="a_node3"><a xlink:href="a01355.html#abc3a77c8aa28842e7f28583cbabc1415" target="_top" xlink:title="Initialize a data input stream. ">
<polygon fill="white" stroke="black" points="276.5,-403.5 276.5,-422.5 400.5,-422.5 400.5,-403.5 276.5,-403.5"/>
<text text-anchor="middle" x="338.5" y="-410.5" font-family="Helvetica,sans-Serif" font-size="10.00">tds_datain_stream_init</text>
</a>
</g>
</g>
<!-- Node37&#45;&gt;Node38 -->
<g id="edge2" class="edge"><title>Node37&#45;&gt;Node38</title>
<path fill="none" stroke="midnightblue" d="M233.572,-395.323C249.439,-398.022 266.214,-400.875 281.549,-403.483"/>
<polygon fill="midnightblue" stroke="midnightblue" points="233.746,-391.802 223.301,-393.576 232.572,-398.703 233.746,-391.802"/>
</g>
<!-- Node39 -->
<g id="node4" class="node"><title>Node39</title>
<g id="a_node4"><a xlink:href="a00555.html#ga676c4dee6522815b16fdc8e448e43590" target="_top" xlink:title="For UTF&#45;8 and similar, tds_iconv() may encounter a partial sequence when the chunk boundary is not al...">
<polygon fill="white" stroke="black" points="445,-403.5 445,-422.5 549,-422.5 549,-403.5 445,-403.5"/>
<text text-anchor="middle" x="497" y="-410.5" font-family="Helvetica,sans-Serif" font-size="10.00">read_and_convert</text>
</a>
</g>
</g>
<!-- Node38&#45;&gt;Node39 -->
<g id="edge3" class="edge"><title>Node38&#45;&gt;Node39</title>
<path fill="none" stroke="midnightblue" d="M411.247,-413C422.595,-413 434.127,-413 444.88,-413"/>
<polygon fill="midnightblue" stroke="midnightblue" points="410.904,-409.5 400.904,-413 410.904,-416.5 410.904,-409.5"/>
</g>
<!-- Node41 -->
<g id="node6" class="node"><title>Node41</title>
<g id="a_node6"><a xlink:href="a00556.html#ga905d2fa5e1b602817bd16bb0fcf9eadb" target="_top" xlink:title="tds_process_col_name() is one half of the result set under TDS 4.2 it contains all the column names...">
<polygon fill="white" stroke="black" points="275.5,-327.5 275.5,-346.5 401.5,-346.5 401.5,-327.5 275.5,-327.5"/>
<text text-anchor="middle" x="338.5" y="-334.5" font-family="Helvetica,sans-Serif" font-size="10.00">tds_process_col_name</text>
</a>
</g>
</g>
<!-- Node40&#45;&gt;Node41 -->
<g id="edge5" class="edge"><title>Node40&#45;&gt;Node41</title>
<path fill="none" stroke="midnightblue" d="M181.012,-240.664C198.94,-262.087 232.01,-297.829 268,-318 274.874,-321.853 282.574,-324.96 290.277,-327.455"/>
<polygon fill="midnightblue" stroke="midnightblue" points="183.538,-238.224 174.496,-232.702 178.121,-242.657 183.538,-238.224"/>
</g>
<!-- Node42 -->
<g id="node7" class="node"><title>Node42</title>
<g id="a_node7"><a xlink:href="a00556.html#ga4e3dd9d3614f5f0433b78b761dd68741" target="_top" xlink:title="tds_process_col_fmt() is the other half of result set processing under TDS 4.2. ">
<polygon fill="white" stroke="black" points="281.5,-289.5 281.5,-308.5 395.5,-308.5 395.5,-289.5 281.5,-289.5"/>
<text text-anchor="middle" x="338.5" y="-296.5" font-family="Helvetica,sans-Serif" font-size="10.00">tds_process_col_fmt</text>
</a>
</g>
</g>
<!-- Node40&#45;&gt;Node42 -->
<g id="edge6" class="edge"><title>Node40&#45;&gt;Node42</title>
<path fill="none" stroke="midnightblue" d="M190.159,-238.261C210.111,-250.865 240.031,-268.492 268,-280 276.907,-283.665 286.744,-286.844 296.145,-289.498"/>
<polygon fill="midnightblue" stroke="midnightblue" points="191.784,-235.146 181.477,-232.695 188.007,-241.039 191.784,-235.146"/>
</g>
<!-- Node43 -->
<g id="node8" class="node"><title>Node43</title>
<g id="a_node8"><a xlink:href="a00556.html#gaeec59bca9bd0c5388e245f0d19d9c81a" target="_top" xlink:title="Process list of table from network. ">
<polygon fill="white" stroke="black" points="278,-251.5 278,-270.5 399,-270.5 399,-251.5 278,-251.5"/>
<text text-anchor="middle" x="338.5" y="-258.5" font-family="Helvetica,sans-Serif" font-size="10.00">tds_process_tabname</text>
</a>
</g>
</g>
<!-- Node40&#45;&gt;Node43 -->
<g id="edge7" class="edge"><title>Node40&#45;&gt;Node43</title>
<path fill="none" stroke="midnightblue" d="M220.054,-234.824C244.091,-240.182 272.132,-246.431 294.785,-251.48"/>
<polygon fill="midnightblue" stroke="midnightblue" points="220.546,-231.348 210.024,-232.589 219.023,-238.181 220.546,-231.348"/>
</g>
<!-- Node40&#45;&gt;Node44 -->
<g id="edge8" class="edge"><title>Node40&#45;&gt;Node44</title>
<path fill="none" stroke="midnightblue" d="M181.721,-240.602C195.142,-256.821 215.354,-281.684 232,-304 248.807,-326.531 245.058,-339.758 268,-356 273.513,-359.903 279.793,-363.005 286.27,-365.47"/>
<polygon fill="midnightblue" stroke="midnightblue" points="184.113,-238.004 175.029,-232.551 178.73,-242.479 184.113,-238.004"/>
</g>
<!-- Node45 -->
<g id="node10" class="node"><title>Node45</title>
<g id="a_node10"><a xlink:href="a00556.html#ga7a081cf9bb8f04ead12f0299fb7c4cd9" target="_top" xlink:title="tds_process_end() processes any of the DONE, DONEPROC, or DONEINPROC tokens. ">
<polygon fill="white" stroke="black" points="289.5,-213.5 289.5,-232.5 387.5,-232.5 387.5,-213.5 289.5,-213.5"/>
<text text-anchor="middle" x="338.5" y="-220.5" font-family="Helvetica,sans-Serif" font-size="10.00">tds_process_end</text>
</a>
</g>
</g>
<!-- Node40&#45;&gt;Node45 -->
<g id="edge9" class="edge"><title>Node40&#45;&gt;Node45</title>
<path fill="none" stroke="midnightblue" d="M225.404,-223C246.217,-223 269.409,-223 289.272,-223"/>
<polygon fill="midnightblue" stroke="midnightblue" points="225.402,-219.5 215.402,-223 225.402,-226.5 225.402,-219.5"/>
</g>
<!-- Node46 -->
<g id="node11" class="node"><title>Node46</title>
<g id="a_node11"><a xlink:href="a00556.html#ga3e1b4df4410a86a563a8c155e7799720" target="_top" xlink:title="tds_process_env_chg() when ever certain things change on the server, such as database, character set, language, or block size. ">
<polygon fill="white" stroke="black" points="278,-175.5 278,-194.5 399,-194.5 399,-175.5 278,-175.5"/>
<text text-anchor="middle" x="338.5" y="-182.5" font-family="Helvetica,sans-Serif" font-size="10.00">tds_process_env_chg</text>
</a>
</g>
</g>
<!-- Node40&#45;&gt;Node46 -->
<g id="edge10" class="edge"><title>Node40&#45;&gt;Node46</title>
<path fill="none" stroke="midnightblue" d="M220.054,-211.176C244.091,-205.818 272.132,-199.569 294.785,-194.52"/>
<polygon fill="midnightblue" stroke="midnightblue" points="219.023,-207.819 210.024,-213.411 220.546,-214.652 219.023,-207.819"/>
</g>
<!-- Node47 -->
<g id="node12" class="node"><title>Node47</title>
<g id="a_node12"><a xlink:href="a00556.html#ga416cf119c1d4a0fca27dc5b50c261358" target="_top" xlink:title="Process results from dynamic. ">
<polygon fill="white" stroke="black" points="274,-137.5 274,-156.5 403,-156.5 403,-137.5 274,-137.5"/>
<text text-anchor="middle" x="338.5" y="-144.5" font-family="Helvetica,sans-Serif" font-size="10.00">tds_process_dyn_result</text>
</a>
</g>
</g>
<!-- Node40&#45;&gt;Node47 -->
<g id="edge11" class="edge"><title>Node40&#45;&gt;Node47</title>
<path fill="none" stroke="midnightblue" d="M220.691,-209.828C224.628,-208.107 228.445,-206.172 232,-204 251.853,-191.872 248.042,-177.954 268,-166 274.439,-162.144 281.677,-159.051 288.986,-156.576"/>
<polygon fill="midnightblue" stroke="midnightblue" points="219.396,-206.576 211.35,-213.47 221.939,-213.098 219.396,-206.576"/>
</g>
<!-- Node48 -->
<g id="node13" class="node"><title>Node48</title>
<g id="a_node13"><a xlink:href="a00556.html#gae688b515631141acfbc41bbb91c8b921" target="_top" xlink:title="Process new TDS 5.0 token for describing output parameters. ">
<polygon fill="white" stroke="black" points="268,-0.5 268,-19.5 409,-19.5 409,-0.5 268,-0.5"/>
<text text-anchor="middle" x="338.5" y="-7.5" font-family="Helvetica,sans-Serif" font-size="10.00">tds5_process_dyn_result2</text>
</a>
</g>
</g>
<!-- Node40&#45;&gt;Node48 -->
<g id="edge12" class="edge"><title>Node40&#45;&gt;Node48</title>
<path fill="none" stroke="midnightblue" d="M224.236,-210.59C227.068,-208.69 229.689,-206.507 232,-204 285.815,-145.61 213.676,-86.9159 268,-29 271.594,-25.1682 275.88,-22.0823 280.533,-19.6006"/>
<polygon fill="midnightblue" stroke="midnightblue" points="222.333,-207.64 215.209,-215.483 225.668,-213.795 222.333,-207.64"/>
</g>
<!-- Node49 -->
<g id="node14" class="node"><title>Node49</title>
<g id="a_node14"><a xlink:href="a00556.html#gae5b3e01f3d665f9e377de091f46f1ab9" target="_top" xlink:title="tds_process_compute_names() processes compute result sets. ">
<polygon fill="white" stroke="black" points="278.5,-88 278.5,-118 398.5,-118 398.5,-88 278.5,-88"/>
<text text-anchor="start" x="286.5" y="-106" font-family="Helvetica,sans-Serif" font-size="10.00">tds_process_compute</text>
<text text-anchor="middle" x="338.5" y="-95" font-family="Helvetica,sans-Serif" font-size="10.00">_names</text>
</a>
</g>
</g>
<!-- Node40&#45;&gt;Node49 -->
<g id="edge13" class="edge"><title>Node40&#45;&gt;Node49</title>
<path fill="none" stroke="midnightblue" d="M224.297,-209.47C227.027,-207.849 229.617,-206.033 232,-204 260.432,-179.739 240.32,-153.115 268,-128 272.273,-124.123 277.192,-120.836 282.397,-118.052"/>
<polygon fill="midnightblue" stroke="midnightblue" points="222.575,-206.418 215.191,-214.017 225.702,-212.681 222.575,-206.418"/>
</g>
<!-- Node50 -->
<g id="node15" class="node"><title>Node50</title>
<g id="a_node15"><a xlink:href="a00556.html#ga315d875d90c64d12d61fc9e33b4dee96" target="_top" xlink:title="Reads cursor command results. ">
<polygon fill="white" stroke="black" points="283.5,-39 283.5,-69 393.5,-69 393.5,-39 283.5,-39"/>
<text text-anchor="start" x="291.5" y="-57" font-family="Helvetica,sans-Serif" font-size="10.00">tds_process_cursor</text>
<text text-anchor="middle" x="338.5" y="-46" font-family="Helvetica,sans-Serif" font-size="10.00">_tokens</text>
</a>
</g>
</g>
<!-- Node40&#45;&gt;Node50 -->
<g id="edge14" class="edge"><title>Node40&#45;&gt;Node50</title>
<path fill="none" stroke="midnightblue" d="M224.166,-210.285C226.996,-208.459 229.638,-206.377 232,-204 273.057,-162.692 227.949,-120.283 268,-78 272.389,-73.3662 277.715,-69.627 283.444,-66.6096"/>
<polygon fill="midnightblue" stroke="midnightblue" points="222.409,-207.255 215.204,-215.023 225.68,-213.443 222.409,-207.255"/>
</g>
<!-- Node51&#45;&gt;Node48 -->
<g id="edge16" class="edge"><title>Node51&#45;&gt;Node48</title>
<path fill="none" stroke="midnightblue" d="M213.01,-178.061C220.08,-175.269 226.758,-171.388 232,-166 275.902,-120.877 223.704,-73.7363 268,-29 271.784,-25.1779 276.258,-22.1037 281.084,-19.634"/>
<polygon fill="midnightblue" stroke="midnightblue" points="211.659,-174.82 203.224,-181.232 213.816,-181.479 211.659,-174.82"/>
</g>
</g>
</svg>
