<?xml version="1.0" encoding="UTF-8" standalone="no"?>
<!DOCTYPE svg PUBLIC "-//W3C//DTD SVG 1.1//EN"
 "http://www.w3.org/Graphics/SVG/1.1/DTD/svg11.dtd">
<!-- Generated by graphviz version 2.38.0 (20140413.2041)
 -->
<!-- Title: tds_process_param_result_tokens Pages: 1 -->
<svg width="395pt" height="39pt"
 viewBox="0.00 0.00 395.00 39.00" xmlns="http://www.w3.org/2000/svg" xmlns:xlink="http://www.w3.org/1999/xlink">
<g id="graph0" class="graph" transform="scale(1 1) rotate(0) translate(4 35)">
<title>tds_process_param_result_tokens</title>
<polygon fill="white" stroke="none" points="-4,4 -4,-35 391,-35 391,4 -4,4"/>
<!-- Node106 -->
<g id="node1" class="node"><title>Node106</title>
<polygon fill="#bfbfbf" stroke="black" points="0,-0.5 0,-30.5 142,-30.5 142,-0.5 0,-0.5"/>
<text text-anchor="start" x="8" y="-18.5" font-family="Helvetica,sans-Serif" font-size="10.00">tds_process_param_result</text>
<text text-anchor="middle" x="71" y="-7.5" font-family="Helvetica,sans-Serif" font-size="10.00">_tokens</text>
</g>
<!-- Node107 -->
<g id="node2" class="node"><title>Node107</title>
<g id="a_node2"><a xlink:href="a00555.html#ga0cb72d3f6943795c39db1fa692be0a58" target="_top" xlink:title="Return a single byte from the input buffer. ">
<polygon fill="white" stroke="black" points="178,-6 178,-25 255,-25 255,-6 178,-6"/>
<text text-anchor="middle" x="216.5" y="-13" font-family="Helvetica,sans-Serif" font-size="10.00">tds_get_byte</text>
</a>
</g>
</g>
<!-- Node106&#45;&gt;Node107 -->
<g id="edge1" class="edge"><title>Node106&#45;&gt;Node107</title>
<path fill="none" stroke="midnightblue" d="M142.068,-15.5C150.773,-15.5 159.51,-15.5 167.767,-15.5"/>
<polygon fill="midnightblue" stroke="midnightblue" points="167.932,-19.0001 177.932,-15.5 167.932,-12.0001 167.932,-19.0001"/>
</g>
<!-- Node108 -->
<g id="node3" class="node"><title>Node108</title>
<g id="a_node3"><a xlink:href="a00555.html#ga410619783bdf2bb60b0f27a5578e0e07" target="_top" xlink:title="Read in one &#39;packet&#39; from the server. ">
<polygon fill="white" stroke="black" points="291,-6 291,-25 387,-25 387,-6 291,-6"/>
<text text-anchor="middle" x="339" y="-13" font-family="Helvetica,sans-Serif" font-size="10.00">tds_read_packet</text>
</a>
</g>
</g>
<!-- Node107&#45;&gt;Node108 -->
<g id="edge2" class="edge"><title>Node107&#45;&gt;Node108</title>
<path fill="none" stroke="midnightblue" d="M255.296,-15.5C263.246,-15.5 271.803,-15.5 280.294,-15.5"/>
<polygon fill="midnightblue" stroke="midnightblue" points="280.571,-19.0001 290.571,-15.5 280.571,-12.0001 280.571,-19.0001"/>
</g>
</g>
</svg>
