<?xml version="1.0" encoding="UTF-8" standalone="no"?>
<!DOCTYPE svg PUBLIC "-//W3C//DTD SVG 1.1//EN"
 "http://www.w3.org/Graphics/SVG/1.1/DTD/svg11.dtd">
<!-- Generated by graphviz version 2.38.0 (20140413.2041)
 -->
<!-- Title: tds_skip_comment_ucs2le Pages: 1 -->
<svg width="468pt" height="39pt"
 viewBox="0.00 0.00 468.00 39.00" xmlns="http://www.w3.org/2000/svg" xmlns:xlink="http://www.w3.org/1999/xlink">
<g id="graph0" class="graph" transform="scale(1 1) rotate(0) translate(4 35)">
<title>tds_skip_comment_ucs2le</title>
<polygon fill="white" stroke="none" points="-4,4 -4,-35 464,-35 464,4 -4,4"/>
<!-- Node114 -->
<g id="node1" class="node"><title>Node114</title>
<polygon fill="#bfbfbf" stroke="black" points="0,-6 0,-25 140,-25 140,-6 0,-6"/>
<text text-anchor="middle" x="70" y="-13" font-family="Helvetica,sans-Serif" font-size="10.00">tds_skip_comment_ucs2le</text>
</g>
<!-- Node115 -->
<g id="node2" class="node"><title>Node115</title>
<g id="a_node2"><a xlink:href="a00554.html#gaa823973b74efdf1ff00f340496bff614" target="_top" xlink:title="Found the next placeholder (? or @param) in a string. ">
<polygon fill="white" stroke="black" points="176,-0.5 176,-30.5 295,-30.5 295,-0.5 176,-0.5"/>
<text text-anchor="start" x="184" y="-18.5" font-family="Helvetica,sans-Serif" font-size="10.00">tds_next_placeholder</text>
<text text-anchor="middle" x="235.5" y="-7.5" font-family="Helvetica,sans-Serif" font-size="10.00">_ucs2le</text>
</a>
</g>
</g>
<!-- Node114&#45;&gt;Node115 -->
<g id="edge1" class="edge"><title>Node114&#45;&gt;Node115</title>
<path fill="none" stroke="midnightblue" d="M150.388,-15.5C158.981,-15.5 167.609,-15.5 175.891,-15.5"/>
<polygon fill="midnightblue" stroke="midnightblue" points="150.339,-12.0001 140.339,-15.5 150.339,-19.0001 150.339,-12.0001"/>
</g>
<!-- Node116 -->
<g id="node3" class="node"><title>Node116</title>
<g id="a_node3"><a xlink:href="a00554.html#ga0cd19215e9169ea299a6c9cbf5b2fb60" target="_top" xlink:title="Count the number of placeholders (&#39;?&#39;) in a query. ">
<polygon fill="white" stroke="black" points="331,-0.5 331,-30.5 460,-30.5 460,-0.5 331,-0.5"/>
<text text-anchor="start" x="339" y="-18.5" font-family="Helvetica,sans-Serif" font-size="10.00">tds_count_placeholders</text>
<text text-anchor="middle" x="395.5" y="-7.5" font-family="Helvetica,sans-Serif" font-size="10.00">_ucs2le</text>
</a>
</g>
</g>
<!-- Node115&#45;&gt;Node116 -->
<g id="edge2" class="edge"><title>Node115&#45;&gt;Node116</title>
<path fill="none" stroke="midnightblue" d="M305.506,-15.5C313.929,-15.5 322.507,-15.5 330.847,-15.5"/>
<polygon fill="midnightblue" stroke="midnightblue" points="305.333,-12.0001 295.333,-15.5 305.333,-19.0001 305.333,-12.0001"/>
</g>
</g>
</svg>
