<?xml version="1.0" encoding="UTF-8" standalone="no"?>
<!DOCTYPE svg PUBLIC "-//W3C//DTD SVG 1.1//EN"
 "http://www.w3.org/Graphics/SVG/1.1/DTD/svg11.dtd">
<!-- Generated by graphviz version 2.38.0 (20140413.2041)
 -->
<!-- Title: src/replacements/iconv.c Pages: 1 -->
<svg width="1137pt" height="263pt"
 viewBox="0.00 0.00 1137.19 263.00" xmlns="http://www.w3.org/2000/svg" xmlns:xlink="http://www.w3.org/1999/xlink">
<g id="graph0" class="graph" transform="scale(1 1) rotate(0) translate(4 259)">
<title>src/replacements/iconv.c</title>
<polygon fill="white" stroke="none" points="-4,4 -4,-259 1133.19,-259 1133.19,4 -4,4"/>
<!-- Node0 -->
<g id="node1" class="node"><title>Node0</title>
<polygon fill="#bfbfbf" stroke="black" points="682.195,-235.5 682.195,-254.5 815.195,-254.5 815.195,-235.5 682.195,-235.5"/>
<text text-anchor="middle" x="748.695" y="-242.5" font-family="Helvetica,sans-Serif" font-size="10.00">src/replacements/iconv.c</text>
</g>
<!-- Node1 -->
<g id="node2" class="node"><title>Node1</title>
<g id="a_node2"><a xlink:href="a00362_source.html" target="_top" xlink:title="config.h">
<polygon fill="white" stroke="black" points="157.195,-0.5 157.195,-19.5 210.195,-19.5 210.195,-0.5 157.195,-0.5"/>
<text text-anchor="middle" x="183.695" y="-7.5" font-family="Helvetica,sans-Serif" font-size="10.00">config.h</text>
</a>
</g>
</g>
<!-- Node0&#45;&gt;Node1 -->
<g id="edge1" class="edge"><title>Node0&#45;&gt;Node1</title>
<path fill="none" stroke="midnightblue" d="M682.179,-242.356C554.687,-238.595 280.592,-227.391 190.695,-199 96.1887,-169.153 48.2376,-165.029 4.69475,-76 -22.6428,-20.1046 86.956,-11.2634 146.927,-10.5009"/>
<polygon fill="midnightblue" stroke="midnightblue" points="147.172,-13.9996 157.152,-10.4425 147.132,-6.99975 147.172,-13.9996"/>
</g>
<!-- Node2 -->
<g id="node3" class="node"><title>Node2</title>
<polygon fill="white" stroke="#bfbfbf" points="770.695,-174 770.695,-193 824.695,-193 824.695,-174 770.695,-174"/>
<text text-anchor="middle" x="797.695" y="-181" font-family="Helvetica,sans-Serif" font-size="10.00">assert.h</text>
</g>
<!-- Node0&#45;&gt;Node2 -->
<g id="edge2" class="edge"><title>Node0&#45;&gt;Node2</title>
<path fill="none" stroke="midnightblue" d="M755.715,-235.475C763.138,-226.462 775.027,-212.025 784.262,-200.812"/>
<polygon fill="midnightblue" stroke="midnightblue" points="787.032,-202.953 790.687,-193.009 781.628,-198.503 787.032,-202.953"/>
</g>
<!-- Node3 -->
<g id="node4" class="node"><title>Node3</title>
<polygon fill="white" stroke="#bfbfbf" points="842.695,-174 842.695,-193 892.695,-193 892.695,-174 842.695,-174"/>
<text text-anchor="middle" x="867.695" y="-181" font-family="Helvetica,sans-Serif" font-size="10.00">ctype.h</text>
</g>
<!-- Node0&#45;&gt;Node3 -->
<g id="edge3" class="edge"><title>Node0&#45;&gt;Node3</title>
<path fill="none" stroke="midnightblue" d="M765.745,-235.475C785.539,-225.578 818.411,-209.142 841.465,-197.615"/>
<polygon fill="midnightblue" stroke="midnightblue" points="843.298,-200.612 850.677,-193.009 840.167,-194.351 843.298,-200.612"/>
</g>
<!-- Node4 -->
<g id="node5" class="node"><title>Node4</title>
<g id="a_node5"><a xlink:href="a00431.html" target="_top" xlink:title="Main include file for libtds. ">
<polygon fill="white" stroke="black" points="556.195,-174 556.195,-193 631.195,-193 631.195,-174 556.195,-174"/>
<text text-anchor="middle" x="593.695" y="-181" font-family="Helvetica,sans-Serif" font-size="10.00">freetds/tds.h</text>
</a>
</g>
</g>
<!-- Node0&#45;&gt;Node4 -->
<g id="edge4" class="edge"><title>Node0&#45;&gt;Node4</title>
<path fill="none" stroke="midnightblue" d="M726.487,-235.475C700.014,-225.313 655.581,-208.256 625.475,-196.7"/>
<polygon fill="midnightblue" stroke="midnightblue" points="626.451,-193.325 615.861,-193.009 623.943,-199.86 626.451,-193.325"/>
</g>
<!-- Node22 -->
<g id="node23" class="node"><title>Node22</title>
<g id="a_node23"><a xlink:href="a00386_source.html" target="_top" xlink:title="freetds/bytes.h">
<polygon fill="white" stroke="black" points="910.695,-174 910.695,-193 996.695,-193 996.695,-174 910.695,-174"/>
<text text-anchor="middle" x="953.695" y="-181" font-family="Helvetica,sans-Serif" font-size="10.00">freetds/bytes.h</text>
</a>
</g>
</g>
<!-- Node0&#45;&gt;Node22 -->
<g id="edge37" class="edge"><title>Node0&#45;&gt;Node22</title>
<path fill="none" stroke="midnightblue" d="M778.066,-235.475C813.992,-225.048 874.927,-207.362 914.739,-195.807"/>
<polygon fill="midnightblue" stroke="midnightblue" points="915.75,-199.158 924.378,-193.009 913.798,-192.435 915.75,-199.158"/>
</g>
<!-- Node23 -->
<g id="node24" class="node"><title>Node23</title>
<g id="a_node24"><a xlink:href="a00404_source.html" target="_top" xlink:title="freetds/iconv.h">
<polygon fill="white" stroke="black" points="13.6948,-56.5 13.6948,-75.5 99.6948,-75.5 99.6948,-56.5 13.6948,-56.5"/>
<text text-anchor="middle" x="56.6948" y="-63.5" font-family="Helvetica,sans-Serif" font-size="10.00">freetds/iconv.h</text>
</a>
</g>
</g>
<!-- Node0&#45;&gt;Node23 -->
<g id="edge38" class="edge"><title>Node0&#45;&gt;Node23</title>
<path fill="none" stroke="midnightblue" d="M682.188,-239.092C536.881,-227.332 196.421,-193.823 100.695,-132 83.395,-120.827 71.1868,-100.194 64.0876,-85.1632"/>
<polygon fill="midnightblue" stroke="midnightblue" points="67.2168,-83.5843 59.9891,-75.8376 60.8084,-86.4007 67.2168,-83.5843"/>
</g>
<!-- Node24 -->
<g id="node25" class="node"><title>Node24</title>
<g id="a_node25"><a xlink:href="a00443_source.html" target="_top" xlink:title="freetds/utils/bjoern\l&#45;utf8.h">
<polygon fill="white" stroke="black" points="649.195,-168.5 649.195,-198.5 752.195,-198.5 752.195,-168.5 649.195,-168.5"/>
<text text-anchor="start" x="657.195" y="-186.5" font-family="Helvetica,sans-Serif" font-size="10.00">freetds/utils/bjoern</text>
<text text-anchor="middle" x="700.695" y="-175.5" font-family="Helvetica,sans-Serif" font-size="10.00">&#45;utf8.h</text>
</a>
</g>
</g>
<!-- Node0&#45;&gt;Node24 -->
<g id="edge41" class="edge"><title>Node0&#45;&gt;Node24</title>
<path fill="none" stroke="midnightblue" d="M741.818,-235.475C735.742,-227.944 726.611,-216.626 718.496,-206.566"/>
<polygon fill="midnightblue" stroke="midnightblue" points="721.01,-204.108 712.007,-198.523 715.562,-208.504 721.01,-204.108"/>
</g>
<!-- Node25 -->
<g id="node26" class="node"><title>Node25</title>
<g id="a_node26"><a xlink:href="a00194_source.html" target="_top" xlink:title="iconv_charsets.h">
<polygon fill="white" stroke="black" points="1014.69,-174 1014.69,-193 1110.69,-193 1110.69,-174 1014.69,-174"/>
<text text-anchor="middle" x="1062.69" y="-181" font-family="Helvetica,sans-Serif" font-size="10.00">iconv_charsets.h</text>
</a>
</g>
</g>
<!-- Node0&#45;&gt;Node25 -->
<g id="edge43" class="edge"><title>Node0&#45;&gt;Node25</title>
<path fill="none" stroke="midnightblue" d="M804.578,-235.467C856.797,-227.198 936.824,-213.767 1005.69,-199 1010.68,-197.93 1015.9,-196.726 1021.06,-195.48"/>
<polygon fill="midnightblue" stroke="midnightblue" points="1021.97,-198.858 1030.84,-193.057 1020.29,-192.063 1021.97,-198.858"/>
</g>
<!-- Node5 -->
<g id="node6" class="node"><title>Node5</title>
<polygon fill="white" stroke="#bfbfbf" points="308.195,-56.5 308.195,-75.5 363.195,-75.5 363.195,-56.5 308.195,-56.5"/>
<text text-anchor="middle" x="335.695" y="-63.5" font-family="Helvetica,sans-Serif" font-size="10.00">stdarg.h</text>
</g>
<!-- Node4&#45;&gt;Node5 -->
<g id="edge5" class="edge"><title>Node4&#45;&gt;Node5</title>
<path fill="none" stroke="midnightblue" d="M599.362,-173.993C608.247,-159.491 622.947,-129.825 607.695,-112 574.061,-72.6922 428.563,-85.4235 377.695,-76 376.228,-75.7283 374.735,-75.4442 373.227,-75.1511"/>
<polygon fill="midnightblue" stroke="midnightblue" points="373.709,-71.6778 363.213,-73.1267 372.321,-78.539 373.709,-71.6778"/>
</g>
<!-- Node6 -->
<g id="node7" class="node"><title>Node6</title>
<polygon fill="white" stroke="#bfbfbf" points="122.195,-112.5 122.195,-131.5 169.195,-131.5 169.195,-112.5 122.195,-112.5"/>
<text text-anchor="middle" x="145.695" y="-119.5" font-family="Helvetica,sans-Serif" font-size="10.00">stdio.h</text>
</g>
<!-- Node4&#45;&gt;Node6 -->
<g id="edge6" class="edge"><title>Node4&#45;&gt;Node6</title>
<path fill="none" stroke="midnightblue" d="M555.925,-179.751C484.303,-174.14 323.758,-159.665 179.32,-131.844"/>
<polygon fill="midnightblue" stroke="midnightblue" points="179.876,-128.386 169.39,-129.905 178.534,-135.256 179.876,-128.386"/>
</g>
<!-- Node7 -->
<g id="node8" class="node"><title>Node7</title>
<g id="a_node8"><a xlink:href="a00437_source.html" target="_top" xlink:title="time.h">
<polygon fill="white" stroke="black" points="187.695,-112.5 187.695,-131.5 231.695,-131.5 231.695,-112.5 187.695,-112.5"/>
<text text-anchor="middle" x="209.695" y="-119.5" font-family="Helvetica,sans-Serif" font-size="10.00">time.h</text>
</a>
</g>
</g>
<!-- Node4&#45;&gt;Node7 -->
<g id="edge7" class="edge"><title>Node4&#45;&gt;Node7</title>
<path fill="none" stroke="midnightblue" d="M555.953,-177.213C493.86,-168.423 366.307,-149.989 258.695,-132 253.392,-131.114 247.776,-130.127 242.311,-129.141"/>
<polygon fill="midnightblue" stroke="midnightblue" points="242.577,-125.632 232.11,-127.273 241.316,-132.517 242.577,-125.632"/>
</g>
<!-- Node8 -->
<g id="node9" class="node"><title>Node8</title>
<g id="a_node9"><a xlink:href="a00470_source.html" target="_top" xlink:title="freetds/version.h">
<polygon fill="white" stroke="black" points="268.195,-112.5 268.195,-131.5 363.195,-131.5 363.195,-112.5 268.195,-112.5"/>
<text text-anchor="middle" x="315.695" y="-119.5" font-family="Helvetica,sans-Serif" font-size="10.00">freetds/version.h</text>
</a>
</g>
</g>
<!-- Node4&#45;&gt;Node8 -->
<g id="edge9" class="edge"><title>Node4&#45;&gt;Node8</title>
<path fill="none" stroke="midnightblue" d="M555.913,-174.414C506.578,-163.855 420.088,-145.343 365.458,-133.651"/>
<polygon fill="midnightblue" stroke="midnightblue" points="366.155,-130.221 355.644,-131.55 364.69,-137.066 366.155,-130.221"/>
</g>
<!-- Node9 -->
<g id="node10" class="node"><title>Node9</title>
<g id="a_node10"><a xlink:href="a00506_source.html" target="_top" xlink:title="tds_sysdep_public.h">
<polygon fill="white" stroke="black" points="1018.19,-56.5 1018.19,-75.5 1129.19,-75.5 1129.19,-56.5 1018.19,-56.5"/>
<text text-anchor="middle" x="1073.69" y="-63.5" font-family="Helvetica,sans-Serif" font-size="10.00">tds_sysdep_public.h</text>
</a>
</g>
</g>
<!-- Node4&#45;&gt;Node9 -->
<g id="edge10" class="edge"><title>Node4&#45;&gt;Node9</title>
<path fill="none" stroke="midnightblue" d="M617.309,-173.952C624.42,-171.68 632.301,-169.455 639.695,-168 686.846,-158.719 1037.35,-166.607 1070.69,-132 1082.31,-119.942 1081.48,-100.058 1078.73,-85.4514"/>
<polygon fill="midnightblue" stroke="midnightblue" points="1082.09,-84.4737 1076.41,-75.5279 1075.27,-86.0611 1082.09,-84.4737"/>
</g>
<!-- Node11 -->
<g id="node12" class="node"><title>Node11</title>
<g id="a_node12"><a xlink:href="a00428_source.html" target="_top" xlink:title="freetds/sysdep_private.h">
<polygon fill="white" stroke="black" points="157.195,-56.5 157.195,-75.5 290.195,-75.5 290.195,-56.5 157.195,-56.5"/>
<text text-anchor="middle" x="223.695" y="-63.5" font-family="Helvetica,sans-Serif" font-size="10.00">freetds/sysdep_private.h</text>
</a>
</g>
</g>
<!-- Node4&#45;&gt;Node11 -->
<g id="edge12" class="edge"><title>Node4&#45;&gt;Node11</title>
<path fill="none" stroke="midnightblue" d="M594.186,-173.537C594.48,-158.346 592.65,-127.67 574.695,-112 572.115,-109.749 402.839,-88.8017 300.337,-76.2954"/>
<polygon fill="midnightblue" stroke="midnightblue" points="300.678,-72.8111 290.328,-75.0751 299.831,-79.7597 300.678,-72.8111"/>
</g>
<!-- Node12 -->
<g id="node13" class="node"><title>Node12</title>
<g id="a_node13"><a xlink:href="a00434_source.html" target="_top" xlink:title="freetds/thread.h">
<polygon fill="white" stroke="black" points="969.695,-112.5 969.695,-131.5 1061.69,-131.5 1061.69,-112.5 969.695,-112.5"/>
<text text-anchor="middle" x="1015.69" y="-119.5" font-family="Helvetica,sans-Serif" font-size="10.00">freetds/thread.h</text>
</a>
</g>
</g>
<!-- Node4&#45;&gt;Node12 -->
<g id="edge13" class="edge"><title>Node4&#45;&gt;Node12</title>
<path fill="none" stroke="midnightblue" d="M617.813,-173.941C624.799,-171.724 632.487,-169.532 639.695,-168 777.96,-138.617 815.556,-150.487 955.695,-132 956.958,-131.833 958.235,-131.662 959.523,-131.488"/>
<polygon fill="midnightblue" stroke="midnightblue" points="960.109,-134.94 969.53,-130.093 959.143,-128.007 960.109,-134.94"/>
</g>
<!-- Node13 -->
<g id="node14" class="node"><title>Node13</title>
<g id="a_node14"><a xlink:href="a00383_source.html" target="_top" xlink:title="freetds/bool.h">
<polygon fill="white" stroke="black" points="381.695,-112.5 381.695,-131.5 461.695,-131.5 461.695,-112.5 381.695,-112.5"/>
<text text-anchor="middle" x="421.695" y="-119.5" font-family="Helvetica,sans-Serif" font-size="10.00">freetds/bool.h</text>
</a>
</g>
</g>
<!-- Node4&#45;&gt;Node13 -->
<g id="edge15" class="edge"><title>Node4&#45;&gt;Node13</title>
<path fill="none" stroke="midnightblue" d="M569.051,-173.975C539.42,-163.725 489.51,-146.459 456.093,-134.899"/>
<polygon fill="midnightblue" stroke="midnightblue" points="456.887,-131.471 446.292,-131.509 454.599,-138.086 456.887,-131.471"/>
</g>
<!-- Node14 -->
<g id="node15" class="node"><title>Node14</title>
<g id="a_node15"><a xlink:href="a00407_source.html" target="_top" xlink:title="freetds/macros.h">
<polygon fill="white" stroke="black" points="889.195,-56.5 889.195,-75.5 984.195,-75.5 984.195,-56.5 889.195,-56.5"/>
<text text-anchor="middle" x="936.695" y="-63.5" font-family="Helvetica,sans-Serif" font-size="10.00">freetds/macros.h</text>
</a>
</g>
</g>
<!-- Node4&#45;&gt;Node14 -->
<g id="edge16" class="edge"><title>Node4&#45;&gt;Node14</title>
<path fill="none" stroke="midnightblue" d="M618.303,-173.851C625.162,-171.686 632.661,-169.543 639.695,-168 701.618,-154.416 875.99,-174.868 922.695,-132 935.3,-120.43 938.002,-100.469 938.043,-85.7112"/>
<polygon fill="midnightblue" stroke="midnightblue" points="941.538,-85.5307 937.675,-75.6654 934.543,-85.7867 941.538,-85.5307"/>
</g>
<!-- Node15 -->
<g id="node16" class="node"><title>Node15</title>
<g id="a_node16"><a xlink:href="a00464_source.html" target="_top" xlink:title="freetds/utils/string.h">
<polygon fill="white" stroke="black" points="805.695,-112.5 805.695,-131.5 913.695,-131.5 913.695,-112.5 805.695,-112.5"/>
<text text-anchor="middle" x="859.695" y="-119.5" font-family="Helvetica,sans-Serif" font-size="10.00">freetds/utils/string.h</text>
</a>
</g>
</g>
<!-- Node4&#45;&gt;Node15 -->
<g id="edge17" class="edge"><title>Node4&#45;&gt;Node15</title>
<path fill="none" stroke="midnightblue" d="M619.348,-173.897C625.94,-171.829 633.048,-169.722 639.695,-168 693.612,-154.028 755.871,-141.635 800.366,-133.411"/>
<polygon fill="midnightblue" stroke="midnightblue" points="801.224,-136.812 810.428,-131.566 799.961,-129.927 801.224,-136.812"/>
</g>
<!-- Node16 -->
<g id="node17" class="node"><title>Node16</title>
<g id="a_node17"><a xlink:href="a00419_source.html" target="_top" xlink:title="freetds/pushvis.h">
<polygon fill="white" stroke="black" points="384.695,-0.5 384.695,-19.5 480.695,-19.5 480.695,-0.5 384.695,-0.5"/>
<text text-anchor="middle" x="432.695" y="-7.5" font-family="Helvetica,sans-Serif" font-size="10.00">freetds/pushvis.h</text>
</a>
</g>
</g>
<!-- Node4&#45;&gt;Node16 -->
<g id="edge34" class="edge"><title>Node4&#45;&gt;Node16</title>
<path fill="none" stroke="midnightblue" d="M555.929,-181.38C447.693,-177.785 142.228,-164.797 112.695,-132 89.3233,-106.046 121.902,-73.0609 147.695,-56 183.932,-32.0303 301.919,-19.8828 374.229,-14.5416"/>
<polygon fill="midnightblue" stroke="midnightblue" points="374.827,-18.0079 384.551,-13.8024 374.326,-11.0258 374.827,-18.0079"/>
</g>
<!-- Node17 -->
<g id="node18" class="node"><title>Node17</title>
<g id="a_node18"><a xlink:href="a00413_source.html" target="_top" xlink:title="freetds/popvis.h">
<polygon fill="white" stroke="black" points="677.695,-0.5 677.695,-19.5 769.695,-19.5 769.695,-0.5 677.695,-0.5"/>
<text text-anchor="middle" x="723.695" y="-7.5" font-family="Helvetica,sans-Serif" font-size="10.00">freetds/popvis.h</text>
</a>
</g>
</g>
<!-- Node4&#45;&gt;Node17 -->
<g id="edge36" class="edge"><title>Node4&#45;&gt;Node17</title>
<path fill="none" stroke="midnightblue" d="M620.924,-173.871C627.093,-171.929 633.617,-169.885 639.695,-168 692.065,-151.758 718.328,-170.166 757.695,-132 782.693,-107.765 791.317,-87.5979 776.695,-56 770.775,-43.2072 759.227,-32.7216 748.417,-25.1003"/>
<polygon fill="midnightblue" stroke="midnightblue" points="750.313,-22.1581 740.028,-19.613 746.481,-28.0161 750.313,-22.1581"/>
</g>
<!-- Node18 -->
<g id="node19" class="node"><title>Node18</title>
<g id="a_node19"><a xlink:href="a00485_source.html" target="_top" xlink:title="replacements.h">
<polygon fill="white" stroke="black" points="660.195,-112.5 660.195,-131.5 749.195,-131.5 749.195,-112.5 660.195,-112.5"/>
<text text-anchor="middle" x="704.695" y="-119.5" font-family="Helvetica,sans-Serif" font-size="10.00">replacements.h</text>
</a>
</g>
</g>
<!-- Node4&#45;&gt;Node18 -->
<g id="edge21" class="edge"><title>Node4&#45;&gt;Node18</title>
<path fill="none" stroke="midnightblue" d="M609.598,-173.975C627.979,-164.122 658.451,-147.788 679.939,-136.27"/>
<polygon fill="midnightblue" stroke="midnightblue" points="681.661,-139.318 688.821,-131.509 678.353,-133.149 681.661,-139.318"/>
</g>
<!-- Node21 -->
<g id="node22" class="node"><title>Node21</title>
<g id="a_node22"><a xlink:href="a00416_source.html" target="_top" xlink:title="freetds/proto.h">
<polygon fill="white" stroke="black" points="479.695,-112.5 479.695,-131.5 565.695,-131.5 565.695,-112.5 479.695,-112.5"/>
<text text-anchor="middle" x="522.695" y="-119.5" font-family="Helvetica,sans-Serif" font-size="10.00">freetds/proto.h</text>
</a>
</g>
</g>
<!-- Node4&#45;&gt;Node21 -->
<g id="edge35" class="edge"><title>Node4&#45;&gt;Node21</title>
<path fill="none" stroke="midnightblue" d="M583.522,-173.975C572.345,-164.608 554.178,-149.384 540.604,-138.008"/>
<polygon fill="midnightblue" stroke="midnightblue" points="542.761,-135.25 532.848,-131.509 538.265,-140.615 542.761,-135.25"/>
</g>
<!-- Node7&#45;&gt;Node7 -->
<g id="edge8" class="edge"><title>Node7&#45;&gt;Node7</title>
<path fill="none" stroke="midnightblue" d="M226.963,-131.575C238.482,-134.27 249.695,-131.078 249.695,-122 249.695,-115.759 244.395,-112.3 237.34,-111.623"/>
<polygon fill="midnightblue" stroke="midnightblue" points="236.664,-108.165 226.963,-112.425 237.203,-115.144 236.664,-108.165"/>
</g>
<!-- Node10 -->
<g id="node11" class="node"><title>Node10</title>
<polygon fill="white" stroke="#bfbfbf" points="1051.19,-0.5 1051.19,-19.5 1096.19,-19.5 1096.19,-0.5 1051.19,-0.5"/>
<text text-anchor="middle" x="1073.69" y="-7.5" font-family="Helvetica,sans-Serif" font-size="10.00">float.h</text>
</g>
<!-- Node9&#45;&gt;Node10 -->
<g id="edge11" class="edge"><title>Node9&#45;&gt;Node10</title>
<path fill="none" stroke="midnightblue" d="M1073.69,-56.083C1073.69,-49.0059 1073.69,-38.8611 1073.69,-29.9865"/>
<polygon fill="midnightblue" stroke="midnightblue" points="1077.19,-29.751 1073.69,-19.7511 1070.19,-29.7511 1077.19,-29.751"/>
</g>
<!-- Node12&#45;&gt;Node9 -->
<g id="edge14" class="edge"><title>Node12&#45;&gt;Node9</title>
<path fill="none" stroke="midnightblue" d="M1025.01,-112.324C1033.59,-104.341 1046.51,-92.3128 1056.88,-82.6529"/>
<polygon fill="midnightblue" stroke="midnightblue" points="1059.27,-85.2098 1064.21,-75.8339 1054.5,-80.0865 1059.27,-85.2098"/>
</g>
<!-- Node15&#45;&gt;Node14 -->
<g id="edge18" class="edge"><title>Node15&#45;&gt;Node14</title>
<path fill="none" stroke="midnightblue" d="M872.066,-112.324C883.853,-104.058 901.827,-91.4527 915.83,-81.6322"/>
<polygon fill="midnightblue" stroke="midnightblue" points="918.176,-84.2619 924.354,-75.6545 914.157,-78.5307 918.176,-84.2619"/>
</g>
<!-- Node15&#45;&gt;Node16 -->
<g id="edge19" class="edge"><title>Node15&#45;&gt;Node16</title>
<path fill="none" stroke="midnightblue" d="M805.639,-114.711C735.065,-106.118 615.6,-90.1575 573.695,-76 555.985,-70.0168 553.511,-64.1638 536.695,-56 512.402,-44.2066 484.261,-32.123 463.383,-23.4509"/>
<polygon fill="midnightblue" stroke="midnightblue" points="464.632,-20.1804 454.053,-19.602 461.963,-26.6513 464.632,-20.1804"/>
</g>
<!-- Node15&#45;&gt;Node17 -->
<g id="edge20" class="edge"><title>Node15&#45;&gt;Node17</title>
<path fill="none" stroke="midnightblue" d="M858.112,-112.238C855.206,-98.5176 847.777,-71.8907 831.695,-56 815.615,-40.1113 793.105,-29.5327 772.795,-22.65"/>
<polygon fill="midnightblue" stroke="midnightblue" points="773.629,-19.2429 763.039,-19.5611 771.516,-25.9164 773.629,-19.2429"/>
</g>
<!-- Node18&#45;&gt;Node5 -->
<g id="edge22" class="edge"><title>Node18&#45;&gt;Node5</title>
<path fill="none" stroke="midnightblue" d="M659.929,-114.086C655.126,-113.369 650.31,-112.662 645.695,-112 526.731,-94.9378 496.096,-96.6062 377.695,-76 376.225,-75.7443 374.729,-75.4736 373.22,-75.1918"/>
<polygon fill="midnightblue" stroke="midnightblue" points="373.686,-71.7165 363.198,-73.2129 372.33,-78.5839 373.686,-71.7165"/>
</g>
<!-- Node18&#45;&gt;Node9 -->
<g id="edge23" class="edge"><title>Node18&#45;&gt;Node9</title>
<path fill="none" stroke="midnightblue" d="M749.205,-114.486C813.555,-105.069 933.024,-87.586 1007.66,-76.663"/>
<polygon fill="midnightblue" stroke="midnightblue" points="1008.5,-80.0779 1017.89,-75.1667 1007.49,-73.1517 1008.5,-80.0779"/>
</g>
<!-- Node18&#45;&gt;Node11 -->
<g id="edge24" class="edge"><title>Node18&#45;&gt;Node11</title>
<path fill="none" stroke="midnightblue" d="M659.922,-116.171C586.924,-108.269 437.438,-91.9654 300.596,-76.2116"/>
<polygon fill="midnightblue" stroke="midnightblue" points="300.682,-72.6985 290.347,-75.03 299.881,-79.6524 300.682,-72.6985"/>
</g>
<!-- Node18&#45;&gt;Node16 -->
<g id="edge32" class="edge"><title>Node18&#45;&gt;Node16</title>
<path fill="none" stroke="midnightblue" d="M659.957,-115.694C579.686,-105.96 418.757,-85.3903 410.695,-76 398.869,-62.2268 408.915,-41.8214 418.986,-27.5585"/>
<polygon fill="midnightblue" stroke="midnightblue" points="421.785,-29.6604 425.064,-19.5859 416.218,-25.4163 421.785,-29.6604"/>
</g>
<!-- Node18&#45;&gt;Node17 -->
<g id="edge33" class="edge"><title>Node18&#45;&gt;Node17</title>
<path fill="none" stroke="midnightblue" d="M722.196,-112.465C735.482,-104.917 752.771,-92.5333 760.695,-76 769.046,-58.5767 755.189,-39.4481 742.119,-26.4829"/>
<polygon fill="midnightblue" stroke="midnightblue" points="744.41,-23.834 734.688,-19.6208 739.66,-28.9766 744.41,-23.834"/>
</g>
<!-- Node19 -->
<g id="node20" class="node"><title>Node19</title>
<g id="a_node20"><a xlink:href="a00482_source.html" target="_top" xlink:title="replacements/readpassphrase.h">
<polygon fill="white" stroke="black" points="583.195,-56.5 583.195,-75.5 752.195,-75.5 752.195,-56.5 583.195,-56.5"/>
<text text-anchor="middle" x="667.695" y="-63.5" font-family="Helvetica,sans-Serif" font-size="10.00">replacements/readpassphrase.h</text>
</a>
</g>
</g>
<!-- Node18&#45;&gt;Node19 -->
<g id="edge25" class="edge"><title>Node18&#45;&gt;Node19</title>
<path fill="none" stroke="midnightblue" d="M698.585,-112.083C693.413,-104.534 685.849,-93.4948 679.5,-84.2298"/>
<polygon fill="midnightblue" stroke="midnightblue" points="682.23,-82.0221 673.691,-75.7511 676.456,-85.9787 682.23,-82.0221"/>
</g>
<!-- Node20 -->
<g id="node21" class="node"><title>Node20</title>
<g id="a_node21"><a xlink:href="a00479.html" target="_top" xlink:title="Provide poll call where missing. ">
<polygon fill="white" stroke="black" points="419.695,-56.5 419.695,-75.5 527.695,-75.5 527.695,-56.5 419.695,-56.5"/>
<text text-anchor="middle" x="473.695" y="-63.5" font-family="Helvetica,sans-Serif" font-size="10.00">replacements/poll.h</text>
</a>
</g>
</g>
<!-- Node18&#45;&gt;Node20 -->
<g id="edge28" class="edge"><title>Node18&#45;&gt;Node20</title>
<path fill="none" stroke="midnightblue" d="M668.092,-112.444C627.964,-103.063 563.497,-87.9926 519.91,-77.8036"/>
<polygon fill="midnightblue" stroke="midnightblue" points="520.66,-74.3847 510.126,-75.5164 519.067,-81.2009 520.66,-74.3847"/>
</g>
<!-- Node19&#45;&gt;Node16 -->
<g id="edge26" class="edge"><title>Node19&#45;&gt;Node16</title>
<path fill="none" stroke="midnightblue" d="M630.458,-56.4435C589.635,-47.0629 524.052,-31.9926 479.71,-21.8036"/>
<polygon fill="midnightblue" stroke="midnightblue" points="480.287,-18.3449 469.757,-19.5164 478.719,-25.1671 480.287,-18.3449"/>
</g>
<!-- Node19&#45;&gt;Node17 -->
<g id="edge27" class="edge"><title>Node19&#45;&gt;Node17</title>
<path fill="none" stroke="midnightblue" d="M676.692,-56.324C684.889,-48.4196 697.2,-36.5482 707.167,-26.9377"/>
<polygon fill="midnightblue" stroke="midnightblue" points="709.765,-29.2947 714.534,-19.8339 704.906,-24.2558 709.765,-29.2947"/>
</g>
<!-- Node20&#45;&gt;Node1 -->
<g id="edge29" class="edge"><title>Node20&#45;&gt;Node1</title>
<path fill="none" stroke="midnightblue" d="M427.743,-56.4435C370.247,-45.7374 272.951,-27.6202 220.249,-17.8067"/>
<polygon fill="midnightblue" stroke="midnightblue" points="220.8,-14.3491 210.328,-15.9593 219.518,-21.2309 220.8,-14.3491"/>
</g>
<!-- Node20&#45;&gt;Node16 -->
<g id="edge30" class="edge"><title>Node20&#45;&gt;Node16</title>
<path fill="none" stroke="midnightblue" d="M466.924,-56.083C461.133,-48.4554 452.636,-37.2645 445.557,-27.9408"/>
<polygon fill="midnightblue" stroke="midnightblue" points="448.174,-25.5991 439.339,-19.7511 442.599,-29.8321 448.174,-25.5991"/>
</g>
<!-- Node20&#45;&gt;Node17 -->
<g id="edge31" class="edge"><title>Node20&#45;&gt;Node17</title>
<path fill="none" stroke="midnightblue" d="M513.308,-56.4435C556.92,-47.0234 627.095,-31.8656 674.273,-21.6752"/>
<polygon fill="midnightblue" stroke="midnightblue" points="675.231,-25.0489 684.267,-19.5164 673.753,-18.2067 675.231,-25.0489"/>
</g>
<!-- Node23&#45;&gt;Node16 -->
<g id="edge39" class="edge"><title>Node23&#45;&gt;Node16</title>
<path fill="none" stroke="midnightblue" d="M99.9432,-58.0947C104.584,-57.3767 109.236,-56.6665 113.695,-56 204.607,-42.4114 310.267,-27.7234 374.268,-18.9482"/>
<polygon fill="midnightblue" stroke="midnightblue" points="375.128,-22.3633 384.56,-17.5388 374.178,-15.428 375.128,-22.3633"/>
</g>
<!-- Node23&#45;&gt;Node17 -->
<g id="edge40" class="edge"><title>Node23&#45;&gt;Node17</title>
<path fill="none" stroke="midnightblue" d="M99.7281,-60.5603C114.883,-59.0455 132.039,-57.3856 147.695,-56 337.99,-39.1582 563.953,-22.4685 667.182,-15.0267"/>
<polygon fill="midnightblue" stroke="midnightblue" points="667.654,-18.5018 677.377,-14.293 667.152,-11.5199 667.654,-18.5018"/>
</g>
<!-- Node24&#45;&gt;Node9 -->
<g id="edge42" class="edge"><title>Node24&#45;&gt;Node9</title>
<path fill="none" stroke="midnightblue" d="M752.516,-169.703C755.613,-169.087 758.69,-168.513 761.695,-168 837.024,-155.137 1052.56,-188.795 1103.69,-132 1116.35,-117.947 1103.36,-97.6398 1090.75,-83.4757"/>
<polygon fill="midnightblue" stroke="midnightblue" points="1092.99,-80.7594 1083.56,-75.9396 1087.93,-85.5912 1092.99,-80.7594"/>
</g>
</g>
</svg>
