<?xml version="1.0" encoding="UTF-8" standalone="no"?>
<!DOCTYPE svg PUBLIC "-//W3C//DTD SVG 1.1//EN"
 "http://www.w3.org/Graphics/SVG/1.1/DTD/svg11.dtd">
<!-- Generated by graphviz version 2.38.0 (20140413.2041)
 -->
<!-- Title: src/tds/stream.c Pages: 1 -->
<svg width="1219pt" height="252pt"
 viewBox="0.00 0.00 1218.51 252.00" xmlns="http://www.w3.org/2000/svg" xmlns:xlink="http://www.w3.org/1999/xlink">
<g id="graph0" class="graph" transform="scale(1 1) rotate(0) translate(4 248)">
<title>src/tds/stream.c</title>
<polygon fill="white" stroke="none" points="-4,4 -4,-248 1214.51,-248 1214.51,4 -4,4"/>
<!-- Node0 -->
<g id="node1" class="node"><title>Node0</title>
<polygon fill="#bfbfbf" stroke="black" points="532.513,-224.5 532.513,-243.5 623.513,-243.5 623.513,-224.5 532.513,-224.5"/>
<text text-anchor="middle" x="578.013" y="-231.5" font-family="Helvetica,sans-Serif" font-size="10.00">src/tds/stream.c</text>
</g>
<!-- Node1 -->
<g id="node2" class="node"><title>Node1</title>
<g id="a_node2"><a xlink:href="a00362_source.html" target="_top" xlink:title="config.h">
<polygon fill="white" stroke="black" points="176.513,-0.5 176.513,-19.5 229.513,-19.5 229.513,-0.5 176.513,-0.5"/>
<text text-anchor="middle" x="203.013" y="-7.5" font-family="Helvetica,sans-Serif" font-size="10.00">config.h</text>
</a>
</g>
</g>
<!-- Node0&#45;&gt;Node1 -->
<g id="edge1" class="edge"><title>Node0&#45;&gt;Node1</title>
<path fill="none" stroke="midnightblue" d="M532.246,-231.994C410.24,-228.25 81.9943,-210.896 16.013,-132 -5.65637,-106.089 -4.89151,-82.5318 16.013,-56 34.3517,-32.7248 117.14,-20.0935 166.202,-14.5346"/>
<polygon fill="midnightblue" stroke="midnightblue" points="166.855,-17.9843 176.418,-13.4237 166.098,-11.0253 166.855,-17.9843"/>
</g>
<!-- Node2 -->
<g id="node3" class="node"><title>Node2</title>
<polygon fill="white" stroke="#bfbfbf" points="468.013,-168.5 468.013,-187.5 522.013,-187.5 522.013,-168.5 468.013,-168.5"/>
<text text-anchor="middle" x="495.013" y="-175.5" font-family="Helvetica,sans-Serif" font-size="10.00">assert.h</text>
</g>
<!-- Node0&#45;&gt;Node2 -->
<g id="edge2" class="edge"><title>Node0&#45;&gt;Node2</title>
<path fill="none" stroke="midnightblue" d="M564.678,-224.324C551.851,-215.979 532.228,-203.212 517.073,-193.352"/>
<polygon fill="midnightblue" stroke="midnightblue" points="518.606,-190.174 508.315,-187.655 514.789,-196.042 518.606,-190.174"/>
</g>
<!-- Node3 -->
<g id="node4" class="node"><title>Node3</title>
<g id="a_node4"><a xlink:href="a00431.html" target="_top" xlink:title="Main include file for libtds. ">
<polygon fill="white" stroke="black" points="540.513,-168.5 540.513,-187.5 615.513,-187.5 615.513,-168.5 540.513,-168.5"/>
<text text-anchor="middle" x="578.013" y="-175.5" font-family="Helvetica,sans-Serif" font-size="10.00">freetds/tds.h</text>
</a>
</g>
</g>
<!-- Node0&#45;&gt;Node3 -->
<g id="edge3" class="edge"><title>Node0&#45;&gt;Node3</title>
<path fill="none" stroke="midnightblue" d="M578.013,-224.083C578.013,-217.006 578.013,-206.861 578.013,-197.986"/>
<polygon fill="midnightblue" stroke="midnightblue" points="581.513,-197.751 578.013,-187.751 574.513,-197.751 581.513,-197.751"/>
</g>
<!-- Node21 -->
<g id="node22" class="node"><title>Node21</title>
<g id="a_node22"><a xlink:href="a00404_source.html" target="_top" xlink:title="freetds/iconv.h">
<polygon fill="white" stroke="black" points="1013.01,-56.5 1013.01,-75.5 1099.01,-75.5 1099.01,-56.5 1013.01,-56.5"/>
<text text-anchor="middle" x="1056.01" y="-63.5" font-family="Helvetica,sans-Serif" font-size="10.00">freetds/iconv.h</text>
</a>
</g>
</g>
<!-- Node0&#45;&gt;Node21 -->
<g id="edge36" class="edge"><title>Node0&#45;&gt;Node21</title>
<path fill="none" stroke="midnightblue" d="M623.63,-232.508C707.05,-229.537 886.833,-213.359 1009.01,-132 1026.53,-120.336 1039.74,-99.7909 1047.63,-84.9156"/>
<polygon fill="midnightblue" stroke="midnightblue" points="1050.9,-86.2126 1052.23,-75.7018 1044.63,-83.0876 1050.9,-86.2126"/>
</g>
<!-- Node22 -->
<g id="node23" class="node"><title>Node22</title>
<g id="a_node23"><a xlink:href="a00425_source.html" target="_top" xlink:title="freetds/stream.h">
<polygon fill="white" stroke="black" points="1117.51,-56.5 1117.51,-75.5 1210.51,-75.5 1210.51,-56.5 1117.51,-56.5"/>
<text text-anchor="middle" x="1164.01" y="-63.5" font-family="Helvetica,sans-Serif" font-size="10.00">freetds/stream.h</text>
</a>
</g>
</g>
<!-- Node0&#45;&gt;Node22 -->
<g id="edge39" class="edge"><title>Node0&#45;&gt;Node22</title>
<path fill="none" stroke="midnightblue" d="M623.525,-232.317C691.985,-230.161 824.858,-221.569 932.013,-188 1015.09,-161.975 1103.79,-107.109 1143.15,-81.1646"/>
<polygon fill="midnightblue" stroke="midnightblue" points="1145.25,-83.9693 1151.63,-75.5123 1141.37,-78.1436 1145.25,-83.9693"/>
</g>
<!-- Node4 -->
<g id="node5" class="node"><title>Node4</title>
<polygon fill="white" stroke="#bfbfbf" points="772.513,-56.5 772.513,-75.5 827.513,-75.5 827.513,-56.5 772.513,-56.5"/>
<text text-anchor="middle" x="800.013" y="-63.5" font-family="Helvetica,sans-Serif" font-size="10.00">stdarg.h</text>
</g>
<!-- Node3&#45;&gt;Node4 -->
<g id="edge4" class="edge"><title>Node3&#45;&gt;Node4</title>
<path fill="none" stroke="midnightblue" d="M602.747,-168.437C625.973,-160.097 661.472,-146.576 691.013,-132 722.479,-116.475 756.977,-95.1121 778.558,-81.1823"/>
<polygon fill="midnightblue" stroke="midnightblue" points="780.499,-84.0952 786.97,-75.7061 776.68,-78.2288 780.499,-84.0952"/>
</g>
<!-- Node5 -->
<g id="node6" class="node"><title>Node5</title>
<polygon fill="white" stroke="#bfbfbf" points="554.513,-112.5 554.513,-131.5 601.513,-131.5 601.513,-112.5 554.513,-112.5"/>
<text text-anchor="middle" x="578.013" y="-119.5" font-family="Helvetica,sans-Serif" font-size="10.00">stdio.h</text>
</g>
<!-- Node3&#45;&gt;Node5 -->
<g id="edge5" class="edge"><title>Node3&#45;&gt;Node5</title>
<path fill="none" stroke="midnightblue" d="M578.013,-168.083C578.013,-161.006 578.013,-150.861 578.013,-141.986"/>
<polygon fill="midnightblue" stroke="midnightblue" points="581.513,-141.751 578.013,-131.751 574.513,-141.751 581.513,-141.751"/>
</g>
<!-- Node6 -->
<g id="node7" class="node"><title>Node6</title>
<g id="a_node7"><a xlink:href="a00437_source.html" target="_top" xlink:title="time.h">
<polygon fill="white" stroke="black" points="620.013,-112.5 620.013,-131.5 664.013,-131.5 664.013,-112.5 620.013,-112.5"/>
<text text-anchor="middle" x="642.013" y="-119.5" font-family="Helvetica,sans-Serif" font-size="10.00">time.h</text>
</a>
</g>
</g>
<!-- Node3&#45;&gt;Node6 -->
<g id="edge6" class="edge"><title>Node3&#45;&gt;Node6</title>
<path fill="none" stroke="midnightblue" d="M588.296,-168.324C597.849,-160.263 612.293,-148.077 623.797,-138.369"/>
<polygon fill="midnightblue" stroke="midnightblue" points="626.157,-140.958 631.543,-131.834 621.643,-135.608 626.157,-140.958"/>
</g>
<!-- Node7 -->
<g id="node8" class="node"><title>Node7</title>
<g id="a_node8"><a xlink:href="a00470_source.html" target="_top" xlink:title="freetds/version.h">
<polygon fill="white" stroke="black" points="776.513,-112.5 776.513,-131.5 871.513,-131.5 871.513,-112.5 776.513,-112.5"/>
<text text-anchor="middle" x="824.013" y="-119.5" font-family="Helvetica,sans-Serif" font-size="10.00">freetds/version.h</text>
</a>
</g>
</g>
<!-- Node3&#45;&gt;Node7 -->
<g id="edge8" class="edge"><title>Node3&#45;&gt;Node7</title>
<path fill="none" stroke="midnightblue" d="M615.643,-168.74C658.402,-159.354 728.321,-144.005 775.234,-133.708"/>
<polygon fill="midnightblue" stroke="midnightblue" points="776.152,-137.09 785.169,-131.527 774.651,-130.252 776.152,-137.09"/>
</g>
<!-- Node8 -->
<g id="node9" class="node"><title>Node8</title>
<g id="a_node9"><a xlink:href="a00506_source.html" target="_top" xlink:title="tds_sysdep_public.h">
<polygon fill="white" stroke="black" points="845.513,-56.5 845.513,-75.5 956.513,-75.5 956.513,-56.5 845.513,-56.5"/>
<text text-anchor="middle" x="901.013" y="-63.5" font-family="Helvetica,sans-Serif" font-size="10.00">tds_sysdep_public.h</text>
</a>
</g>
</g>
<!-- Node3&#45;&gt;Node8 -->
<g id="edge9" class="edge"><title>Node3&#45;&gt;Node8</title>
<path fill="none" stroke="midnightblue" d="M610.051,-168.485C639.92,-160.228 685.517,-146.806 724.013,-132 743.685,-124.434 747.437,-119.812 767.013,-112 798.744,-99.3382 835.592,-87.1399 862.607,-78.6454"/>
<polygon fill="midnightblue" stroke="midnightblue" points="863.943,-81.8951 872.448,-75.5779 861.86,-75.2123 863.943,-81.8951"/>
</g>
<!-- Node10 -->
<g id="node11" class="node"><title>Node10</title>
<g id="a_node11"><a xlink:href="a00428_source.html" target="_top" xlink:title="freetds/sysdep_private.h">
<polygon fill="white" stroke="black" points="232.513,-56.5 232.513,-75.5 365.513,-75.5 365.513,-56.5 232.513,-56.5"/>
<text text-anchor="middle" x="299.013" y="-63.5" font-family="Helvetica,sans-Serif" font-size="10.00">freetds/sysdep_private.h</text>
</a>
</g>
</g>
<!-- Node3&#45;&gt;Node10 -->
<g id="edge11" class="edge"><title>Node3&#45;&gt;Node10</title>
<path fill="none" stroke="midnightblue" d="M540.309,-169.748C537.165,-169.153 534.035,-168.564 531.013,-168 443.089,-151.589 405.055,-185.009 333.013,-132 317.66,-120.703 308.638,-100.397 303.791,-85.4785"/>
<polygon fill="midnightblue" stroke="midnightblue" points="307.122,-84.3984 300.97,-75.7731 300.401,-86.3526 307.122,-84.3984"/>
</g>
<!-- Node11 -->
<g id="node12" class="node"><title>Node11</title>
<g id="a_node12"><a xlink:href="a00434_source.html" target="_top" xlink:title="freetds/thread.h">
<polygon fill="white" stroke="black" points="890.013,-112.5 890.013,-131.5 982.013,-131.5 982.013,-112.5 890.013,-112.5"/>
<text text-anchor="middle" x="936.013" y="-119.5" font-family="Helvetica,sans-Serif" font-size="10.00">freetds/thread.h</text>
</a>
</g>
</g>
<!-- Node3&#45;&gt;Node11 -->
<g id="edge12" class="edge"><title>Node3&#45;&gt;Node11</title>
<path fill="none" stroke="midnightblue" d="M615.699,-171.526C671.029,-163.458 777.768,-147.776 879.709,-132.031"/>
<polygon fill="midnightblue" stroke="midnightblue" points="880.528,-135.446 889.875,-130.458 879.457,-128.528 880.528,-135.446"/>
</g>
<!-- Node12 -->
<g id="node13" class="node"><title>Node12</title>
<g id="a_node13"><a xlink:href="a00383_source.html" target="_top" xlink:title="freetds/bool.h">
<polygon fill="white" stroke="black" points="42.013,-112.5 42.013,-131.5 122.013,-131.5 122.013,-112.5 42.013,-112.5"/>
<text text-anchor="middle" x="82.013" y="-119.5" font-family="Helvetica,sans-Serif" font-size="10.00">freetds/bool.h</text>
</a>
</g>
</g>
<!-- Node3&#45;&gt;Node12 -->
<g id="edge14" class="edge"><title>Node3&#45;&gt;Node12</title>
<path fill="none" stroke="midnightblue" d="M540.357,-169.452C537.203,-168.922 534.057,-168.429 531.013,-168 356.456,-143.393 310.854,-154.506 136.013,-132 134.74,-131.836 133.452,-131.665 132.153,-131.487"/>
<polygon fill="midnightblue" stroke="midnightblue" points="132.469,-127.996 122.069,-130.016 131.459,-134.923 132.469,-127.996"/>
</g>
<!-- Node13 -->
<g id="node14" class="node"><title>Node13</title>
<g id="a_node14"><a xlink:href="a00407_source.html" target="_top" xlink:title="freetds/macros.h">
<polygon fill="white" stroke="black" points="42.513,-56.5 42.513,-75.5 137.513,-75.5 137.513,-56.5 42.513,-56.5"/>
<text text-anchor="middle" x="90.013" y="-63.5" font-family="Helvetica,sans-Serif" font-size="10.00">freetds/macros.h</text>
</a>
</g>
</g>
<!-- Node3&#45;&gt;Node13 -->
<g id="edge15" class="edge"><title>Node3&#45;&gt;Node13</title>
<path fill="none" stroke="midnightblue" d="M540.353,-169.479C537.2,-168.944 534.055,-168.442 531.013,-168 371.008,-144.772 318.32,-194.038 169.013,-132 142.996,-121.19 118.89,-98.8201 104.315,-83.3666"/>
<polygon fill="midnightblue" stroke="midnightblue" points="106.569,-80.6443 97.247,-75.6102 101.395,-85.3591 106.569,-80.6443"/>
</g>
<!-- Node14 -->
<g id="node15" class="node"><title>Node14</title>
<g id="a_node15"><a xlink:href="a00464_source.html" target="_top" xlink:title="freetds/utils/string.h">
<polygon fill="white" stroke="black" points="178.013,-112.5 178.013,-131.5 286.013,-131.5 286.013,-112.5 178.013,-112.5"/>
<text text-anchor="middle" x="232.013" y="-119.5" font-family="Helvetica,sans-Serif" font-size="10.00">freetds/utils/string.h</text>
</a>
</g>
</g>
<!-- Node3&#45;&gt;Node14 -->
<g id="edge16" class="edge"><title>Node3&#45;&gt;Node14</title>
<path fill="none" stroke="midnightblue" d="M540.327,-169.647C537.179,-169.074 534.043,-168.518 531.013,-168 450.305,-154.205 356.948,-140.515 296.317,-131.923"/>
<polygon fill="midnightblue" stroke="midnightblue" points="296.523,-128.417 286.132,-130.484 295.544,-135.349 296.523,-128.417"/>
</g>
<!-- Node15 -->
<g id="node16" class="node"><title>Node15</title>
<g id="a_node16"><a xlink:href="a00419_source.html" target="_top" xlink:title="freetds/pushvis.h">
<polygon fill="white" stroke="black" points="696.013,-0.5 696.013,-19.5 792.013,-19.5 792.013,-0.5 696.013,-0.5"/>
<text text-anchor="middle" x="744.013" y="-7.5" font-family="Helvetica,sans-Serif" font-size="10.00">freetds/pushvis.h</text>
</a>
</g>
</g>
<!-- Node3&#45;&gt;Node15 -->
<g id="edge33" class="edge"><title>Node3&#45;&gt;Node15</title>
<path fill="none" stroke="midnightblue" d="M615.577,-175.712C712.672,-171.999 966.151,-159.718 991.013,-132 1010.51,-110.263 986.792,-73.2011 965.013,-56 940.229,-36.4254 858.927,-23.6519 802.176,-16.8808"/>
<polygon fill="midnightblue" stroke="midnightblue" points="802.574,-13.4036 792.237,-15.7259 801.766,-20.3568 802.574,-13.4036"/>
</g>
<!-- Node16 -->
<g id="node17" class="node"><title>Node16</title>
<g id="a_node17"><a xlink:href="a00413_source.html" target="_top" xlink:title="freetds/popvis.h">
<polygon fill="white" stroke="black" points="474.013,-0.5 474.013,-19.5 566.013,-19.5 566.013,-0.5 474.013,-0.5"/>
<text text-anchor="middle" x="520.013" y="-7.5" font-family="Helvetica,sans-Serif" font-size="10.00">freetds/popvis.h</text>
</a>
</g>
</g>
<!-- Node3&#45;&gt;Node16 -->
<g id="edge35" class="edge"><title>Node3&#45;&gt;Node16</title>
<path fill="none" stroke="midnightblue" d="M540.366,-169.389C537.209,-168.873 534.061,-168.401 531.013,-168 476.008,-160.771 70.8011,-172.618 33.013,-132 10.0057,-107.269 10.2539,-80.9591 33.013,-56 61.538,-24.7178 341.189,-14.865 463.373,-12.0383"/>
<polygon fill="midnightblue" stroke="midnightblue" points="463.726,-15.5314 473.645,-11.8087 463.569,-8.5331 463.726,-15.5314"/>
</g>
<!-- Node17 -->
<g id="node18" class="node"><title>Node17</title>
<g id="a_node18"><a xlink:href="a00485_source.html" target="_top" xlink:title="replacements.h">
<polygon fill="white" stroke="black" points="342.513,-112.5 342.513,-131.5 431.513,-131.5 431.513,-112.5 342.513,-112.5"/>
<text text-anchor="middle" x="387.013" y="-119.5" font-family="Helvetica,sans-Serif" font-size="10.00">replacements.h</text>
</a>
</g>
</g>
<!-- Node3&#45;&gt;Node17 -->
<g id="edge20" class="edge"><title>Node3&#45;&gt;Node17</title>
<path fill="none" stroke="midnightblue" d="M547.749,-168.444C515.058,-159.201 462.831,-144.436 426.83,-134.257"/>
<polygon fill="midnightblue" stroke="midnightblue" points="427.711,-130.869 417.136,-131.516 425.807,-137.605 427.711,-130.869"/>
</g>
<!-- Node20 -->
<g id="node21" class="node"><title>Node20</title>
<g id="a_node21"><a xlink:href="a00416_source.html" target="_top" xlink:title="freetds/proto.h">
<polygon fill="white" stroke="black" points="450.013,-112.5 450.013,-131.5 536.013,-131.5 536.013,-112.5 450.013,-112.5"/>
<text text-anchor="middle" x="493.013" y="-119.5" font-family="Helvetica,sans-Serif" font-size="10.00">freetds/proto.h</text>
</a>
</g>
</g>
<!-- Node3&#45;&gt;Node20 -->
<g id="edge34" class="edge"><title>Node3&#45;&gt;Node20</title>
<path fill="none" stroke="midnightblue" d="M564.356,-168.324C551.097,-159.9 530.745,-146.971 515.167,-137.074"/>
<polygon fill="midnightblue" stroke="midnightblue" points="516.953,-134.063 506.636,-131.655 513.2,-139.971 516.953,-134.063"/>
</g>
<!-- Node6&#45;&gt;Node6 -->
<g id="edge7" class="edge"><title>Node6&#45;&gt;Node6</title>
<path fill="none" stroke="midnightblue" d="M659.281,-131.575C670.8,-134.27 682.013,-131.078 682.013,-122 682.013,-115.759 676.713,-112.3 669.658,-111.623"/>
<polygon fill="midnightblue" stroke="midnightblue" points="668.982,-108.165 659.281,-112.425 669.521,-115.144 668.982,-108.165"/>
</g>
<!-- Node9 -->
<g id="node10" class="node"><title>Node9</title>
<polygon fill="white" stroke="#bfbfbf" points="878.513,-0.5 878.513,-19.5 923.513,-19.5 923.513,-0.5 878.513,-0.5"/>
<text text-anchor="middle" x="901.013" y="-7.5" font-family="Helvetica,sans-Serif" font-size="10.00">float.h</text>
</g>
<!-- Node8&#45;&gt;Node9 -->
<g id="edge10" class="edge"><title>Node8&#45;&gt;Node9</title>
<path fill="none" stroke="midnightblue" d="M901.013,-56.083C901.013,-49.0059 901.013,-38.8611 901.013,-29.9865"/>
<polygon fill="midnightblue" stroke="midnightblue" points="904.513,-29.751 901.013,-19.7511 897.513,-29.7511 904.513,-29.751"/>
</g>
<!-- Node11&#45;&gt;Node8 -->
<g id="edge13" class="edge"><title>Node11&#45;&gt;Node8</title>
<path fill="none" stroke="midnightblue" d="M930.234,-112.083C925.341,-104.534 918.186,-93.4948 912.18,-84.2298"/>
<polygon fill="midnightblue" stroke="midnightblue" points="915.061,-82.239 906.685,-75.7511 909.187,-86.0463 915.061,-82.239"/>
</g>
<!-- Node14&#45;&gt;Node13 -->
<g id="edge17" class="edge"><title>Node14&#45;&gt;Node13</title>
<path fill="none" stroke="midnightblue" d="M209.513,-112.444C185.936,-103.478 148.691,-89.314 122.049,-79.1827"/>
<polygon fill="midnightblue" stroke="midnightblue" points="122.999,-75.7995 112.408,-75.5164 120.511,-82.3424 122.999,-75.7995"/>
</g>
<!-- Node14&#45;&gt;Node15 -->
<g id="edge18" class="edge"><title>Node14&#45;&gt;Node15</title>
<path fill="none" stroke="midnightblue" d="M226.915,-112.133C219.692,-98.268 208.843,-71.4469 223.013,-56 238.49,-39.1286 553.137,-20.9017 685.812,-13.9336"/>
<polygon fill="midnightblue" stroke="midnightblue" points="685.999,-17.4287 695.803,-13.4122 685.634,-10.4383 685.999,-17.4287"/>
</g>
<!-- Node14&#45;&gt;Node16 -->
<g id="edge19" class="edge"><title>Node14&#45;&gt;Node16</title>
<path fill="none" stroke="midnightblue" d="M219.483,-112.464C201.945,-99.5032 173.933,-74.4217 190.013,-56 224.826,-16.1173 378.675,-10.2661 463.459,-10.1673"/>
<polygon fill="midnightblue" stroke="midnightblue" points="463.689,-13.6675 473.694,-10.1829 463.699,-6.66752 463.689,-13.6675"/>
</g>
<!-- Node17&#45;&gt;Node4 -->
<g id="edge21" class="edge"><title>Node17&#45;&gt;Node4</title>
<path fill="none" stroke="midnightblue" d="M431.775,-113.355C434.898,-112.879 438.001,-112.422 441.013,-112 581.438,-92.3379 618.077,-98.8825 758.013,-76 759.296,-75.7902 760.6,-75.5671 761.914,-75.3337"/>
<polygon fill="midnightblue" stroke="midnightblue" points="762.909,-78.7068 772.071,-73.3866 761.591,-71.832 762.909,-78.7068"/>
</g>
<!-- Node17&#45;&gt;Node8 -->
<g id="edge22" class="edge"><title>Node17&#45;&gt;Node8</title>
<path fill="none" stroke="midnightblue" d="M431.764,-113.279C434.89,-112.82 437.997,-112.388 441.013,-112 612.61,-89.9117 659.163,-95.8595 835.239,-76.0316"/>
<polygon fill="midnightblue" stroke="midnightblue" points="835.825,-79.4875 845.365,-74.8791 835.034,-72.5324 835.825,-79.4875"/>
</g>
<!-- Node17&#45;&gt;Node10 -->
<g id="edge23" class="edge"><title>Node17&#45;&gt;Node10</title>
<path fill="none" stroke="midnightblue" d="M372.874,-112.324C359.147,-103.9 338.077,-90.9709 321.949,-81.0741"/>
<polygon fill="midnightblue" stroke="midnightblue" points="323.47,-77.9016 313.117,-75.6545 319.809,-83.8678 323.47,-77.9016"/>
</g>
<!-- Node17&#45;&gt;Node15 -->
<g id="edge31" class="edge"><title>Node17&#45;&gt;Node15</title>
<path fill="none" stroke="midnightblue" d="M431.781,-113.4C434.903,-112.913 438.004,-112.441 441.013,-112 503.956,-102.769 676.614,-117.286 725.013,-76 738.271,-64.6908 742.546,-44.6881 743.795,-29.8496"/>
<polygon fill="midnightblue" stroke="midnightblue" points="747.297,-29.8888 744.26,-19.7387 740.305,-29.5675 747.297,-29.8888"/>
</g>
<!-- Node17&#45;&gt;Node16 -->
<g id="edge32" class="edge"><title>Node17&#45;&gt;Node16</title>
<path fill="none" stroke="midnightblue" d="M431.652,-113.22C455.266,-106.927 483.015,-95.7268 501.013,-76 512.518,-63.3901 517.084,-44.1763 518.882,-29.9052"/>
<polygon fill="midnightblue" stroke="midnightblue" points="522.386,-30.0171 519.81,-19.7403 515.415,-29.3808 522.386,-30.0171"/>
</g>
<!-- Node18 -->
<g id="node19" class="node"><title>Node18</title>
<g id="a_node19"><a xlink:href="a00482_source.html" target="_top" xlink:title="replacements/readpassphrase.h">
<polygon fill="white" stroke="black" points="547.513,-56.5 547.513,-75.5 716.513,-75.5 716.513,-56.5 547.513,-56.5"/>
<text text-anchor="middle" x="632.013" y="-63.5" font-family="Helvetica,sans-Serif" font-size="10.00">replacements/readpassphrase.h</text>
</a>
</g>
</g>
<!-- Node17&#45;&gt;Node18 -->
<g id="edge24" class="edge"><title>Node17&#45;&gt;Node18</title>
<path fill="none" stroke="midnightblue" d="M425.834,-112.444C468.574,-103.023 537.345,-87.8656 583.579,-77.6752"/>
<polygon fill="midnightblue" stroke="midnightblue" points="584.361,-81.0869 593.374,-75.5164 582.855,-74.251 584.361,-81.0869"/>
</g>
<!-- Node19 -->
<g id="node20" class="node"><title>Node19</title>
<g id="a_node20"><a xlink:href="a00479.html" target="_top" xlink:title="Provide poll call where missing. ">
<polygon fill="white" stroke="black" points="384.013,-56.5 384.013,-75.5 492.013,-75.5 492.013,-56.5 384.013,-56.5"/>
<text text-anchor="middle" x="438.013" y="-63.5" font-family="Helvetica,sans-Serif" font-size="10.00">replacements/poll.h</text>
</a>
</g>
</g>
<!-- Node17&#45;&gt;Node19 -->
<g id="edge27" class="edge"><title>Node17&#45;&gt;Node19</title>
<path fill="none" stroke="midnightblue" d="M395.435,-112.083C402.861,-104.22 413.865,-92.5688 422.825,-83.0813"/>
<polygon fill="midnightblue" stroke="midnightblue" points="425.426,-85.4244 429.748,-75.7511 420.337,-80.618 425.426,-85.4244"/>
</g>
<!-- Node18&#45;&gt;Node15 -->
<g id="edge25" class="edge"><title>Node18&#45;&gt;Node15</title>
<path fill="none" stroke="midnightblue" d="M650.008,-56.324C668.051,-47.6247 696.06,-34.1202 716.816,-24.113"/>
<polygon fill="midnightblue" stroke="midnightblue" points="718.575,-27.1502 726.063,-19.6545 715.535,-20.8449 718.575,-27.1502"/>
</g>
<!-- Node18&#45;&gt;Node16 -->
<g id="edge26" class="edge"><title>Node18&#45;&gt;Node16</title>
<path fill="none" stroke="midnightblue" d="M614.018,-56.324C595.975,-47.6247 567.966,-34.1202 547.21,-24.113"/>
<polygon fill="midnightblue" stroke="midnightblue" points="548.491,-20.8449 537.963,-19.6545 545.451,-27.1502 548.491,-20.8449"/>
</g>
<!-- Node19&#45;&gt;Node1 -->
<g id="edge28" class="edge"><title>Node19&#45;&gt;Node1</title>
<path fill="none" stroke="midnightblue" d="M400.777,-56.4435C356.684,-46.3117 283.708,-29.5427 239.809,-19.4553"/>
<polygon fill="midnightblue" stroke="midnightblue" points="240.372,-15.9934 229.842,-17.1649 238.804,-22.8156 240.372,-15.9934"/>
</g>
<!-- Node19&#45;&gt;Node15 -->
<g id="edge29" class="edge"><title>Node19&#45;&gt;Node15</title>
<path fill="none" stroke="midnightblue" d="M486.5,-56.4435C540.632,-46.8909 628.198,-31.438 685.941,-21.2481"/>
<polygon fill="midnightblue" stroke="midnightblue" points="686.766,-24.6566 696.005,-19.4719 685.549,-17.7631 686.766,-24.6566"/>
</g>
<!-- Node19&#45;&gt;Node16 -->
<g id="edge30" class="edge"><title>Node19&#45;&gt;Node16</title>
<path fill="none" stroke="midnightblue" d="M451.188,-56.324C463.86,-47.979 483.246,-35.2122 498.219,-25.3524"/>
<polygon fill="midnightblue" stroke="midnightblue" points="500.444,-28.0776 506.871,-19.6545 496.594,-22.2313 500.444,-28.0776"/>
</g>
<!-- Node21&#45;&gt;Node15 -->
<g id="edge37" class="edge"><title>Node21&#45;&gt;Node15</title>
<path fill="none" stroke="midnightblue" d="M1012.96,-57.5482C958.169,-48.0654 863.316,-31.6486 802.144,-21.0612"/>
<polygon fill="midnightblue" stroke="midnightblue" points="802.704,-17.6061 792.254,-19.3494 801.51,-24.5036 802.704,-17.6061"/>
</g>
<!-- Node21&#45;&gt;Node16 -->
<g id="edge38" class="edge"><title>Node21&#45;&gt;Node16</title>
<path fill="none" stroke="midnightblue" d="M1012.6,-60.6267C916.029,-50.8972 683.481,-27.4687 576.096,-16.6501"/>
<polygon fill="midnightblue" stroke="midnightblue" points="576.404,-13.1635 566.103,-15.6434 575.702,-20.1283 576.404,-13.1635"/>
</g>
<!-- Node22&#45;&gt;Node15 -->
<g id="edge40" class="edge"><title>Node22&#45;&gt;Node15</title>
<path fill="none" stroke="midnightblue" d="M1117.28,-57.3593C1114.15,-56.887 1111.04,-56.4295 1108.01,-56 1000.31,-40.6926 874.24,-25.7743 802.291,-17.5434"/>
<polygon fill="midnightblue" stroke="midnightblue" points="802.409,-14.0343 792.076,-16.3783 801.615,-20.9892 802.409,-14.0343"/>
</g>
<!-- Node22&#45;&gt;Node16 -->
<g id="edge41" class="edge"><title>Node22&#45;&gt;Node16</title>
<path fill="none" stroke="midnightblue" d="M1117.3,-57.1958C1114.16,-56.763 1111.04,-56.359 1108.01,-56 913.437,-32.9592 681.171,-19.2189 576.306,-13.7502"/>
<polygon fill="midnightblue" stroke="midnightblue" points="576.427,-10.2519 566.26,-13.2313 576.066,-17.2425 576.427,-10.2519"/>
</g>
</g>
</svg>
