<?xml version="1.0" encoding="UTF-8" standalone="no"?>
<!DOCTYPE svg PUBLIC "-//W3C//DTD SVG 1.1//EN"
 "http://www.w3.org/Graphics/SVG/1.1/DTD/svg11.dtd">
<!-- Generated by graphviz version 2.38.0 (20140413.2041)
 -->
<!-- Title: src/tds/iconv.c Pages: 1 -->
<svg width="1286pt" height="252pt"
 viewBox="0.00 0.00 1285.71 252.00" xmlns="http://www.w3.org/2000/svg" xmlns:xlink="http://www.w3.org/1999/xlink">
<g id="graph0" class="graph" transform="scale(1 1) rotate(0) translate(4 248)">
<title>src/tds/iconv.c</title>
<polygon fill="white" stroke="none" points="-4,4 -4,-248 1281.71,-248 1281.71,4 -4,4"/>
<!-- Node0 -->
<g id="node1" class="node"><title>Node0</title>
<polygon fill="#bfbfbf" stroke="black" points="997.207,-224.5 997.207,-243.5 1080.21,-243.5 1080.21,-224.5 997.207,-224.5"/>
<text text-anchor="middle" x="1038.71" y="-231.5" font-family="Helvetica,sans-Serif" font-size="10.00">src/tds/iconv.c</text>
</g>
<!-- Node1 -->
<g id="node2" class="node"><title>Node1</title>
<g id="a_node2"><a xlink:href="a00362_source.html" target="_top" xlink:title="config.h">
<polygon fill="white" stroke="black" points="8.20707,-0.5 8.20707,-19.5 61.2071,-19.5 61.2071,-0.5 8.20707,-0.5"/>
<text text-anchor="middle" x="34.7071" y="-7.5" font-family="Helvetica,sans-Serif" font-size="10.00">config.h</text>
</a>
</g>
</g>
<!-- Node0&#45;&gt;Node1 -->
<g id="edge1" class="edge"><title>Node0&#45;&gt;Node1</title>
<path fill="none" stroke="midnightblue" d="M997.153,-232.136C813.375,-227.893 79.738,-206.37 12.7071,-132 -13.2776,-103.17 8.73178,-54.2749 23.6785,-28.3457"/>
<polygon fill="midnightblue" stroke="midnightblue" points="26.7731,-29.9918 28.9464,-19.6223 20.7809,-26.3732 26.7731,-29.9918"/>
</g>
<!-- Node2 -->
<g id="node3" class="node"><title>Node2</title>
<polygon fill="white" stroke="#bfbfbf" points="987.207,-56.5 987.207,-75.5 1042.21,-75.5 1042.21,-56.5 987.207,-56.5"/>
<text text-anchor="middle" x="1014.71" y="-63.5" font-family="Helvetica,sans-Serif" font-size="10.00">stdarg.h</text>
</g>
<!-- Node0&#45;&gt;Node2 -->
<g id="edge2" class="edge"><title>Node0&#45;&gt;Node2</title>
<path fill="none" stroke="midnightblue" d="M1041.44,-224.227C1047.31,-203.914 1059.58,-152.311 1046.71,-112 1043.37,-101.538 1036.61,-91.4277 1030.16,-83.4496"/>
<polygon fill="midnightblue" stroke="midnightblue" points="1032.65,-80.9815 1023.46,-75.7136 1027.36,-85.5641 1032.65,-80.9815"/>
</g>
<!-- Node3 -->
<g id="node4" class="node"><title>Node3</title>
<polygon fill="white" stroke="#bfbfbf" points="892.207,-112.5 892.207,-131.5 939.207,-131.5 939.207,-112.5 892.207,-112.5"/>
<text text-anchor="middle" x="915.707" y="-119.5" font-family="Helvetica,sans-Serif" font-size="10.00">stdio.h</text>
</g>
<!-- Node0&#45;&gt;Node3 -->
<g id="edge3" class="edge"><title>Node0&#45;&gt;Node3</title>
<path fill="none" stroke="midnightblue" d="M1029.06,-224.368C1008.31,-205.814 959.219,-161.913 932.969,-138.438"/>
<polygon fill="midnightblue" stroke="midnightblue" points="935.101,-135.649 925.314,-131.591 930.435,-140.867 935.101,-135.649"/>
</g>
<!-- Node4 -->
<g id="node5" class="node"><title>Node4</title>
<polygon fill="white" stroke="#bfbfbf" points="1131.71,-168.5 1131.71,-187.5 1185.71,-187.5 1185.71,-168.5 1131.71,-168.5"/>
<text text-anchor="middle" x="1158.71" y="-175.5" font-family="Helvetica,sans-Serif" font-size="10.00">assert.h</text>
</g>
<!-- Node0&#45;&gt;Node4 -->
<g id="edge4" class="edge"><title>Node0&#45;&gt;Node4</title>
<path fill="none" stroke="midnightblue" d="M1057.72,-224.444C1077.29,-215.636 1108.01,-201.812 1130.44,-191.722"/>
<polygon fill="midnightblue" stroke="midnightblue" points="1132.1,-194.812 1139.78,-187.516 1129.23,-188.428 1132.1,-194.812"/>
</g>
<!-- Node5 -->
<g id="node6" class="node"><title>Node5</title>
<g id="a_node6"><a xlink:href="a00431.html" target="_top" xlink:title="Main include file for libtds. ">
<polygon fill="white" stroke="black" points="560.207,-168.5 560.207,-187.5 635.207,-187.5 635.207,-168.5 560.207,-168.5"/>
<text text-anchor="middle" x="597.707" y="-175.5" font-family="Helvetica,sans-Serif" font-size="10.00">freetds/tds.h</text>
</a>
</g>
</g>
<!-- Node0&#45;&gt;Node5 -->
<g id="edge5" class="edge"><title>Node0&#45;&gt;Node5</title>
<path fill="none" stroke="midnightblue" d="M996.821,-227.871C914.49,-217.79 732.056,-195.451 645.311,-184.829"/>
<polygon fill="midnightblue" stroke="midnightblue" points="645.571,-181.335 635.22,-183.593 644.72,-188.283 645.571,-181.335"/>
</g>
<!-- Node12 -->
<g id="node13" class="node"><title>Node12</title>
<g id="a_node13"><a xlink:href="a00383_source.html" target="_top" xlink:title="freetds/bool.h">
<polygon fill="white" stroke="black" points="957.707,-112.5 957.707,-131.5 1037.71,-131.5 1037.71,-112.5 957.707,-112.5"/>
<text text-anchor="middle" x="997.707" y="-119.5" font-family="Helvetica,sans-Serif" font-size="10.00">freetds/bool.h</text>
</a>
</g>
</g>
<!-- Node0&#45;&gt;Node12 -->
<g id="edge41" class="edge"><title>Node0&#45;&gt;Node12</title>
<path fill="none" stroke="midnightblue" d="M1035.49,-224.368C1028.84,-206.537 1013.47,-165.295 1004.52,-141.272"/>
<polygon fill="midnightblue" stroke="midnightblue" points="1007.68,-139.739 1000.91,-131.591 1001.12,-142.184 1007.68,-139.739"/>
</g>
<!-- Node21 -->
<g id="node22" class="node"><title>Node21</title>
<g id="a_node22"><a xlink:href="a00404_source.html" target="_top" xlink:title="freetds/iconv.h">
<polygon fill="white" stroke="black" points="1060.71,-56.5 1060.71,-75.5 1146.71,-75.5 1146.71,-56.5 1060.71,-56.5"/>
<text text-anchor="middle" x="1103.71" y="-63.5" font-family="Helvetica,sans-Serif" font-size="10.00">freetds/iconv.h</text>
</a>
</g>
</g>
<!-- Node0&#45;&gt;Node21 -->
<g id="edge38" class="edge"><title>Node0&#45;&gt;Node21</title>
<path fill="none" stroke="midnightblue" d="M1044.46,-224.328C1050.16,-215.474 1058.85,-201.194 1064.71,-188 1080.25,-152.997 1092.64,-109.854 1099.01,-85.6874"/>
<polygon fill="midnightblue" stroke="midnightblue" points="1102.47,-86.2979 1101.57,-75.7409 1095.69,-84.5514 1102.47,-86.2979"/>
</g>
<!-- Node22 -->
<g id="node23" class="node"><title>Node22</title>
<g id="a_node23"><a xlink:href="a00251_source.html" target="_top" xlink:title="encodings.h">
<polygon fill="white" stroke="black" points="1203.71,-168.5 1203.71,-187.5 1277.71,-187.5 1277.71,-168.5 1203.71,-168.5"/>
<text text-anchor="middle" x="1240.71" y="-175.5" font-family="Helvetica,sans-Serif" font-size="10.00">encodings.h</text>
</a>
</g>
</g>
<!-- Node0&#45;&gt;Node22 -->
<g id="edge42" class="edge"><title>Node0&#45;&gt;Node22</title>
<path fill="none" stroke="midnightblue" d="M1070.71,-224.444C1105.44,-215.162 1160.99,-200.309 1199.08,-190.127"/>
<polygon fill="midnightblue" stroke="midnightblue" points="1200.09,-193.48 1208.85,-187.516 1198.28,-186.718 1200.09,-193.48"/>
</g>
<!-- Node5&#45;&gt;Node2 -->
<g id="edge6" class="edge"><title>Node5&#45;&gt;Node2</title>
<path fill="none" stroke="midnightblue" d="M635.504,-171.026C677.269,-163.9 746.232,-150.576 803.707,-132 824.92,-125.144 828.677,-119.396 849.707,-112 873.076,-103.781 936.079,-87.1587 977.122,-76.5791"/>
<polygon fill="midnightblue" stroke="midnightblue" points="978.232,-79.9076 987.046,-74.0284 976.49,-73.128 978.232,-79.9076"/>
</g>
<!-- Node5&#45;&gt;Node3 -->
<g id="edge7" class="edge"><title>Node5&#45;&gt;Node3</title>
<path fill="none" stroke="midnightblue" d="M635.453,-171.829C689.384,-164.238 791.505,-149.111 877.707,-132 879.162,-131.711 880.645,-131.406 882.142,-131.09"/>
<polygon fill="midnightblue" stroke="midnightblue" points="883.047,-134.474 892.049,-128.886 881.527,-127.641 883.047,-134.474"/>
</g>
<!-- Node6 -->
<g id="node7" class="node"><title>Node6</title>
<g id="a_node7"><a xlink:href="a00437_source.html" target="_top" xlink:title="time.h">
<polygon fill="white" stroke="black" points="169.707,-112.5 169.707,-131.5 213.707,-131.5 213.707,-112.5 169.707,-112.5"/>
<text text-anchor="middle" x="191.707" y="-119.5" font-family="Helvetica,sans-Serif" font-size="10.00">time.h</text>
</a>
</g>
</g>
<!-- Node5&#45;&gt;Node6 -->
<g id="edge8" class="edge"><title>Node5&#45;&gt;Node6</title>
<path fill="none" stroke="midnightblue" d="M560.089,-172.963C494.897,-165.81 356.769,-149.959 240.707,-132 235.394,-131.178 229.773,-130.224 224.306,-129.252"/>
<polygon fill="midnightblue" stroke="midnightblue" points="224.57,-125.742 214.104,-127.388 223.312,-132.628 224.57,-125.742"/>
</g>
<!-- Node7 -->
<g id="node8" class="node"><title>Node7</title>
<g id="a_node8"><a xlink:href="a00470_source.html" target="_top" xlink:title="freetds/version.h">
<polygon fill="white" stroke="black" points="250.207,-112.5 250.207,-131.5 345.207,-131.5 345.207,-112.5 250.207,-112.5"/>
<text text-anchor="middle" x="297.707" y="-119.5" font-family="Helvetica,sans-Serif" font-size="10.00">freetds/version.h</text>
</a>
</g>
</g>
<!-- Node5&#45;&gt;Node7 -->
<g id="edge10" class="edge"><title>Node5&#45;&gt;Node7</title>
<path fill="none" stroke="midnightblue" d="M560.016,-170.216C508.469,-160.937 415.519,-144.206 355.238,-133.356"/>
<polygon fill="midnightblue" stroke="midnightblue" points="355.58,-129.861 345.118,-131.534 354.34,-136.75 355.58,-129.861"/>
</g>
<!-- Node8 -->
<g id="node9" class="node"><title>Node8</title>
<g id="a_node9"><a xlink:href="a00506_source.html" target="_top" xlink:title="tds_sysdep_public.h">
<polygon fill="white" stroke="black" points="86.2071,-56.5 86.2071,-75.5 197.207,-75.5 197.207,-56.5 86.2071,-56.5"/>
<text text-anchor="middle" x="141.707" y="-63.5" font-family="Helvetica,sans-Serif" font-size="10.00">tds_sysdep_public.h</text>
</a>
</g>
</g>
<!-- Node5&#45;&gt;Node8 -->
<g id="edge11" class="edge"><title>Node5&#45;&gt;Node8</title>
<path fill="none" stroke="midnightblue" d="M559.869,-175.493C459.329,-171.159 191.107,-157.322 160.707,-132 147.318,-120.847 143.063,-100.82 141.855,-85.9328"/>
<polygon fill="midnightblue" stroke="midnightblue" points="145.345,-85.625 141.423,-75.7827 138.351,-85.9224 145.345,-85.625"/>
</g>
<!-- Node10 -->
<g id="node11" class="node"><title>Node10</title>
<g id="a_node11"><a xlink:href="a00428_source.html" target="_top" xlink:title="freetds/sysdep_private.h">
<polygon fill="white" stroke="black" points="836.207,-56.5 836.207,-75.5 969.207,-75.5 969.207,-56.5 836.207,-56.5"/>
<text text-anchor="middle" x="902.707" y="-63.5" font-family="Helvetica,sans-Serif" font-size="10.00">freetds/sysdep_private.h</text>
</a>
</g>
</g>
<!-- Node5&#45;&gt;Node10 -->
<g id="edge13" class="edge"><title>Node5&#45;&gt;Node10</title>
<path fill="none" stroke="midnightblue" d="M635.482,-169.169C670.358,-161.432 723.315,-148.393 767.707,-132 778.627,-127.967 840.281,-97.7939 876.38,-80.0084"/>
<polygon fill="midnightblue" stroke="midnightblue" points="877.97,-83.1267 885.391,-75.5646 874.874,-76.8486 877.97,-83.1267"/>
</g>
<!-- Node11 -->
<g id="node12" class="node"><title>Node11</title>
<g id="a_node12"><a xlink:href="a00434_source.html" target="_top" xlink:title="freetds/thread.h">
<polygon fill="white" stroke="black" points="21.7071,-112.5 21.7071,-131.5 113.707,-131.5 113.707,-112.5 21.7071,-112.5"/>
<text text-anchor="middle" x="67.7071" y="-119.5" font-family="Helvetica,sans-Serif" font-size="10.00">freetds/thread.h</text>
</a>
</g>
</g>
<!-- Node5&#45;&gt;Node11 -->
<g id="edge14" class="edge"><title>Node5&#45;&gt;Node11</title>
<path fill="none" stroke="midnightblue" d="M560.165,-174.091C480.396,-167.76 288.188,-151.704 127.707,-132 126.443,-131.845 125.164,-131.684 123.875,-131.519"/>
<polygon fill="midnightblue" stroke="midnightblue" points="124.237,-128.036 113.861,-130.177 123.308,-134.974 124.237,-128.036"/>
</g>
<!-- Node5&#45;&gt;Node12 -->
<g id="edge16" class="edge"><title>Node5&#45;&gt;Node12</title>
<path fill="none" stroke="midnightblue" d="M635.346,-172.789C699.557,-165.465 834.33,-149.481 947.707,-132 947.808,-131.984 947.909,-131.969 948.01,-131.953"/>
<polygon fill="midnightblue" stroke="midnightblue" points="948.307,-135.451 957.62,-130.399 947.189,-128.541 948.307,-135.451"/>
</g>
<!-- Node13 -->
<g id="node14" class="node"><title>Node13</title>
<g id="a_node14"><a xlink:href="a00407_source.html" target="_top" xlink:title="freetds/macros.h">
<polygon fill="white" stroke="black" points="257.207,-56.5 257.207,-75.5 352.207,-75.5 352.207,-56.5 257.207,-56.5"/>
<text text-anchor="middle" x="304.707" y="-63.5" font-family="Helvetica,sans-Serif" font-size="10.00">freetds/macros.h</text>
</a>
</g>
</g>
<!-- Node5&#45;&gt;Node13 -->
<g id="edge17" class="edge"><title>Node5&#45;&gt;Node13</title>
<path fill="none" stroke="midnightblue" d="M586.282,-168.304C567.526,-154.431 528.597,-127.298 491.707,-112 450.121,-94.7542 400.47,-83.1921 362.784,-76.1104"/>
<polygon fill="midnightblue" stroke="midnightblue" points="362.955,-72.5837 352.489,-74.2308 361.697,-79.4699 362.955,-72.5837"/>
</g>
<!-- Node14 -->
<g id="node15" class="node"><title>Node14</title>
<g id="a_node15"><a xlink:href="a00464_source.html" target="_top" xlink:title="freetds/utils/string.h">
<polygon fill="white" stroke="black" points="543.707,-112.5 543.707,-131.5 651.707,-131.5 651.707,-112.5 543.707,-112.5"/>
<text text-anchor="middle" x="597.707" y="-119.5" font-family="Helvetica,sans-Serif" font-size="10.00">freetds/utils/string.h</text>
</a>
</g>
</g>
<!-- Node5&#45;&gt;Node14 -->
<g id="edge18" class="edge"><title>Node5&#45;&gt;Node14</title>
<path fill="none" stroke="midnightblue" d="M597.707,-168.083C597.707,-161.006 597.707,-150.861 597.707,-141.986"/>
<polygon fill="midnightblue" stroke="midnightblue" points="601.207,-141.751 597.707,-131.751 594.207,-141.751 601.207,-141.751"/>
</g>
<!-- Node15 -->
<g id="node16" class="node"><title>Node15</title>
<g id="a_node16"><a xlink:href="a00419_source.html" target="_top" xlink:title="freetds/pushvis.h">
<polygon fill="white" stroke="black" points="740.707,-0.5 740.707,-19.5 836.707,-19.5 836.707,-0.5 740.707,-0.5"/>
<text text-anchor="middle" x="788.707" y="-7.5" font-family="Helvetica,sans-Serif" font-size="10.00">freetds/pushvis.h</text>
</a>
</g>
</g>
<!-- Node5&#45;&gt;Node15 -->
<g id="edge35" class="edge"><title>Node5&#45;&gt;Node15</title>
<path fill="none" stroke="midnightblue" d="M635.51,-173.101C683.953,-167.406 770.106,-154.909 840.707,-132 860.373,-125.619 862.882,-117.868 882.707,-112 941.383,-94.6331 1115.37,-122.011 1155.71,-76 1197.44,-28.4063 961.04,-15.5946 847.249,-12.199"/>
<polygon fill="midnightblue" stroke="midnightblue" points="847.058,-8.69224 836.963,-11.9077 846.859,-15.6894 847.058,-8.69224"/>
</g>
<!-- Node16 -->
<g id="node17" class="node"><title>Node16</title>
<g id="a_node17"><a xlink:href="a00413_source.html" target="_top" xlink:title="freetds/popvis.h">
<polygon fill="white" stroke="black" points="413.707,-0.5 413.707,-19.5 505.707,-19.5 505.707,-0.5 413.707,-0.5"/>
<text text-anchor="middle" x="459.707" y="-7.5" font-family="Helvetica,sans-Serif" font-size="10.00">freetds/popvis.h</text>
</a>
</g>
</g>
<!-- Node5&#45;&gt;Node16 -->
<g id="edge37" class="edge"><title>Node5&#45;&gt;Node16</title>
<path fill="none" stroke="midnightblue" d="M574.946,-168.433C553.185,-159.988 519.647,-146.304 491.707,-132 476.441,-124.185 474.776,-117.992 458.707,-112 369.57,-78.7609 309.059,-148.706 247.707,-76 202.919,-22.9236 326.531,-12.3738 403.444,-10.7715"/>
<polygon fill="midnightblue" stroke="midnightblue" points="403.561,-14.2702 413.502,-10.6068 403.446,-7.27114 403.561,-14.2702"/>
</g>
<!-- Node17 -->
<g id="node18" class="node"><title>Node17</title>
<g id="a_node18"><a xlink:href="a00485_source.html" target="_top" xlink:title="replacements.h">
<polygon fill="white" stroke="black" points="670.207,-112.5 670.207,-131.5 759.207,-131.5 759.207,-112.5 670.207,-112.5"/>
<text text-anchor="middle" x="714.707" y="-119.5" font-family="Helvetica,sans-Serif" font-size="10.00">replacements.h</text>
</a>
</g>
</g>
<!-- Node5&#45;&gt;Node17 -->
<g id="edge22" class="edge"><title>Node5&#45;&gt;Node17</title>
<path fill="none" stroke="midnightblue" d="M616.246,-168.444C635.33,-159.636 665.282,-145.812 687.143,-135.722"/>
<polygon fill="midnightblue" stroke="midnightblue" points="688.642,-138.885 696.255,-131.516 685.708,-132.529 688.642,-138.885"/>
</g>
<!-- Node20 -->
<g id="node21" class="node"><title>Node20</title>
<g id="a_node21"><a xlink:href="a00416_source.html" target="_top" xlink:title="freetds/proto.h">
<polygon fill="white" stroke="black" points="363.707,-112.5 363.707,-131.5 449.707,-131.5 449.707,-112.5 363.707,-112.5"/>
<text text-anchor="middle" x="406.707" y="-119.5" font-family="Helvetica,sans-Serif" font-size="10.00">freetds/proto.h</text>
</a>
</g>
</g>
<!-- Node5&#45;&gt;Node20 -->
<g id="edge36" class="edge"><title>Node5&#45;&gt;Node20</title>
<path fill="none" stroke="midnightblue" d="M567.443,-168.444C534.752,-159.201 482.525,-144.436 446.524,-134.257"/>
<polygon fill="midnightblue" stroke="midnightblue" points="447.405,-130.869 436.83,-131.516 445.501,-137.605 447.405,-130.869"/>
</g>
<!-- Node6&#45;&gt;Node6 -->
<g id="edge9" class="edge"><title>Node6&#45;&gt;Node6</title>
<path fill="none" stroke="midnightblue" d="M208.975,-131.575C220.495,-134.27 231.707,-131.078 231.707,-122 231.707,-115.759 226.407,-112.3 219.352,-111.623"/>
<polygon fill="midnightblue" stroke="midnightblue" points="218.676,-108.165 208.975,-112.425 219.215,-115.144 218.676,-108.165"/>
</g>
<!-- Node9 -->
<g id="node10" class="node"><title>Node9</title>
<polygon fill="white" stroke="#bfbfbf" points="119.207,-0.5 119.207,-19.5 164.207,-19.5 164.207,-0.5 119.207,-0.5"/>
<text text-anchor="middle" x="141.707" y="-7.5" font-family="Helvetica,sans-Serif" font-size="10.00">float.h</text>
</g>
<!-- Node8&#45;&gt;Node9 -->
<g id="edge12" class="edge"><title>Node8&#45;&gt;Node9</title>
<path fill="none" stroke="midnightblue" d="M141.707,-56.083C141.707,-49.0059 141.707,-38.8611 141.707,-29.9865"/>
<polygon fill="midnightblue" stroke="midnightblue" points="145.207,-29.751 141.707,-19.7511 138.207,-29.7511 145.207,-29.751"/>
</g>
<!-- Node11&#45;&gt;Node8 -->
<g id="edge15" class="edge"><title>Node11&#45;&gt;Node8</title>
<path fill="none" stroke="midnightblue" d="M79.5964,-112.324C90.8573,-104.107 107.994,-91.6017 121.416,-81.8069"/>
<polygon fill="midnightblue" stroke="midnightblue" points="123.587,-84.5559 129.601,-75.8339 119.46,-78.9014 123.587,-84.5559"/>
</g>
<!-- Node14&#45;&gt;Node13 -->
<g id="edge19" class="edge"><title>Node14&#45;&gt;Node13</title>
<path fill="none" stroke="midnightblue" d="M551.28,-112.444C499.631,-102.925 416.195,-87.5472 360.9,-77.3563"/>
<polygon fill="midnightblue" stroke="midnightblue" points="361.385,-73.887 350.917,-75.5164 360.117,-80.771 361.385,-73.887"/>
</g>
<!-- Node14&#45;&gt;Node15 -->
<g id="edge20" class="edge"><title>Node14&#45;&gt;Node15</title>
<path fill="none" stroke="midnightblue" d="M639.125,-112.438C678.203,-103.726 733.316,-89.6062 750.707,-76 766.116,-63.9443 776.496,-43.767 782.461,-29.0857"/>
<polygon fill="midnightblue" stroke="midnightblue" points="785.798,-30.1538 786.032,-19.5615 779.244,-27.6959 785.798,-30.1538"/>
</g>
<!-- Node14&#45;&gt;Node16 -->
<g id="edge21" class="edge"><title>Node14&#45;&gt;Node16</title>
<path fill="none" stroke="midnightblue" d="M546.697,-112.459C492.573,-102.879 413.61,-87.2177 404.707,-76 390.458,-58.0464 413.647,-37.9958 434.149,-24.9748"/>
<polygon fill="midnightblue" stroke="midnightblue" points="436.179,-27.8385 442.945,-19.6855 432.572,-21.8396 436.179,-27.8385"/>
</g>
<!-- Node17&#45;&gt;Node2 -->
<g id="edge23" class="edge"><title>Node17&#45;&gt;Node2</title>
<path fill="none" stroke="midnightblue" d="M759.558,-114.293C809.998,-106.536 894.566,-92.8881 976.852,-76.0569"/>
<polygon fill="midnightblue" stroke="midnightblue" points="977.787,-79.4378 986.873,-73.9888 976.372,-72.5823 977.787,-79.4378"/>
</g>
<!-- Node17&#45;&gt;Node8 -->
<g id="edge24" class="edge"><title>Node17&#45;&gt;Node8</title>
<path fill="none" stroke="midnightblue" d="M669.958,-113.263C666.831,-112.809 663.724,-112.382 660.707,-112 649.587,-110.593 344.321,-84.3683 207.249,-72.6154"/>
<polygon fill="midnightblue" stroke="midnightblue" points="207.544,-69.128 197.282,-71.7609 206.946,-76.1024 207.544,-69.128"/>
</g>
<!-- Node17&#45;&gt;Node10 -->
<g id="edge25" class="edge"><title>Node17&#45;&gt;Node10</title>
<path fill="none" stroke="midnightblue" d="M744.496,-112.444C776.536,-103.241 827.641,-88.5617 863.06,-78.3879"/>
<polygon fill="midnightblue" stroke="midnightblue" points="864.412,-81.6412 873.057,-75.5164 862.48,-74.9132 864.412,-81.6412"/>
</g>
<!-- Node17&#45;&gt;Node15 -->
<g id="edge33" class="edge"><title>Node17&#45;&gt;Node15</title>
<path fill="none" stroke="midnightblue" d="M737.747,-112.419C753.541,-105.238 773.429,-93.3492 783.707,-76 791.91,-62.1544 792.543,-43.6371 791.485,-29.9089"/>
<polygon fill="midnightblue" stroke="midnightblue" points="794.933,-29.2526 790.327,-19.7112 787.977,-30.0422 794.933,-29.2526"/>
</g>
<!-- Node17&#45;&gt;Node16 -->
<g id="edge34" class="edge"><title>Node17&#45;&gt;Node16</title>
<path fill="none" stroke="midnightblue" d="M669.921,-113.518C666.803,-113.002 663.708,-112.492 660.707,-112 611.172,-103.874 470.251,-114.219 437.707,-76 425.938,-62.1786 435.973,-41.7824 446.026,-27.5348"/>
<polygon fill="midnightblue" stroke="midnightblue" points="448.816,-29.6476 452.093,-19.572 443.248,-25.4053 448.816,-29.6476"/>
</g>
<!-- Node18 -->
<g id="node19" class="node"><title>Node18</title>
<g id="a_node19"><a xlink:href="a00482_source.html" target="_top" xlink:title="replacements/readpassphrase.h">
<polygon fill="white" stroke="black" points="573.207,-56.5 573.207,-75.5 742.207,-75.5 742.207,-56.5 573.207,-56.5"/>
<text text-anchor="middle" x="657.707" y="-63.5" font-family="Helvetica,sans-Serif" font-size="10.00">replacements/readpassphrase.h</text>
</a>
</g>
</g>
<!-- Node17&#45;&gt;Node18 -->
<g id="edge26" class="edge"><title>Node17&#45;&gt;Node18</title>
<path fill="none" stroke="midnightblue" d="M705.549,-112.324C697.206,-104.42 684.675,-92.5482 674.53,-82.9377"/>
<polygon fill="midnightblue" stroke="midnightblue" points="676.698,-80.1705 667.032,-75.8339 671.884,-85.2522 676.698,-80.1705"/>
</g>
<!-- Node19 -->
<g id="node20" class="node"><title>Node19</title>
<g id="a_node20"><a xlink:href="a00479.html" target="_top" xlink:title="Provide poll call where missing. ">
<polygon fill="white" stroke="black" points="446.707,-56.5 446.707,-75.5 554.707,-75.5 554.707,-56.5 446.707,-56.5"/>
<text text-anchor="middle" x="500.707" y="-63.5" font-family="Helvetica,sans-Serif" font-size="10.00">replacements/poll.h</text>
</a>
</g>
</g>
<!-- Node17&#45;&gt;Node19 -->
<g id="edge29" class="edge"><title>Node17&#45;&gt;Node19</title>
<path fill="none" stroke="midnightblue" d="M680.798,-112.444C643.858,-103.122 584.654,-88.1828 544.289,-77.9972"/>
<polygon fill="midnightblue" stroke="midnightblue" points="545.01,-74.5695 534.457,-75.5164 543.297,-81.3568 545.01,-74.5695"/>
</g>
<!-- Node18&#45;&gt;Node15 -->
<g id="edge27" class="edge"><title>Node18&#45;&gt;Node15</title>
<path fill="none" stroke="midnightblue" d="M678.464,-56.4435C700.023,-47.5566 733.97,-33.5632 758.501,-23.4514"/>
<polygon fill="midnightblue" stroke="midnightblue" points="760.135,-26.5634 768.047,-19.5164 757.468,-20.0917 760.135,-26.5634"/>
</g>
<!-- Node18&#45;&gt;Node16 -->
<g id="edge28" class="edge"><title>Node18&#45;&gt;Node16</title>
<path fill="none" stroke="midnightblue" d="M626.333,-56.4435C592.444,-47.2011 538.304,-32.4356 500.983,-22.2572"/>
<polygon fill="midnightblue" stroke="midnightblue" points="501.503,-18.771 490.934,-19.5164 499.661,-25.5243 501.503,-18.771"/>
</g>
<!-- Node19&#45;&gt;Node1 -->
<g id="edge30" class="edge"><title>Node19&#45;&gt;Node1</title>
<path fill="none" stroke="midnightblue" d="M446.619,-58.8589C371.155,-50.2715 229.994,-34.139 109.707,-20 97.3164,-18.5436 83.7776,-16.9267 71.6551,-15.4698"/>
<polygon fill="midnightblue" stroke="midnightblue" points="71.7778,-11.9594 61.431,-14.2387 70.9409,-18.9092 71.7778,-11.9594"/>
</g>
<!-- Node19&#45;&gt;Node15 -->
<g id="edge31" class="edge"><title>Node19&#45;&gt;Node15</title>
<path fill="none" stroke="midnightblue" d="M546.342,-56.4435C597.004,-46.9444 678.782,-31.611 733.135,-21.4198"/>
<polygon fill="midnightblue" stroke="midnightblue" points="734.102,-24.7994 743.286,-19.5164 732.812,-17.9193 734.102,-24.7994"/>
</g>
<!-- Node19&#45;&gt;Node16 -->
<g id="edge32" class="edge"><title>Node19&#45;&gt;Node16</title>
<path fill="none" stroke="midnightblue" d="M493.937,-56.083C488.145,-48.4554 479.649,-37.2645 472.57,-27.9408"/>
<polygon fill="midnightblue" stroke="midnightblue" points="475.186,-25.5991 466.351,-19.7511 469.611,-29.8321 475.186,-25.5991"/>
</g>
<!-- Node21&#45;&gt;Node15 -->
<g id="edge39" class="edge"><title>Node21&#45;&gt;Node15</title>
<path fill="none" stroke="midnightblue" d="M1060.57,-57.6048C1005.1,-48.0965 908.585,-31.5504 846.727,-20.9463"/>
<polygon fill="midnightblue" stroke="midnightblue" points="847.179,-17.4728 836.732,-19.2328 845.996,-24.3722 847.179,-17.4728"/>
</g>
<!-- Node21&#45;&gt;Node16 -->
<g id="edge40" class="edge"><title>Node21&#45;&gt;Node16</title>
<path fill="none" stroke="midnightblue" d="M1060.66,-57.3482C1057.3,-56.8552 1053.95,-56.3979 1050.71,-56 854.997,-31.9841 621.15,-18.7084 515.908,-13.55"/>
<polygon fill="midnightblue" stroke="midnightblue" points="515.986,-10.0498 505.829,-13.0616 515.648,-17.0415 515.986,-10.0498"/>
</g>
</g>
</svg>
